G04 #@! TF.GenerationSoftware,KiCad,Pcbnew,(5.99.0-1109-gba7c8ed85)*
G04 #@! TF.CreationDate,2020-03-29T19:16:44-07:00*
G04 #@! TF.ProjectId,ventilator,76656e74-696c-4617-946f-722e6b696361,rev?*
G04 #@! TF.SameCoordinates,Original*
G04 #@! TF.FileFunction,Soldermask,Top*
G04 #@! TF.FilePolarity,Negative*
%FSLAX46Y46*%
G04 Gerber Fmt 4.6, Leading zero omitted, Abs format (unit mm)*
G04 Created by KiCad (PCBNEW (5.99.0-1109-gba7c8ed85)) date 2020-03-29 19:16:44*
%MOMM*%
%LPD*%
G01*
G04 APERTURE LIST*
%ADD10C,1.600000*%
%ADD11O,1.600000X1.600000*%
%ADD12R,2.000000X2.000000*%
%ADD13C,2.000000*%
%ADD14R,1.600000X1.600000*%
%ADD15C,2.600000*%
%ADD16R,2.600000X2.600000*%
%ADD17O,1.905000X2.000000*%
%ADD18R,1.905000X2.000000*%
%ADD19O,2.200000X2.200000*%
%ADD20R,2.200000X2.200000*%
%ADD21C,2.200000*%
%ADD22R,1.700000X1.700000*%
%ADD23O,1.700000X1.700000*%
%ADD24R,3.500000X3.500000*%
%ADD25C,2.340000*%
%ADD26R,1.800000X2.600000*%
%ADD27O,1.800000X2.600000*%
%ADD28C,3.000000*%
%ADD29R,1.800000X1.800000*%
%ADD30C,1.800000*%
G04 APERTURE END LIST*
D10*
X66846500Y-82594500D03*
D11*
X66846500Y-74974500D03*
X76244500Y-74974500D03*
D10*
X76244500Y-82594500D03*
D12*
X84626500Y-132632500D03*
D13*
X84626500Y-137632500D03*
D11*
X75394500Y-137890500D03*
X75394500Y-135350500D03*
D14*
X123654500Y-128750500D03*
D11*
X75394500Y-98270500D03*
X123654500Y-126210500D03*
X75394500Y-100810500D03*
X123654500Y-123670500D03*
X75394500Y-103350500D03*
X123654500Y-121130500D03*
X75394500Y-105890500D03*
X123654500Y-118590500D03*
X75394500Y-108430500D03*
X123654500Y-116050500D03*
X75394500Y-110970500D03*
X123654500Y-113510500D03*
X75394500Y-115030500D03*
X123654500Y-110970500D03*
X75394500Y-117570500D03*
X123654500Y-105890500D03*
X75394500Y-120110500D03*
X123654500Y-103350500D03*
X75394500Y-122650500D03*
X123654500Y-100810500D03*
X75394500Y-125190500D03*
X123654500Y-98270500D03*
X75394500Y-127730500D03*
X123654500Y-95730500D03*
X75394500Y-130270500D03*
X123654500Y-93190500D03*
X75394500Y-132810500D03*
X75394500Y-93190500D03*
X75394500Y-95730500D03*
X70402500Y-131362500D03*
D10*
X62782500Y-131362500D03*
D15*
X69192500Y-149654500D03*
D16*
X64112500Y-149654500D03*
D17*
X68878500Y-137458500D03*
X66338500Y-137458500D03*
D18*
X63798500Y-137458500D03*
D19*
X70148500Y-141522500D03*
D20*
X62528500Y-141522500D03*
D21*
X141654500Y-157750500D03*
X57654500Y-157750500D03*
X141654500Y-63750500D03*
X57654500Y-63750500D03*
D16*
X77574500Y-149776500D03*
D15*
X82654500Y-149776500D03*
D16*
X90574500Y-149776500D03*
D15*
X95654500Y-149776500D03*
D16*
X103574500Y-149776500D03*
D15*
X108654500Y-149776500D03*
D16*
X116574500Y-149776500D03*
D15*
X121654500Y-149776500D03*
D22*
X57194500Y-73450500D03*
D23*
X57194500Y-70910500D03*
D22*
X57194500Y-78530500D03*
D23*
X57194500Y-81070500D03*
D24*
X132654500Y-70750500D03*
G36*
X133827462Y-63270716D02*
G01*
X133991099Y-63330276D01*
X134136591Y-63425967D01*
X134256092Y-63552631D01*
X134343162Y-63703440D01*
X134393106Y-63870264D01*
X134404500Y-64000500D01*
X134404500Y-65500500D01*
X134384284Y-65673462D01*
X134324724Y-65837099D01*
X134229033Y-65982591D01*
X134102369Y-66102092D01*
X133951560Y-66189162D01*
X133784736Y-66239106D01*
X133654500Y-66250500D01*
X131654500Y-66250500D01*
X131481538Y-66230284D01*
X131317901Y-66170724D01*
X131172409Y-66075033D01*
X131052908Y-65948369D01*
X130965838Y-65797560D01*
X130915894Y-65630736D01*
X130904500Y-65500500D01*
X130904500Y-64000500D01*
X130924716Y-63827538D01*
X130984276Y-63663901D01*
X131079967Y-63518409D01*
X131206631Y-63398908D01*
X131357440Y-63311838D01*
X131524264Y-63261894D01*
X131654500Y-63250500D01*
X133654500Y-63250500D01*
X133827462Y-63270716D01*
G37*
G36*
X129017599Y-66020957D02*
G01*
X129196903Y-66081372D01*
X129359027Y-66178919D01*
X129496392Y-66309037D01*
X129602573Y-66465643D01*
X129672606Y-66641413D01*
X129704500Y-66875500D01*
X129704500Y-68625500D01*
X129684043Y-68813599D01*
X129623628Y-68992903D01*
X129526081Y-69155027D01*
X129395963Y-69292392D01*
X129239357Y-69398573D01*
X129063587Y-69468606D01*
X128829500Y-69500500D01*
X127079500Y-69500500D01*
X126891401Y-69480043D01*
X126712097Y-69419628D01*
X126549973Y-69322081D01*
X126412608Y-69191963D01*
X126306427Y-69035357D01*
X126236394Y-68859587D01*
X126204500Y-68625500D01*
X126204500Y-66875500D01*
X126224957Y-66687401D01*
X126285372Y-66508097D01*
X126382919Y-66345973D01*
X126513037Y-66208608D01*
X126669643Y-66102427D01*
X126845413Y-66032394D01*
X127079500Y-66000500D01*
X128829500Y-66000500D01*
X129017599Y-66020957D01*
G37*
D12*
X138474500Y-78750500D03*
D13*
X133474500Y-78750500D03*
D12*
X126409500Y-78750500D03*
D13*
X121409500Y-78750500D03*
D25*
X64974500Y-65068500D03*
X69974500Y-65068500D03*
X74974500Y-65068500D03*
X82654500Y-65068500D03*
X87654500Y-65068500D03*
X92654500Y-65068500D03*
X100534500Y-65068500D03*
X105534500Y-65068500D03*
X110534500Y-65068500D03*
D10*
X72434500Y-82594500D03*
D11*
X72434500Y-74974500D03*
D10*
X94786500Y-131357500D03*
D11*
X102406500Y-131357500D03*
D10*
X110325500Y-131362500D03*
D11*
X117945500Y-131362500D03*
D10*
X86912500Y-125520500D03*
D11*
X79292500Y-125520500D03*
D10*
X70910500Y-127806500D03*
D11*
X70910500Y-120186500D03*
D18*
X95920500Y-137442500D03*
D17*
X98460500Y-137442500D03*
X101000500Y-137442500D03*
D18*
X110765500Y-137447500D03*
D17*
X113305500Y-137447500D03*
X115845500Y-137447500D03*
D26*
X67654500Y-87750500D03*
D27*
X70194500Y-87750500D03*
X72734500Y-87750500D03*
X75274500Y-87750500D03*
X77814500Y-87750500D03*
X80354500Y-87750500D03*
X82894500Y-87750500D03*
X85434500Y-87750500D03*
X87974500Y-87750500D03*
X90514500Y-87750500D03*
X93054500Y-87750500D03*
X95594500Y-87750500D03*
X98134500Y-87750500D03*
X100674500Y-87750500D03*
X103214500Y-87750500D03*
X105754500Y-87750500D03*
D28*
X62155400Y-87750500D03*
X62155400Y-118751200D03*
X137153980Y-118751200D03*
X137154500Y-87750500D03*
D20*
X105708500Y-141522500D03*
D19*
X98088500Y-141522500D03*
D20*
X109765500Y-141527500D03*
D19*
X117385500Y-141527500D03*
D29*
X93770500Y-125520500D03*
D30*
X91230500Y-125520500D03*
D29*
X63544500Y-125520500D03*
D30*
X66084500Y-125520500D03*
M02*
