G04 #@! TF.GenerationSoftware,KiCad,Pcbnew,5.99.0-unknown-c7daca1~100~ubuntu18.04.1*
G04 #@! TF.CreationDate,2020-03-29T20:06:04-07:00*
G04 #@! TF.ProjectId,ventilator,76656e74-696c-4617-946f-722e6b696361,rev?*
G04 #@! TF.SameCoordinates,Original*
G04 #@! TF.FileFunction,Legend,Bot*
G04 #@! TF.FilePolarity,Positive*
%FSLAX46Y46*%
G04 Gerber Fmt 4.6, Leading zero omitted, Abs format (unit mm)*
G04 Created by KiCad (PCBNEW 5.99.0-unknown-c7daca1~100~ubuntu18.04.1) date 2020-03-29 20:06:04*
%MOMM*%
%LPD*%
G01*
G04 APERTURE LIST*
%ADD10C,0.150000*%
%ADD11C,0.120000*%
G04 APERTURE END LIST*
D10*
X71918309Y-67552880D02*
X71918309Y-66552880D01*
X71537357Y-66552880D01*
X71442119Y-66600500D01*
X71394500Y-66648119D01*
X71346880Y-66743357D01*
X71346880Y-66886214D01*
X71394500Y-66981452D01*
X71442119Y-67029071D01*
X71537357Y-67076690D01*
X71918309Y-67076690D01*
X70727833Y-66552880D02*
X70537357Y-66552880D01*
X70442119Y-66600500D01*
X70346880Y-66695738D01*
X70299261Y-66886214D01*
X70299261Y-67219547D01*
X70346880Y-67410023D01*
X70442119Y-67505261D01*
X70537357Y-67552880D01*
X70727833Y-67552880D01*
X70823071Y-67505261D01*
X70918309Y-67410023D01*
X70965928Y-67219547D01*
X70965928Y-66886214D01*
X70918309Y-66695738D01*
X70823071Y-66600500D01*
X70727833Y-66552880D01*
X70013547Y-66552880D02*
X69442119Y-66552880D01*
X69727833Y-67552880D02*
X69727833Y-66552880D01*
X68442119Y-66552880D02*
X67823071Y-66552880D01*
X68156404Y-66933833D01*
X68013547Y-66933833D01*
X67918309Y-66981452D01*
X67870690Y-67029071D01*
X67823071Y-67124309D01*
X67823071Y-67362404D01*
X67870690Y-67457642D01*
X67918309Y-67505261D01*
X68013547Y-67552880D01*
X68299261Y-67552880D01*
X68394500Y-67505261D01*
X68442119Y-67457642D01*
X89698309Y-67552880D02*
X89698309Y-66552880D01*
X89317357Y-66552880D01*
X89222119Y-66600500D01*
X89174500Y-66648119D01*
X89126880Y-66743357D01*
X89126880Y-66886214D01*
X89174500Y-66981452D01*
X89222119Y-67029071D01*
X89317357Y-67076690D01*
X89698309Y-67076690D01*
X88507833Y-66552880D02*
X88317357Y-66552880D01*
X88222119Y-66600500D01*
X88126880Y-66695738D01*
X88079261Y-66886214D01*
X88079261Y-67219547D01*
X88126880Y-67410023D01*
X88222119Y-67505261D01*
X88317357Y-67552880D01*
X88507833Y-67552880D01*
X88603071Y-67505261D01*
X88698309Y-67410023D01*
X88745928Y-67219547D01*
X88745928Y-66886214D01*
X88698309Y-66695738D01*
X88603071Y-66600500D01*
X88507833Y-66552880D01*
X87793547Y-66552880D02*
X87222119Y-66552880D01*
X87507833Y-67552880D02*
X87507833Y-66552880D01*
X86174500Y-66648119D02*
X86126880Y-66600500D01*
X86031642Y-66552880D01*
X85793547Y-66552880D01*
X85698309Y-66600500D01*
X85650690Y-66648119D01*
X85603071Y-66743357D01*
X85603071Y-66838595D01*
X85650690Y-66981452D01*
X86222119Y-67552880D01*
X85603071Y-67552880D01*
X107478309Y-67552880D02*
X107478309Y-66552880D01*
X107097357Y-66552880D01*
X107002119Y-66600500D01*
X106954500Y-66648119D01*
X106906880Y-66743357D01*
X106906880Y-66886214D01*
X106954500Y-66981452D01*
X107002119Y-67029071D01*
X107097357Y-67076690D01*
X107478309Y-67076690D01*
X106287833Y-66552880D02*
X106097357Y-66552880D01*
X106002119Y-66600500D01*
X105906880Y-66695738D01*
X105859261Y-66886214D01*
X105859261Y-67219547D01*
X105906880Y-67410023D01*
X106002119Y-67505261D01*
X106097357Y-67552880D01*
X106287833Y-67552880D01*
X106383071Y-67505261D01*
X106478309Y-67410023D01*
X106525928Y-67219547D01*
X106525928Y-66886214D01*
X106478309Y-66695738D01*
X106383071Y-66600500D01*
X106287833Y-66552880D01*
X105573547Y-66552880D02*
X105002119Y-66552880D01*
X105287833Y-67552880D02*
X105287833Y-66552880D01*
X103383071Y-67552880D02*
X103954500Y-67552880D01*
X103668785Y-67552880D02*
X103668785Y-66552880D01*
X103764023Y-66695738D01*
X103859261Y-66790976D01*
X103954500Y-66838595D01*
D11*
X85804500Y-90520500D02*
X88344500Y-87980500D01*
X74374500Y-90520500D02*
X85804500Y-90520500D01*
X72724500Y-92170500D02*
X74374500Y-90520500D01*
X72724500Y-156820500D02*
X72724500Y-92170500D01*
X82254500Y-156820500D02*
X72724500Y-156820500D01*
X82254500Y-163170500D02*
X82254500Y-156820500D01*
X93934500Y-163170500D02*
X82254500Y-163170500D01*
X93934500Y-156820500D02*
X93934500Y-163170500D01*
X114004500Y-156820500D02*
X93934500Y-156820500D01*
X114004500Y-158720500D02*
X114004500Y-156820500D01*
X123144500Y-158720500D02*
X114004500Y-158720500D01*
X123144500Y-156820500D02*
X123144500Y-158720500D01*
X126324500Y-156820500D02*
X123144500Y-156820500D01*
X126324500Y-90520500D02*
X126324500Y-156820500D01*
X123654500Y-90520500D02*
X126324500Y-90520500D01*
X121114500Y-87980500D02*
X123654500Y-90520500D01*
X88344500Y-87980500D02*
X121114500Y-87980500D01*
M02*
