G04 #@! TF.GenerationSoftware,KiCad,Pcbnew,5.99.0-unknown-c7daca1~100~ubuntu18.04.1*
G04 #@! TF.CreationDate,2020-03-29T20:06:04-07:00*
G04 #@! TF.ProjectId,ventilator,76656e74-696c-4617-946f-722e6b696361,rev?*
G04 #@! TF.SameCoordinates,Original*
G04 #@! TF.FileFunction,Soldermask,Bot*
G04 #@! TF.FilePolarity,Negative*
%FSLAX46Y46*%
G04 Gerber Fmt 4.6, Leading zero omitted, Abs format (unit mm)*
G04 Created by KiCad (PCBNEW 5.99.0-unknown-c7daca1~100~ubuntu18.04.1) date 2020-03-29 20:06:04*
%MOMM*%
%LPD*%
G01*
G04 APERTURE LIST*
%ADD10O,1.800000X1.800000*%
%ADD11O,1.600000X1.600000*%
%ADD12R,1.800000X1.800000*%
%ADD13C,1.600000*%
%ADD14R,2.000000X2.000000*%
%ADD15C,2.000000*%
%ADD16C,2.600000*%
%ADD17R,2.600000X2.600000*%
%ADD18O,1.905000X2.000000*%
%ADD19R,1.905000X2.000000*%
%ADD20O,2.200000X2.200000*%
%ADD21R,2.200000X2.200000*%
%ADD22C,2.200000*%
%ADD23R,1.700000X1.700000*%
%ADD24O,1.700000X1.700000*%
%ADD25R,3.500000X3.500000*%
%ADD26C,2.340000*%
%ADD27R,1.800000X2.600000*%
%ADD28O,1.800000X2.600000*%
%ADD29C,3.000000*%
%ADD30C,1.800000*%
G04 APERTURE END LIST*
D10*
X75394500Y-95730500D03*
X75394500Y-93190500D03*
X75394500Y-132810500D03*
X123654500Y-93190500D03*
X75394500Y-130270500D03*
X123654500Y-95730500D03*
X75394500Y-127730500D03*
X123654500Y-98270500D03*
X75394500Y-125190500D03*
X123654500Y-100810500D03*
X75394500Y-122650500D03*
X123654500Y-103350500D03*
X75394500Y-120110500D03*
X123654500Y-105890500D03*
X75394500Y-117570500D03*
X123654500Y-110970500D03*
X75394500Y-115030500D03*
X123654500Y-113510500D03*
X75394500Y-110970500D03*
X123654500Y-116050500D03*
X75394500Y-108430500D03*
D11*
X123654500Y-118590500D03*
D10*
X75394500Y-105890500D03*
X123654500Y-121130500D03*
X75394500Y-103350500D03*
D11*
X123654500Y-123670500D03*
D10*
X75394500Y-100810500D03*
X123654500Y-126210500D03*
X75394500Y-98270500D03*
D12*
X123654500Y-128750500D03*
D10*
X75394500Y-135350500D03*
X75394500Y-137890500D03*
D13*
X66846500Y-82594500D03*
D11*
X66846500Y-74974500D03*
X76244500Y-74974500D03*
D13*
X76244500Y-82594500D03*
D14*
X84626500Y-132632500D03*
D15*
X84626500Y-137632500D03*
D11*
X70402500Y-131362500D03*
D13*
X62782500Y-131362500D03*
D16*
X69192500Y-149654500D03*
D17*
X64112500Y-149654500D03*
D18*
X68878500Y-137458500D03*
X66338500Y-137458500D03*
D19*
X63798500Y-137458500D03*
D20*
X70148500Y-141522500D03*
D21*
X62528500Y-141522500D03*
D22*
X141654500Y-157750500D03*
X57654500Y-157750500D03*
X141654500Y-63750500D03*
X57654500Y-63750500D03*
D17*
X77574500Y-149776500D03*
D16*
X82654500Y-149776500D03*
D17*
X90574500Y-149776500D03*
D16*
X95654500Y-149776500D03*
D17*
X103574500Y-149776500D03*
D16*
X108654500Y-149776500D03*
D17*
X116574500Y-149776500D03*
D16*
X121654500Y-149776500D03*
D23*
X57194500Y-73450500D03*
D24*
X57194500Y-70910500D03*
D23*
X57194500Y-78530500D03*
D24*
X57194500Y-81070500D03*
D25*
X132654500Y-70750500D03*
G36*
G01*
X131654500Y-63250500D02*
X133654500Y-63250500D01*
G75*
G02*
X134404500Y-64000500I0J-750000D01*
G01*
X134404500Y-65500500D01*
G75*
G02*
X133654500Y-66250500I-750000J0D01*
G01*
X131654500Y-66250500D01*
G75*
G02*
X130904500Y-65500500I0J750000D01*
G01*
X130904500Y-64000500D01*
G75*
G02*
X131654500Y-63250500I750000J0D01*
G01*
G37*
G36*
G01*
X127079500Y-66000500D02*
X128829500Y-66000500D01*
G75*
G02*
X129704500Y-66875500I0J-875000D01*
G01*
X129704500Y-68625500D01*
G75*
G02*
X128829500Y-69500500I-875000J0D01*
G01*
X127079500Y-69500500D01*
G75*
G02*
X126204500Y-68625500I0J875000D01*
G01*
X126204500Y-66875500D01*
G75*
G02*
X127079500Y-66000500I875000J0D01*
G01*
G37*
D14*
X138474500Y-78750500D03*
D15*
X133474500Y-78750500D03*
D14*
X126409500Y-78750500D03*
D15*
X121409500Y-78750500D03*
D26*
X64974500Y-65068500D03*
X69974500Y-65068500D03*
X74974500Y-65068500D03*
X82654500Y-65068500D03*
X87654500Y-65068500D03*
X92654500Y-65068500D03*
X100534500Y-65068500D03*
X105534500Y-65068500D03*
X110534500Y-65068500D03*
D13*
X72434500Y-82594500D03*
D11*
X72434500Y-74974500D03*
D13*
X94786500Y-131357500D03*
D11*
X102406500Y-131357500D03*
D13*
X110325500Y-131362500D03*
D11*
X117945500Y-131362500D03*
D13*
X86912500Y-125520500D03*
D11*
X79292500Y-125520500D03*
D13*
X70910500Y-127806500D03*
D11*
X70910500Y-120186500D03*
D19*
X95920500Y-137442500D03*
D18*
X98460500Y-137442500D03*
X101000500Y-137442500D03*
D19*
X110765500Y-137447500D03*
D18*
X113305500Y-137447500D03*
X115845500Y-137447500D03*
D27*
X67654500Y-87750500D03*
D28*
X70194500Y-87750500D03*
X72734500Y-87750500D03*
X75274500Y-87750500D03*
X77814500Y-87750500D03*
X80354500Y-87750500D03*
X82894500Y-87750500D03*
X85434500Y-87750500D03*
X87974500Y-87750500D03*
X90514500Y-87750500D03*
X93054500Y-87750500D03*
X95594500Y-87750500D03*
X98134500Y-87750500D03*
X100674500Y-87750500D03*
X103214500Y-87750500D03*
X105754500Y-87750500D03*
D29*
X62155400Y-87750500D03*
X62155400Y-118751200D03*
X137153980Y-118751200D03*
X137154500Y-87750500D03*
D21*
X105708500Y-141522500D03*
D20*
X98088500Y-141522500D03*
D21*
X109765500Y-141527500D03*
D20*
X117385500Y-141527500D03*
D12*
X93770500Y-125520500D03*
D30*
X91230500Y-125520500D03*
D12*
X63544500Y-125520500D03*
D30*
X66084500Y-125520500D03*
M02*
