M48
; DRILL file {KiCad (5.99.0-1109-gba7c8ed85)} date Sunday, March 29, 2020 at 07:20:03 PM
; FORMAT={-:-/ absolute / inch / decimal}
; #@! TF.CreationDate,2020-03-29T19:20:03-07:00
; #@! TF.GenerationSoftware,Kicad,Pcbnew,(5.99.0-1109-gba7c8ed85)
; #@! TF.FileFunction,Plated,1,2,PTH
FMAT,2
INCH
T1C0.0315
T2C0.0354
T3C0.0394
T4C0.0433
T5C0.0472
T6C0.0512
T7C0.0984
%
G90
G05
T1
X2.7918Y-4.7318
X2.7918Y-5.0318
X2.4718Y-5.1718
X2.7718Y-5.1718
X2.9683Y-3.6689
X2.9683Y-3.7689
X2.9683Y-3.8689
X2.9683Y-3.9689
X2.9683Y-4.0689
X2.9683Y-4.1689
X2.9683Y-4.2689
X2.9683Y-4.3689
X2.9683Y-4.5288
X2.9683Y-4.6288
X2.9683Y-4.7288
X2.9683Y-4.8288
X2.9683Y-4.9288
X2.9683Y-5.0288
X2.9683Y-5.1288
X2.9683Y-5.2288
X2.9683Y-5.3288
X2.9683Y-5.4288
X4.8683Y-3.6689
X4.8683Y-3.7689
X4.8683Y-3.8689
X4.8683Y-3.9689
X4.8683Y-4.0689
X4.8683Y-4.1689
X4.8683Y-4.3689
X4.8683Y-4.4689
X4.8683Y-4.5689
X4.8683Y-4.6689
X4.8683Y-4.7689
X4.8683Y-4.8689
X4.8683Y-4.9689
X4.8683Y-5.0689
X2.8518Y-2.9518
X2.8518Y-3.2518
X3.7318Y-5.1716
X4.0318Y-5.1716
X4.3435Y-5.1718
X4.6435Y-5.1718
X3.1218Y-4.9418
X3.4218Y-4.9418
X2.6318Y-2.9518
X2.6318Y-3.2518
X3.0018Y-2.9518
X3.0018Y-3.2518
T2
X3.5918Y-4.9418
X3.6918Y-4.9418
X2.5018Y-4.9418
X2.6018Y-4.9418
T3
X2.2518Y-3.0918
X2.2518Y-3.1918
X2.2518Y-2.7918
X2.2518Y-2.8918
X3.3318Y-5.2218
X3.3318Y-5.4186
X5.2549Y-3.1004
X5.4518Y-3.1004
X4.7799Y-3.1004
X4.9768Y-3.1004
T4
X4.3608Y-5.4113
X4.4608Y-5.4113
X4.5608Y-5.4113
X4.3215Y-5.5719
X4.6215Y-5.5719
X2.5118Y-5.4118
X2.6118Y-5.4118
X2.7118Y-5.4118
X3.8618Y-5.5718
X4.1618Y-5.5718
X3.7764Y-5.4111
X3.8764Y-5.4111
X3.9764Y-5.4111
X2.4618Y-5.5718
X2.7618Y-5.5718
T5
X2.6636Y-3.4547
X2.7636Y-3.4547
X2.8636Y-3.4547
X2.9636Y-3.4547
X3.0636Y-3.4547
X3.1636Y-3.4547
X3.2636Y-3.4547
X3.3636Y-3.4547
X3.4636Y-3.4547
X3.5636Y-3.4547
X3.6636Y-3.4547
X3.7636Y-3.4547
X3.8636Y-3.4547
X3.9636Y-3.4547
X4.0636Y-3.4547
X4.1636Y-3.4547
T6
X2.5241Y-5.8919
X2.7241Y-5.8919
X3.5659Y-5.8967
X3.7659Y-5.8967
X4.0777Y-5.8967
X4.2777Y-5.8967
X4.5895Y-5.8967
X4.7895Y-5.8967
X2.5581Y-2.5618
X2.7549Y-2.5618
X2.9518Y-2.5618
X3.2541Y-2.5618
X3.451Y-2.5618
X3.6478Y-2.5618
X3.0541Y-5.8967
X3.2541Y-5.8967
X3.9581Y-2.5618
X4.1549Y-2.5618
X4.3518Y-2.5618
T7
X2.4471Y-3.4547
X2.4471Y-4.6752
X5.3998Y-4.6752
X5.3998Y-3.4547
T3
G00X5.0376Y-2.628
M15
G01X5.0376Y-2.7067
M16
G05
G00X5.262Y-2.5492
M15
G01X5.1832Y-2.5492
M16
G05
G00X5.262Y-2.7855
M15
G01X5.1832Y-2.7855
M16
G05
T0
M30
