G04 #@! TF.GenerationSoftware,KiCad,Pcbnew,(5.99.0-1109-gba7c8ed85)*
G04 #@! TF.CreationDate,2020-03-28T01:29:19-07:00*
G04 #@! TF.ProjectId,ventilator,76656e74-696c-4617-946f-722e6b696361,rev?*
G04 #@! TF.SameCoordinates,Original*
G04 #@! TF.FileFunction,Soldermask,Bot*
G04 #@! TF.FilePolarity,Negative*
%FSLAX46Y46*%
G04 Gerber Fmt 4.6, Leading zero omitted, Abs format (unit mm)*
G04 Created by KiCad (PCBNEW (5.99.0-1109-gba7c8ed85)) date 2020-03-28 01:29:19*
%MOMM*%
%LPD*%
G01*
G04 APERTURE LIST*
%ADD10R,1.700000X1.700000*%
%ADD11C,2.200000*%
%ADD12C,2.600000*%
%ADD13R,2.600000X2.600000*%
%ADD14C,1.600000*%
%ADD15R,1.600000X1.600000*%
%ADD16O,1.700000X1.700000*%
%ADD17R,3.500000X3.500000*%
%ADD18O,1.600000X1.600000*%
%ADD19O,1.905000X2.000000*%
%ADD20R,1.905000X2.000000*%
%ADD21O,2.200000X2.200000*%
%ADD22R,2.200000X2.200000*%
%ADD23C,1.800000*%
%ADD24R,1.800000X1.800000*%
%ADD25C,2.000000*%
%ADD26R,2.000000X2.000000*%
%ADD27C,2.340000*%
%ADD28C,3.000000*%
%ADD29O,1.800000X2.600000*%
%ADD30R,1.800000X2.600000*%
G04 APERTURE END LIST*
D10*
X2540000Y-15240000D03*
D11*
X87000000Y-97000000D03*
X3000000Y-97000000D03*
X87000000Y-3000000D03*
X3000000Y-3000000D03*
D12*
X15080000Y-95000000D03*
D13*
X10000000Y-95000000D03*
D12*
X28000000Y-95000000D03*
D13*
X22920000Y-95000000D03*
D12*
X41000000Y-95000000D03*
D13*
X35920000Y-95000000D03*
D12*
X54000000Y-95000000D03*
D13*
X48920000Y-95000000D03*
D12*
X67000000Y-95000000D03*
D13*
X61920000Y-95000000D03*
D12*
X80200000Y-95000000D03*
D13*
X75120000Y-95000000D03*
D14*
X8500000Y-14000000D03*
D15*
X11000000Y-14000000D03*
D14*
X17500000Y-14000000D03*
D15*
X20000000Y-14000000D03*
D14*
X26500000Y-14000000D03*
D15*
X29000000Y-14000000D03*
D16*
X2540000Y-10160000D03*
D10*
X2540000Y-12700000D03*
D16*
X2540000Y-20320000D03*
D10*
X2540000Y-17780000D03*
G36*
X74363099Y-5270457D02*
G01*
X74542403Y-5330872D01*
X74704527Y-5428419D01*
X74841892Y-5558537D01*
X74948073Y-5715143D01*
X75018106Y-5890913D01*
X75050000Y-6125000D01*
X75050000Y-7875000D01*
X75029543Y-8063099D01*
X74969128Y-8242403D01*
X74871581Y-8404527D01*
X74741463Y-8541892D01*
X74584857Y-8648073D01*
X74409087Y-8718106D01*
X74175000Y-8750000D01*
X72425000Y-8750000D01*
X72236901Y-8729543D01*
X72057597Y-8669128D01*
X71895473Y-8571581D01*
X71758108Y-8441463D01*
X71651927Y-8284857D01*
X71581894Y-8109087D01*
X71550000Y-7875000D01*
X71550000Y-6125000D01*
X71570457Y-5936901D01*
X71630872Y-5757597D01*
X71728419Y-5595473D01*
X71858537Y-5458108D01*
X72015143Y-5351927D01*
X72190913Y-5281894D01*
X72425000Y-5250000D01*
X74175000Y-5250000D01*
X74363099Y-5270457D01*
G37*
G36*
X79172962Y-2520216D02*
G01*
X79336599Y-2579776D01*
X79482091Y-2675467D01*
X79601592Y-2802131D01*
X79688662Y-2952940D01*
X79738606Y-3119764D01*
X79750000Y-3250000D01*
X79750000Y-4750000D01*
X79729784Y-4922962D01*
X79670224Y-5086599D01*
X79574533Y-5232091D01*
X79447869Y-5351592D01*
X79297060Y-5438662D01*
X79130236Y-5488606D01*
X79000000Y-5500000D01*
X77000000Y-5500000D01*
X76827038Y-5479784D01*
X76663401Y-5420224D01*
X76517909Y-5324533D01*
X76398408Y-5197869D01*
X76311338Y-5047060D01*
X76261394Y-4880236D01*
X76250000Y-4750000D01*
X76250000Y-3250000D01*
X76270216Y-3077038D01*
X76329776Y-2913401D01*
X76425467Y-2767909D01*
X76552131Y-2648408D01*
X76702940Y-2561338D01*
X76869764Y-2511394D01*
X77000000Y-2500000D01*
X79000000Y-2500000D01*
X79172962Y-2520216D01*
G37*
D17*
X78000000Y-10000000D03*
D18*
X16245000Y-77000000D03*
D14*
X8625000Y-77000000D03*
D18*
X8625000Y-73025000D03*
D14*
X16245000Y-73025000D03*
D19*
X15080000Y-83000000D03*
X12540000Y-83000000D03*
D20*
X10000000Y-83000000D03*
D21*
X16245000Y-86995000D03*
D22*
X8625000Y-86995000D03*
D23*
X14605000Y-67310000D03*
D24*
X12065000Y-67310000D03*
D25*
X78820000Y-18000000D03*
D26*
X83820000Y-18000000D03*
D25*
X66755000Y-18000000D03*
D26*
X71755000Y-18000000D03*
D27*
X20320000Y-3000000D03*
X15320000Y-3000000D03*
X10320000Y-3000000D03*
X38000000Y-3000000D03*
X33000000Y-3000000D03*
X28000000Y-3000000D03*
X55880000Y-3000000D03*
X50880000Y-3000000D03*
X45880000Y-3000000D03*
D18*
X61380000Y-10000000D03*
D14*
X69000000Y-10000000D03*
D18*
X42620000Y-19500000D03*
D14*
X35000000Y-19500000D03*
D18*
X31750000Y-76835000D03*
D14*
X24130000Y-76835000D03*
D18*
X24130000Y-73025000D03*
D14*
X31750000Y-73025000D03*
D18*
X45270000Y-76835000D03*
D14*
X37650000Y-76835000D03*
D18*
X56560000Y-76835000D03*
D14*
X48940000Y-76835000D03*
D18*
X37650000Y-73025000D03*
D14*
X45270000Y-73025000D03*
D18*
X48940000Y-73025000D03*
D14*
X56560000Y-73025000D03*
D18*
X68850000Y-77000000D03*
D14*
X61230000Y-77000000D03*
D18*
X81620000Y-77000000D03*
D14*
X74000000Y-77000000D03*
D18*
X61190000Y-73025000D03*
D14*
X68810000Y-73025000D03*
D18*
X73850000Y-73000000D03*
D14*
X81470000Y-73000000D03*
D19*
X41080000Y-15875000D03*
X38540000Y-15875000D03*
D20*
X36000000Y-15875000D03*
D19*
X28575000Y-82920000D03*
X26035000Y-82920000D03*
D20*
X23495000Y-82920000D03*
D19*
X41520000Y-82920000D03*
X38980000Y-82920000D03*
D20*
X36440000Y-82920000D03*
D19*
X54460000Y-82920000D03*
X51920000Y-82920000D03*
D20*
X49380000Y-82920000D03*
D19*
X67310000Y-82920000D03*
X64770000Y-82920000D03*
D20*
X62230000Y-82920000D03*
D19*
X80200000Y-82920000D03*
X77660000Y-82920000D03*
D20*
X75120000Y-82920000D03*
D25*
X50000000Y-17000000D03*
D26*
X55000000Y-17000000D03*
D28*
X82500000Y-27000000D03*
X82499480Y-58000700D03*
X7500900Y-58000700D03*
X7500900Y-27000000D03*
D29*
X51100000Y-27000000D03*
X48560000Y-27000000D03*
X46020000Y-27000000D03*
X43480000Y-27000000D03*
X40940000Y-27000000D03*
X38400000Y-27000000D03*
X35860000Y-27000000D03*
X33320000Y-27000000D03*
X30780000Y-27000000D03*
X28240000Y-27000000D03*
X25700000Y-27000000D03*
X23160000Y-27000000D03*
X20620000Y-27000000D03*
X18080000Y-27000000D03*
X15540000Y-27000000D03*
D30*
X13000000Y-27000000D03*
D21*
X29845000Y-87000000D03*
D22*
X22225000Y-87000000D03*
D23*
X30480000Y-67310000D03*
D24*
X27940000Y-67310000D03*
D21*
X43140000Y-87000000D03*
D22*
X35520000Y-87000000D03*
D21*
X56000000Y-87000000D03*
D22*
X48380000Y-87000000D03*
D23*
X41910000Y-67310000D03*
D24*
X39370000Y-67310000D03*
D23*
X53340000Y-67310000D03*
D24*
X50800000Y-67310000D03*
D21*
X68850000Y-87000000D03*
D22*
X61230000Y-87000000D03*
D21*
X81470000Y-87000000D03*
D22*
X73850000Y-87000000D03*
D23*
X65405000Y-67310000D03*
D24*
X62865000Y-67310000D03*
D23*
X80645000Y-67310000D03*
D24*
X78105000Y-67310000D03*
D18*
X20740000Y-34980000D03*
X20740000Y-32440000D03*
X20740000Y-72060000D03*
X69000000Y-32440000D03*
X20740000Y-69520000D03*
X69000000Y-34980000D03*
X20740000Y-66980000D03*
X69000000Y-37520000D03*
X20740000Y-64440000D03*
X69000000Y-40060000D03*
X20740000Y-61900000D03*
X69000000Y-42600000D03*
X20740000Y-59360000D03*
X69000000Y-45140000D03*
X20740000Y-56820000D03*
X69000000Y-50220000D03*
X20740000Y-54280000D03*
X69000000Y-52760000D03*
X20740000Y-50220000D03*
X69000000Y-55300000D03*
X20740000Y-47680000D03*
X69000000Y-57840000D03*
X20740000Y-45140000D03*
X69000000Y-60380000D03*
X20740000Y-42600000D03*
X69000000Y-62920000D03*
X20740000Y-40060000D03*
X69000000Y-65460000D03*
X20740000Y-37520000D03*
D15*
X69000000Y-68000000D03*
D18*
X20740000Y-74600000D03*
X20740000Y-77140000D03*
M02*
