G04 #@! TF.GenerationSoftware,KiCad,Pcbnew,5.99.0-unknown-c7daca1~100~ubuntu18.04.1*
G04 #@! TF.CreationDate,2020-03-27T21:17:46-07:00*
G04 #@! TF.ProjectId,ventilator,76656e74-696c-4617-946f-722e6b696361,rev?*
G04 #@! TF.SameCoordinates,Original*
G04 #@! TF.FileFunction,Legend,Top*
G04 #@! TF.FilePolarity,Positive*
%FSLAX46Y46*%
G04 Gerber Fmt 4.6, Leading zero omitted, Abs format (unit mm)*
G04 Created by KiCad (PCBNEW 5.99.0-unknown-c7daca1~100~ubuntu18.04.1) date 2020-03-27 21:17:46*
%MOMM*%
%LPD*%
G01*
G04 APERTURE LIST*
%ADD10C,0.150000*%
%ADD11C,0.120000*%
G04 APERTURE END LIST*
D10*
X12009523Y-77287380D02*
X11438095Y-77287380D01*
X11723809Y-77287380D02*
X11723809Y-76287380D01*
X11628571Y-76430238D01*
X11533333Y-76525476D01*
X11438095Y-76573095D01*
X12628571Y-76287380D02*
X12723809Y-76287380D01*
X12819047Y-76335000D01*
X12866666Y-76382619D01*
X12914285Y-76477857D01*
X12961904Y-76668333D01*
X12961904Y-76906428D01*
X12914285Y-77096904D01*
X12866666Y-77192142D01*
X12819047Y-77239761D01*
X12723809Y-77287380D01*
X12628571Y-77287380D01*
X12533333Y-77239761D01*
X12485714Y-77192142D01*
X12438095Y-77096904D01*
X12390476Y-76906428D01*
X12390476Y-76668333D01*
X12438095Y-76477857D01*
X12485714Y-76382619D01*
X12533333Y-76335000D01*
X12628571Y-76287380D01*
X13390476Y-77287380D02*
X13390476Y-76287380D01*
X13961904Y-77287380D02*
X13533333Y-76715952D01*
X13961904Y-76287380D02*
X13390476Y-76858809D01*
X27249523Y-77287380D02*
X26678095Y-77287380D01*
X26963809Y-77287380D02*
X26963809Y-76287380D01*
X26868571Y-76430238D01*
X26773333Y-76525476D01*
X26678095Y-76573095D01*
X27868571Y-76287380D02*
X27963809Y-76287380D01*
X28059047Y-76335000D01*
X28106666Y-76382619D01*
X28154285Y-76477857D01*
X28201904Y-76668333D01*
X28201904Y-76906428D01*
X28154285Y-77096904D01*
X28106666Y-77192142D01*
X28059047Y-77239761D01*
X27963809Y-77287380D01*
X27868571Y-77287380D01*
X27773333Y-77239761D01*
X27725714Y-77192142D01*
X27678095Y-77096904D01*
X27630476Y-76906428D01*
X27630476Y-76668333D01*
X27678095Y-76477857D01*
X27725714Y-76382619D01*
X27773333Y-76335000D01*
X27868571Y-76287380D01*
X28630476Y-77287380D02*
X28630476Y-76287380D01*
X29201904Y-77287380D02*
X28773333Y-76715952D01*
X29201904Y-76287380D02*
X28630476Y-76858809D01*
X40584523Y-77287380D02*
X40013095Y-77287380D01*
X40298809Y-77287380D02*
X40298809Y-76287380D01*
X40203571Y-76430238D01*
X40108333Y-76525476D01*
X40013095Y-76573095D01*
X41203571Y-76287380D02*
X41298809Y-76287380D01*
X41394047Y-76335000D01*
X41441666Y-76382619D01*
X41489285Y-76477857D01*
X41536904Y-76668333D01*
X41536904Y-76906428D01*
X41489285Y-77096904D01*
X41441666Y-77192142D01*
X41394047Y-77239761D01*
X41298809Y-77287380D01*
X41203571Y-77287380D01*
X41108333Y-77239761D01*
X41060714Y-77192142D01*
X41013095Y-77096904D01*
X40965476Y-76906428D01*
X40965476Y-76668333D01*
X41013095Y-76477857D01*
X41060714Y-76382619D01*
X41108333Y-76335000D01*
X41203571Y-76287380D01*
X41965476Y-77287380D02*
X41965476Y-76287380D01*
X42536904Y-77287380D02*
X42108333Y-76715952D01*
X42536904Y-76287380D02*
X41965476Y-76858809D01*
X52014523Y-77287380D02*
X51443095Y-77287380D01*
X51728809Y-77287380D02*
X51728809Y-76287380D01*
X51633571Y-76430238D01*
X51538333Y-76525476D01*
X51443095Y-76573095D01*
X52633571Y-76287380D02*
X52728809Y-76287380D01*
X52824047Y-76335000D01*
X52871666Y-76382619D01*
X52919285Y-76477857D01*
X52966904Y-76668333D01*
X52966904Y-76906428D01*
X52919285Y-77096904D01*
X52871666Y-77192142D01*
X52824047Y-77239761D01*
X52728809Y-77287380D01*
X52633571Y-77287380D01*
X52538333Y-77239761D01*
X52490714Y-77192142D01*
X52443095Y-77096904D01*
X52395476Y-76906428D01*
X52395476Y-76668333D01*
X52443095Y-76477857D01*
X52490714Y-76382619D01*
X52538333Y-76335000D01*
X52633571Y-76287380D01*
X53395476Y-77287380D02*
X53395476Y-76287380D01*
X53966904Y-77287380D02*
X53538333Y-76715952D01*
X53966904Y-76287380D02*
X53395476Y-76858809D01*
X64079523Y-77287380D02*
X63508095Y-77287380D01*
X63793809Y-77287380D02*
X63793809Y-76287380D01*
X63698571Y-76430238D01*
X63603333Y-76525476D01*
X63508095Y-76573095D01*
X64698571Y-76287380D02*
X64793809Y-76287380D01*
X64889047Y-76335000D01*
X64936666Y-76382619D01*
X64984285Y-76477857D01*
X65031904Y-76668333D01*
X65031904Y-76906428D01*
X64984285Y-77096904D01*
X64936666Y-77192142D01*
X64889047Y-77239761D01*
X64793809Y-77287380D01*
X64698571Y-77287380D01*
X64603333Y-77239761D01*
X64555714Y-77192142D01*
X64508095Y-77096904D01*
X64460476Y-76906428D01*
X64460476Y-76668333D01*
X64508095Y-76477857D01*
X64555714Y-76382619D01*
X64603333Y-76335000D01*
X64698571Y-76287380D01*
X65460476Y-77287380D02*
X65460476Y-76287380D01*
X66031904Y-77287380D02*
X65603333Y-76715952D01*
X66031904Y-76287380D02*
X65460476Y-76858809D01*
X76779523Y-77287380D02*
X76208095Y-77287380D01*
X76493809Y-77287380D02*
X76493809Y-76287380D01*
X76398571Y-76430238D01*
X76303333Y-76525476D01*
X76208095Y-76573095D01*
X77398571Y-76287380D02*
X77493809Y-76287380D01*
X77589047Y-76335000D01*
X77636666Y-76382619D01*
X77684285Y-76477857D01*
X77731904Y-76668333D01*
X77731904Y-76906428D01*
X77684285Y-77096904D01*
X77636666Y-77192142D01*
X77589047Y-77239761D01*
X77493809Y-77287380D01*
X77398571Y-77287380D01*
X77303333Y-77239761D01*
X77255714Y-77192142D01*
X77208095Y-77096904D01*
X77160476Y-76906428D01*
X77160476Y-76668333D01*
X77208095Y-76477857D01*
X77255714Y-76382619D01*
X77303333Y-76335000D01*
X77398571Y-76287380D01*
X78160476Y-77287380D02*
X78160476Y-76287380D01*
X78731904Y-77287380D02*
X78303333Y-76715952D01*
X78731904Y-76287380D02*
X78160476Y-76858809D01*
X77255714Y-73477380D02*
X76684285Y-73477380D01*
X76970000Y-73477380D02*
X76970000Y-72477380D01*
X76874761Y-72620238D01*
X76779523Y-72715476D01*
X76684285Y-72763095D01*
X77684285Y-73477380D02*
X77684285Y-72477380D01*
X78255714Y-73477380D02*
X77827142Y-72905952D01*
X78255714Y-72477380D02*
X77684285Y-73048809D01*
X64555714Y-73477380D02*
X63984285Y-73477380D01*
X64270000Y-73477380D02*
X64270000Y-72477380D01*
X64174761Y-72620238D01*
X64079523Y-72715476D01*
X63984285Y-72763095D01*
X64984285Y-73477380D02*
X64984285Y-72477380D01*
X65555714Y-73477380D02*
X65127142Y-72905952D01*
X65555714Y-72477380D02*
X64984285Y-73048809D01*
X52490714Y-73477380D02*
X51919285Y-73477380D01*
X52205000Y-73477380D02*
X52205000Y-72477380D01*
X52109761Y-72620238D01*
X52014523Y-72715476D01*
X51919285Y-72763095D01*
X52919285Y-73477380D02*
X52919285Y-72477380D01*
X53490714Y-73477380D02*
X53062142Y-72905952D01*
X53490714Y-72477380D02*
X52919285Y-73048809D01*
X41060714Y-73477380D02*
X40489285Y-73477380D01*
X40775000Y-73477380D02*
X40775000Y-72477380D01*
X40679761Y-72620238D01*
X40584523Y-72715476D01*
X40489285Y-72763095D01*
X41489285Y-73477380D02*
X41489285Y-72477380D01*
X42060714Y-73477380D02*
X41632142Y-72905952D01*
X42060714Y-72477380D02*
X41489285Y-73048809D01*
X27725714Y-73477380D02*
X27154285Y-73477380D01*
X27440000Y-73477380D02*
X27440000Y-72477380D01*
X27344761Y-72620238D01*
X27249523Y-72715476D01*
X27154285Y-72763095D01*
X28154285Y-73477380D02*
X28154285Y-72477380D01*
X28725714Y-73477380D02*
X28297142Y-72905952D01*
X28725714Y-72477380D02*
X28154285Y-73048809D01*
X12485714Y-73477380D02*
X11914285Y-73477380D01*
X12200000Y-73477380D02*
X12200000Y-72477380D01*
X12104761Y-72620238D01*
X12009523Y-72715476D01*
X11914285Y-72763095D01*
X12914285Y-73477380D02*
X12914285Y-72477380D01*
X13485714Y-73477380D02*
X13057142Y-72905952D01*
X13485714Y-72477380D02*
X12914285Y-73048809D01*
D11*
X3980000Y-13910000D02*
X3980000Y-16570000D01*
X3980000Y-16570000D02*
X6640000Y-16570000D01*
X6640000Y-16570000D02*
X6640000Y-13910000D01*
X6640000Y-13910000D02*
X3980000Y-13910000D01*
X6640000Y-14860000D02*
X12640000Y-14860000D01*
X12640000Y-14860000D02*
X12640000Y-15620000D01*
X12640000Y-15620000D02*
X6640000Y-15620000D01*
X6640000Y-14920000D02*
X12640000Y-14920000D01*
X6640000Y-15040000D02*
X12640000Y-15040000D01*
X6640000Y-15160000D02*
X12640000Y-15160000D01*
X6640000Y-15280000D02*
X12640000Y-15280000D01*
X6640000Y-15400000D02*
X12640000Y-15400000D01*
X6640000Y-15520000D02*
X12640000Y-15520000D01*
X3650000Y-14860000D02*
X3980000Y-14860000D01*
X3650000Y-15620000D02*
X3980000Y-15620000D01*
X1270000Y-15240000D02*
X1270000Y-13970000D01*
X1270000Y-13970000D02*
X2540000Y-13970000D01*
X10683318Y-96534756D02*
G75*
G02*
X10000000Y-96680000I-683318J1534756D01*
G01*
X11535426Y-94316958D02*
G75*
G02*
X11535000Y-95684000I-1535426J-683042D01*
G01*
X9316958Y-93464574D02*
G75*
G02*
X10684000Y-93465000I683042J-1535426D01*
G01*
X8464574Y-95683042D02*
G75*
G02*
X8465000Y-94316000I1535426J683042D01*
G01*
X10028805Y-96680253D02*
G75*
G02*
X9316000Y-96535000I-28805J1680253D01*
G01*
X16760000Y-95000000D02*
G75*
G03*
X16760000Y-95000000I-1680000J0D01*
G01*
X7400000Y-99100000D02*
X17680000Y-99100000D01*
X7400000Y-97600000D02*
X17680000Y-97600000D01*
X7400000Y-92699000D02*
X17680000Y-92699000D01*
X7400000Y-89739000D02*
X17680000Y-89739000D01*
X7400000Y-99660000D02*
X17680000Y-99660000D01*
X7400000Y-89739000D02*
X7400000Y-99660000D01*
X17680000Y-89739000D02*
X17680000Y-99660000D01*
X16355000Y-93931000D02*
X16308000Y-93977000D01*
X14046000Y-96239000D02*
X14011000Y-96274000D01*
X16150000Y-93725000D02*
X16115000Y-93761000D01*
X13853000Y-96023000D02*
X13806000Y-96069000D01*
X7160000Y-99160000D02*
X7160000Y-99900000D01*
X7160000Y-99900000D02*
X7660000Y-99900000D01*
X23603318Y-96534756D02*
G75*
G02*
X22920000Y-96680000I-683318J1534756D01*
G01*
X24455426Y-94316958D02*
G75*
G02*
X24455000Y-95684000I-1535426J-683042D01*
G01*
X22236958Y-93464574D02*
G75*
G02*
X23604000Y-93465000I683042J-1535426D01*
G01*
X21384574Y-95683042D02*
G75*
G02*
X21385000Y-94316000I1535426J683042D01*
G01*
X22948805Y-96680253D02*
G75*
G02*
X22236000Y-96535000I-28805J1680253D01*
G01*
X29680000Y-95000000D02*
G75*
G03*
X29680000Y-95000000I-1680000J0D01*
G01*
X20320000Y-99100000D02*
X30600000Y-99100000D01*
X20320000Y-97600000D02*
X30600000Y-97600000D01*
X20320000Y-92699000D02*
X30600000Y-92699000D01*
X20320000Y-89739000D02*
X30600000Y-89739000D01*
X20320000Y-99660000D02*
X30600000Y-99660000D01*
X20320000Y-89739000D02*
X20320000Y-99660000D01*
X30600000Y-89739000D02*
X30600000Y-99660000D01*
X29275000Y-93931000D02*
X29228000Y-93977000D01*
X26966000Y-96239000D02*
X26931000Y-96274000D01*
X29070000Y-93725000D02*
X29035000Y-93761000D01*
X26773000Y-96023000D02*
X26726000Y-96069000D01*
X20080000Y-99160000D02*
X20080000Y-99900000D01*
X20080000Y-99900000D02*
X20580000Y-99900000D01*
X36603318Y-96534756D02*
G75*
G02*
X35920000Y-96680000I-683318J1534756D01*
G01*
X37455426Y-94316958D02*
G75*
G02*
X37455000Y-95684000I-1535426J-683042D01*
G01*
X35236958Y-93464574D02*
G75*
G02*
X36604000Y-93465000I683042J-1535426D01*
G01*
X34384574Y-95683042D02*
G75*
G02*
X34385000Y-94316000I1535426J683042D01*
G01*
X35948805Y-96680253D02*
G75*
G02*
X35236000Y-96535000I-28805J1680253D01*
G01*
X42680000Y-95000000D02*
G75*
G03*
X42680000Y-95000000I-1680000J0D01*
G01*
X33320000Y-99100000D02*
X43600000Y-99100000D01*
X33320000Y-97600000D02*
X43600000Y-97600000D01*
X33320000Y-92699000D02*
X43600000Y-92699000D01*
X33320000Y-89739000D02*
X43600000Y-89739000D01*
X33320000Y-99660000D02*
X43600000Y-99660000D01*
X33320000Y-89739000D02*
X33320000Y-99660000D01*
X43600000Y-89739000D02*
X43600000Y-99660000D01*
X42275000Y-93931000D02*
X42228000Y-93977000D01*
X39966000Y-96239000D02*
X39931000Y-96274000D01*
X42070000Y-93725000D02*
X42035000Y-93761000D01*
X39773000Y-96023000D02*
X39726000Y-96069000D01*
X33080000Y-99160000D02*
X33080000Y-99900000D01*
X33080000Y-99900000D02*
X33580000Y-99900000D01*
X49603318Y-96534756D02*
G75*
G02*
X48920000Y-96680000I-683318J1534756D01*
G01*
X50455426Y-94316958D02*
G75*
G02*
X50455000Y-95684000I-1535426J-683042D01*
G01*
X48236958Y-93464574D02*
G75*
G02*
X49604000Y-93465000I683042J-1535426D01*
G01*
X47384574Y-95683042D02*
G75*
G02*
X47385000Y-94316000I1535426J683042D01*
G01*
X48948805Y-96680253D02*
G75*
G02*
X48236000Y-96535000I-28805J1680253D01*
G01*
X55680000Y-95000000D02*
G75*
G03*
X55680000Y-95000000I-1680000J0D01*
G01*
X46320000Y-99100000D02*
X56600000Y-99100000D01*
X46320000Y-97600000D02*
X56600000Y-97600000D01*
X46320000Y-92699000D02*
X56600000Y-92699000D01*
X46320000Y-89739000D02*
X56600000Y-89739000D01*
X46320000Y-99660000D02*
X56600000Y-99660000D01*
X46320000Y-89739000D02*
X46320000Y-99660000D01*
X56600000Y-89739000D02*
X56600000Y-99660000D01*
X55275000Y-93931000D02*
X55228000Y-93977000D01*
X52966000Y-96239000D02*
X52931000Y-96274000D01*
X55070000Y-93725000D02*
X55035000Y-93761000D01*
X52773000Y-96023000D02*
X52726000Y-96069000D01*
X46080000Y-99160000D02*
X46080000Y-99900000D01*
X46080000Y-99900000D02*
X46580000Y-99900000D01*
X62603318Y-96534756D02*
G75*
G02*
X61920000Y-96680000I-683318J1534756D01*
G01*
X63455426Y-94316958D02*
G75*
G02*
X63455000Y-95684000I-1535426J-683042D01*
G01*
X61236958Y-93464574D02*
G75*
G02*
X62604000Y-93465000I683042J-1535426D01*
G01*
X60384574Y-95683042D02*
G75*
G02*
X60385000Y-94316000I1535426J683042D01*
G01*
X61948805Y-96680253D02*
G75*
G02*
X61236000Y-96535000I-28805J1680253D01*
G01*
X68680000Y-95000000D02*
G75*
G03*
X68680000Y-95000000I-1680000J0D01*
G01*
X59320000Y-99100000D02*
X69600000Y-99100000D01*
X59320000Y-97600000D02*
X69600000Y-97600000D01*
X59320000Y-92699000D02*
X69600000Y-92699000D01*
X59320000Y-89739000D02*
X69600000Y-89739000D01*
X59320000Y-99660000D02*
X69600000Y-99660000D01*
X59320000Y-89739000D02*
X59320000Y-99660000D01*
X69600000Y-89739000D02*
X69600000Y-99660000D01*
X68275000Y-93931000D02*
X68228000Y-93977000D01*
X65966000Y-96239000D02*
X65931000Y-96274000D01*
X68070000Y-93725000D02*
X68035000Y-93761000D01*
X65773000Y-96023000D02*
X65726000Y-96069000D01*
X59080000Y-99160000D02*
X59080000Y-99900000D01*
X59080000Y-99900000D02*
X59580000Y-99900000D01*
X75803318Y-96534756D02*
G75*
G02*
X75120000Y-96680000I-683318J1534756D01*
G01*
X76655426Y-94316958D02*
G75*
G02*
X76655000Y-95684000I-1535426J-683042D01*
G01*
X74436958Y-93464574D02*
G75*
G02*
X75804000Y-93465000I683042J-1535426D01*
G01*
X73584574Y-95683042D02*
G75*
G02*
X73585000Y-94316000I1535426J683042D01*
G01*
X75148805Y-96680253D02*
G75*
G02*
X74436000Y-96535000I-28805J1680253D01*
G01*
X81880000Y-95000000D02*
G75*
G03*
X81880000Y-95000000I-1680000J0D01*
G01*
X72520000Y-99100000D02*
X82800000Y-99100000D01*
X72520000Y-97600000D02*
X82800000Y-97600000D01*
X72520000Y-92699000D02*
X82800000Y-92699000D01*
X72520000Y-89739000D02*
X82800000Y-89739000D01*
X72520000Y-99660000D02*
X82800000Y-99660000D01*
X72520000Y-89739000D02*
X72520000Y-99660000D01*
X82800000Y-89739000D02*
X82800000Y-99660000D01*
X81475000Y-93931000D02*
X81428000Y-93977000D01*
X79166000Y-96239000D02*
X79131000Y-96274000D01*
X81270000Y-93725000D02*
X81235000Y-93761000D01*
X78973000Y-96023000D02*
X78926000Y-96069000D01*
X72280000Y-99160000D02*
X72280000Y-99900000D01*
X72280000Y-99900000D02*
X72780000Y-99900000D01*
X13020000Y-14000000D02*
G75*
G03*
X13020000Y-14000000I-3270000J0D01*
G01*
X9750000Y-17230000D02*
X9750000Y-10770000D01*
X9710000Y-17230000D02*
X9710000Y-10770000D01*
X9670000Y-17230000D02*
X9670000Y-10770000D01*
X9630000Y-17228000D02*
X9630000Y-10772000D01*
X9590000Y-17227000D02*
X9590000Y-10773000D01*
X9550000Y-17224000D02*
X9550000Y-10776000D01*
X9510000Y-17222000D02*
X9510000Y-15040000D01*
X9510000Y-12960000D02*
X9510000Y-10778000D01*
X9470000Y-17218000D02*
X9470000Y-15040000D01*
X9470000Y-12960000D02*
X9470000Y-10782000D01*
X9430000Y-17215000D02*
X9430000Y-15040000D01*
X9430000Y-12960000D02*
X9430000Y-10785000D01*
X9390000Y-17211000D02*
X9390000Y-15040000D01*
X9390000Y-12960000D02*
X9390000Y-10789000D01*
X9350000Y-17206000D02*
X9350000Y-15040000D01*
X9350000Y-12960000D02*
X9350000Y-10794000D01*
X9310000Y-17201000D02*
X9310000Y-15040000D01*
X9310000Y-12960000D02*
X9310000Y-10799000D01*
X9270000Y-17195000D02*
X9270000Y-15040000D01*
X9270000Y-12960000D02*
X9270000Y-10805000D01*
X9230000Y-17189000D02*
X9230000Y-15040000D01*
X9230000Y-12960000D02*
X9230000Y-10811000D01*
X9190000Y-17182000D02*
X9190000Y-15040000D01*
X9190000Y-12960000D02*
X9190000Y-10818000D01*
X9150000Y-17175000D02*
X9150000Y-15040000D01*
X9150000Y-12960000D02*
X9150000Y-10825000D01*
X9110000Y-17167000D02*
X9110000Y-15040000D01*
X9110000Y-12960000D02*
X9110000Y-10833000D01*
X9070000Y-17159000D02*
X9070000Y-15040000D01*
X9070000Y-12960000D02*
X9070000Y-10841000D01*
X9029000Y-17150000D02*
X9029000Y-15040000D01*
X9029000Y-12960000D02*
X9029000Y-10850000D01*
X8989000Y-17141000D02*
X8989000Y-15040000D01*
X8989000Y-12960000D02*
X8989000Y-10859000D01*
X8949000Y-17131000D02*
X8949000Y-15040000D01*
X8949000Y-12960000D02*
X8949000Y-10869000D01*
X8909000Y-17121000D02*
X8909000Y-15040000D01*
X8909000Y-12960000D02*
X8909000Y-10879000D01*
X8869000Y-17110000D02*
X8869000Y-15040000D01*
X8869000Y-12960000D02*
X8869000Y-10890000D01*
X8829000Y-17098000D02*
X8829000Y-15040000D01*
X8829000Y-12960000D02*
X8829000Y-10902000D01*
X8789000Y-17086000D02*
X8789000Y-15040000D01*
X8789000Y-12960000D02*
X8789000Y-10914000D01*
X8749000Y-17074000D02*
X8749000Y-15040000D01*
X8749000Y-12960000D02*
X8749000Y-10926000D01*
X8709000Y-17061000D02*
X8709000Y-15040000D01*
X8709000Y-12960000D02*
X8709000Y-10939000D01*
X8669000Y-17047000D02*
X8669000Y-15040000D01*
X8669000Y-12960000D02*
X8669000Y-10953000D01*
X8629000Y-17033000D02*
X8629000Y-15040000D01*
X8629000Y-12960000D02*
X8629000Y-10967000D01*
X8589000Y-17018000D02*
X8589000Y-15040000D01*
X8589000Y-12960000D02*
X8589000Y-10982000D01*
X8549000Y-17002000D02*
X8549000Y-15040000D01*
X8549000Y-12960000D02*
X8549000Y-10998000D01*
X8509000Y-16986000D02*
X8509000Y-15040000D01*
X8509000Y-12960000D02*
X8509000Y-11014000D01*
X8469000Y-16970000D02*
X8469000Y-15040000D01*
X8469000Y-12960000D02*
X8469000Y-11030000D01*
X8429000Y-16952000D02*
X8429000Y-15040000D01*
X8429000Y-12960000D02*
X8429000Y-11048000D01*
X8389000Y-16934000D02*
X8389000Y-15040000D01*
X8389000Y-12960000D02*
X8389000Y-11066000D01*
X8349000Y-16916000D02*
X8349000Y-15040000D01*
X8349000Y-12960000D02*
X8349000Y-11084000D01*
X8309000Y-16896000D02*
X8309000Y-15040000D01*
X8309000Y-12960000D02*
X8309000Y-11104000D01*
X8269000Y-16876000D02*
X8269000Y-15040000D01*
X8269000Y-12960000D02*
X8269000Y-11124000D01*
X8229000Y-16856000D02*
X8229000Y-15040000D01*
X8229000Y-12960000D02*
X8229000Y-11144000D01*
X8189000Y-16834000D02*
X8189000Y-15040000D01*
X8189000Y-12960000D02*
X8189000Y-11166000D01*
X8149000Y-16812000D02*
X8149000Y-15040000D01*
X8149000Y-12960000D02*
X8149000Y-11188000D01*
X8109000Y-16790000D02*
X8109000Y-15040000D01*
X8109000Y-12960000D02*
X8109000Y-11210000D01*
X8069000Y-16766000D02*
X8069000Y-15040000D01*
X8069000Y-12960000D02*
X8069000Y-11234000D01*
X8029000Y-16742000D02*
X8029000Y-15040000D01*
X8029000Y-12960000D02*
X8029000Y-11258000D01*
X7989000Y-16716000D02*
X7989000Y-15040000D01*
X7989000Y-12960000D02*
X7989000Y-11284000D01*
X7949000Y-16690000D02*
X7949000Y-15040000D01*
X7949000Y-12960000D02*
X7949000Y-11310000D01*
X7909000Y-16664000D02*
X7909000Y-15040000D01*
X7909000Y-12960000D02*
X7909000Y-11336000D01*
X7869000Y-16636000D02*
X7869000Y-15040000D01*
X7869000Y-12960000D02*
X7869000Y-11364000D01*
X7829000Y-16607000D02*
X7829000Y-15040000D01*
X7829000Y-12960000D02*
X7829000Y-11393000D01*
X7789000Y-16578000D02*
X7789000Y-15040000D01*
X7789000Y-12960000D02*
X7789000Y-11422000D01*
X7749000Y-16548000D02*
X7749000Y-15040000D01*
X7749000Y-12960000D02*
X7749000Y-11452000D01*
X7709000Y-16516000D02*
X7709000Y-15040000D01*
X7709000Y-12960000D02*
X7709000Y-11484000D01*
X7669000Y-16484000D02*
X7669000Y-15040000D01*
X7669000Y-12960000D02*
X7669000Y-11516000D01*
X7629000Y-16450000D02*
X7629000Y-15040000D01*
X7629000Y-12960000D02*
X7629000Y-11550000D01*
X7589000Y-16416000D02*
X7589000Y-15040000D01*
X7589000Y-12960000D02*
X7589000Y-11584000D01*
X7549000Y-16380000D02*
X7549000Y-15040000D01*
X7549000Y-12960000D02*
X7549000Y-11620000D01*
X7509000Y-16343000D02*
X7509000Y-15040000D01*
X7509000Y-12960000D02*
X7509000Y-11657000D01*
X7469000Y-16305000D02*
X7469000Y-15040000D01*
X7469000Y-12960000D02*
X7469000Y-11695000D01*
X7429000Y-16265000D02*
X7429000Y-11735000D01*
X7389000Y-16224000D02*
X7389000Y-11776000D01*
X7349000Y-16182000D02*
X7349000Y-11818000D01*
X7309000Y-16137000D02*
X7309000Y-11863000D01*
X7269000Y-16092000D02*
X7269000Y-11908000D01*
X7229000Y-16044000D02*
X7229000Y-11956000D01*
X7189000Y-15995000D02*
X7189000Y-12005000D01*
X7149000Y-15944000D02*
X7149000Y-12056000D01*
X7109000Y-15890000D02*
X7109000Y-12110000D01*
X7069000Y-15834000D02*
X7069000Y-12166000D01*
X7029000Y-15776000D02*
X7029000Y-12224000D01*
X6989000Y-15714000D02*
X6989000Y-12286000D01*
X6949000Y-15650000D02*
X6949000Y-12350000D01*
X6909000Y-15581000D02*
X6909000Y-12419000D01*
X6869000Y-15509000D02*
X6869000Y-12491000D01*
X6829000Y-15432000D02*
X6829000Y-12568000D01*
X6789000Y-15350000D02*
X6789000Y-12650000D01*
X6749000Y-15262000D02*
X6749000Y-12738000D01*
X6709000Y-15165000D02*
X6709000Y-12835000D01*
X6669000Y-15059000D02*
X6669000Y-12941000D01*
X6629000Y-14940000D02*
X6629000Y-13060000D01*
X6589000Y-14802000D02*
X6589000Y-13198000D01*
X6549000Y-14633000D02*
X6549000Y-13367000D01*
X6509000Y-14402000D02*
X6509000Y-13598000D01*
X13250241Y-15839000D02*
X12620241Y-15839000D01*
X12935241Y-16154000D02*
X12935241Y-15524000D01*
X22020000Y-14000000D02*
G75*
G03*
X22020000Y-14000000I-3270000J0D01*
G01*
X18750000Y-17230000D02*
X18750000Y-10770000D01*
X18710000Y-17230000D02*
X18710000Y-10770000D01*
X18670000Y-17230000D02*
X18670000Y-10770000D01*
X18630000Y-17228000D02*
X18630000Y-10772000D01*
X18590000Y-17227000D02*
X18590000Y-10773000D01*
X18550000Y-17224000D02*
X18550000Y-10776000D01*
X18510000Y-17222000D02*
X18510000Y-15040000D01*
X18510000Y-12960000D02*
X18510000Y-10778000D01*
X18470000Y-17218000D02*
X18470000Y-15040000D01*
X18470000Y-12960000D02*
X18470000Y-10782000D01*
X18430000Y-17215000D02*
X18430000Y-15040000D01*
X18430000Y-12960000D02*
X18430000Y-10785000D01*
X18390000Y-17211000D02*
X18390000Y-15040000D01*
X18390000Y-12960000D02*
X18390000Y-10789000D01*
X18350000Y-17206000D02*
X18350000Y-15040000D01*
X18350000Y-12960000D02*
X18350000Y-10794000D01*
X18310000Y-17201000D02*
X18310000Y-15040000D01*
X18310000Y-12960000D02*
X18310000Y-10799000D01*
X18270000Y-17195000D02*
X18270000Y-15040000D01*
X18270000Y-12960000D02*
X18270000Y-10805000D01*
X18230000Y-17189000D02*
X18230000Y-15040000D01*
X18230000Y-12960000D02*
X18230000Y-10811000D01*
X18190000Y-17182000D02*
X18190000Y-15040000D01*
X18190000Y-12960000D02*
X18190000Y-10818000D01*
X18150000Y-17175000D02*
X18150000Y-15040000D01*
X18150000Y-12960000D02*
X18150000Y-10825000D01*
X18110000Y-17167000D02*
X18110000Y-15040000D01*
X18110000Y-12960000D02*
X18110000Y-10833000D01*
X18070000Y-17159000D02*
X18070000Y-15040000D01*
X18070000Y-12960000D02*
X18070000Y-10841000D01*
X18029000Y-17150000D02*
X18029000Y-15040000D01*
X18029000Y-12960000D02*
X18029000Y-10850000D01*
X17989000Y-17141000D02*
X17989000Y-15040000D01*
X17989000Y-12960000D02*
X17989000Y-10859000D01*
X17949000Y-17131000D02*
X17949000Y-15040000D01*
X17949000Y-12960000D02*
X17949000Y-10869000D01*
X17909000Y-17121000D02*
X17909000Y-15040000D01*
X17909000Y-12960000D02*
X17909000Y-10879000D01*
X17869000Y-17110000D02*
X17869000Y-15040000D01*
X17869000Y-12960000D02*
X17869000Y-10890000D01*
X17829000Y-17098000D02*
X17829000Y-15040000D01*
X17829000Y-12960000D02*
X17829000Y-10902000D01*
X17789000Y-17086000D02*
X17789000Y-15040000D01*
X17789000Y-12960000D02*
X17789000Y-10914000D01*
X17749000Y-17074000D02*
X17749000Y-15040000D01*
X17749000Y-12960000D02*
X17749000Y-10926000D01*
X17709000Y-17061000D02*
X17709000Y-15040000D01*
X17709000Y-12960000D02*
X17709000Y-10939000D01*
X17669000Y-17047000D02*
X17669000Y-15040000D01*
X17669000Y-12960000D02*
X17669000Y-10953000D01*
X17629000Y-17033000D02*
X17629000Y-15040000D01*
X17629000Y-12960000D02*
X17629000Y-10967000D01*
X17589000Y-17018000D02*
X17589000Y-15040000D01*
X17589000Y-12960000D02*
X17589000Y-10982000D01*
X17549000Y-17002000D02*
X17549000Y-15040000D01*
X17549000Y-12960000D02*
X17549000Y-10998000D01*
X17509000Y-16986000D02*
X17509000Y-15040000D01*
X17509000Y-12960000D02*
X17509000Y-11014000D01*
X17469000Y-16970000D02*
X17469000Y-15040000D01*
X17469000Y-12960000D02*
X17469000Y-11030000D01*
X17429000Y-16952000D02*
X17429000Y-15040000D01*
X17429000Y-12960000D02*
X17429000Y-11048000D01*
X17389000Y-16934000D02*
X17389000Y-15040000D01*
X17389000Y-12960000D02*
X17389000Y-11066000D01*
X17349000Y-16916000D02*
X17349000Y-15040000D01*
X17349000Y-12960000D02*
X17349000Y-11084000D01*
X17309000Y-16896000D02*
X17309000Y-15040000D01*
X17309000Y-12960000D02*
X17309000Y-11104000D01*
X17269000Y-16876000D02*
X17269000Y-15040000D01*
X17269000Y-12960000D02*
X17269000Y-11124000D01*
X17229000Y-16856000D02*
X17229000Y-15040000D01*
X17229000Y-12960000D02*
X17229000Y-11144000D01*
X17189000Y-16834000D02*
X17189000Y-15040000D01*
X17189000Y-12960000D02*
X17189000Y-11166000D01*
X17149000Y-16812000D02*
X17149000Y-15040000D01*
X17149000Y-12960000D02*
X17149000Y-11188000D01*
X17109000Y-16790000D02*
X17109000Y-15040000D01*
X17109000Y-12960000D02*
X17109000Y-11210000D01*
X17069000Y-16766000D02*
X17069000Y-15040000D01*
X17069000Y-12960000D02*
X17069000Y-11234000D01*
X17029000Y-16742000D02*
X17029000Y-15040000D01*
X17029000Y-12960000D02*
X17029000Y-11258000D01*
X16989000Y-16716000D02*
X16989000Y-15040000D01*
X16989000Y-12960000D02*
X16989000Y-11284000D01*
X16949000Y-16690000D02*
X16949000Y-15040000D01*
X16949000Y-12960000D02*
X16949000Y-11310000D01*
X16909000Y-16664000D02*
X16909000Y-15040000D01*
X16909000Y-12960000D02*
X16909000Y-11336000D01*
X16869000Y-16636000D02*
X16869000Y-15040000D01*
X16869000Y-12960000D02*
X16869000Y-11364000D01*
X16829000Y-16607000D02*
X16829000Y-15040000D01*
X16829000Y-12960000D02*
X16829000Y-11393000D01*
X16789000Y-16578000D02*
X16789000Y-15040000D01*
X16789000Y-12960000D02*
X16789000Y-11422000D01*
X16749000Y-16548000D02*
X16749000Y-15040000D01*
X16749000Y-12960000D02*
X16749000Y-11452000D01*
X16709000Y-16516000D02*
X16709000Y-15040000D01*
X16709000Y-12960000D02*
X16709000Y-11484000D01*
X16669000Y-16484000D02*
X16669000Y-15040000D01*
X16669000Y-12960000D02*
X16669000Y-11516000D01*
X16629000Y-16450000D02*
X16629000Y-15040000D01*
X16629000Y-12960000D02*
X16629000Y-11550000D01*
X16589000Y-16416000D02*
X16589000Y-15040000D01*
X16589000Y-12960000D02*
X16589000Y-11584000D01*
X16549000Y-16380000D02*
X16549000Y-15040000D01*
X16549000Y-12960000D02*
X16549000Y-11620000D01*
X16509000Y-16343000D02*
X16509000Y-15040000D01*
X16509000Y-12960000D02*
X16509000Y-11657000D01*
X16469000Y-16305000D02*
X16469000Y-15040000D01*
X16469000Y-12960000D02*
X16469000Y-11695000D01*
X16429000Y-16265000D02*
X16429000Y-11735000D01*
X16389000Y-16224000D02*
X16389000Y-11776000D01*
X16349000Y-16182000D02*
X16349000Y-11818000D01*
X16309000Y-16137000D02*
X16309000Y-11863000D01*
X16269000Y-16092000D02*
X16269000Y-11908000D01*
X16229000Y-16044000D02*
X16229000Y-11956000D01*
X16189000Y-15995000D02*
X16189000Y-12005000D01*
X16149000Y-15944000D02*
X16149000Y-12056000D01*
X16109000Y-15890000D02*
X16109000Y-12110000D01*
X16069000Y-15834000D02*
X16069000Y-12166000D01*
X16029000Y-15776000D02*
X16029000Y-12224000D01*
X15989000Y-15714000D02*
X15989000Y-12286000D01*
X15949000Y-15650000D02*
X15949000Y-12350000D01*
X15909000Y-15581000D02*
X15909000Y-12419000D01*
X15869000Y-15509000D02*
X15869000Y-12491000D01*
X15829000Y-15432000D02*
X15829000Y-12568000D01*
X15789000Y-15350000D02*
X15789000Y-12650000D01*
X15749000Y-15262000D02*
X15749000Y-12738000D01*
X15709000Y-15165000D02*
X15709000Y-12835000D01*
X15669000Y-15059000D02*
X15669000Y-12941000D01*
X15629000Y-14940000D02*
X15629000Y-13060000D01*
X15589000Y-14802000D02*
X15589000Y-13198000D01*
X15549000Y-14633000D02*
X15549000Y-13367000D01*
X15509000Y-14402000D02*
X15509000Y-13598000D01*
X22250241Y-15839000D02*
X21620241Y-15839000D01*
X21935241Y-16154000D02*
X21935241Y-15524000D01*
X31020000Y-14000000D02*
G75*
G03*
X31020000Y-14000000I-3270000J0D01*
G01*
X27750000Y-17230000D02*
X27750000Y-10770000D01*
X27710000Y-17230000D02*
X27710000Y-10770000D01*
X27670000Y-17230000D02*
X27670000Y-10770000D01*
X27630000Y-17228000D02*
X27630000Y-10772000D01*
X27590000Y-17227000D02*
X27590000Y-10773000D01*
X27550000Y-17224000D02*
X27550000Y-10776000D01*
X27510000Y-17222000D02*
X27510000Y-15040000D01*
X27510000Y-12960000D02*
X27510000Y-10778000D01*
X27470000Y-17218000D02*
X27470000Y-15040000D01*
X27470000Y-12960000D02*
X27470000Y-10782000D01*
X27430000Y-17215000D02*
X27430000Y-15040000D01*
X27430000Y-12960000D02*
X27430000Y-10785000D01*
X27390000Y-17211000D02*
X27390000Y-15040000D01*
X27390000Y-12960000D02*
X27390000Y-10789000D01*
X27350000Y-17206000D02*
X27350000Y-15040000D01*
X27350000Y-12960000D02*
X27350000Y-10794000D01*
X27310000Y-17201000D02*
X27310000Y-15040000D01*
X27310000Y-12960000D02*
X27310000Y-10799000D01*
X27270000Y-17195000D02*
X27270000Y-15040000D01*
X27270000Y-12960000D02*
X27270000Y-10805000D01*
X27230000Y-17189000D02*
X27230000Y-15040000D01*
X27230000Y-12960000D02*
X27230000Y-10811000D01*
X27190000Y-17182000D02*
X27190000Y-15040000D01*
X27190000Y-12960000D02*
X27190000Y-10818000D01*
X27150000Y-17175000D02*
X27150000Y-15040000D01*
X27150000Y-12960000D02*
X27150000Y-10825000D01*
X27110000Y-17167000D02*
X27110000Y-15040000D01*
X27110000Y-12960000D02*
X27110000Y-10833000D01*
X27070000Y-17159000D02*
X27070000Y-15040000D01*
X27070000Y-12960000D02*
X27070000Y-10841000D01*
X27029000Y-17150000D02*
X27029000Y-15040000D01*
X27029000Y-12960000D02*
X27029000Y-10850000D01*
X26989000Y-17141000D02*
X26989000Y-15040000D01*
X26989000Y-12960000D02*
X26989000Y-10859000D01*
X26949000Y-17131000D02*
X26949000Y-15040000D01*
X26949000Y-12960000D02*
X26949000Y-10869000D01*
X26909000Y-17121000D02*
X26909000Y-15040000D01*
X26909000Y-12960000D02*
X26909000Y-10879000D01*
X26869000Y-17110000D02*
X26869000Y-15040000D01*
X26869000Y-12960000D02*
X26869000Y-10890000D01*
X26829000Y-17098000D02*
X26829000Y-15040000D01*
X26829000Y-12960000D02*
X26829000Y-10902000D01*
X26789000Y-17086000D02*
X26789000Y-15040000D01*
X26789000Y-12960000D02*
X26789000Y-10914000D01*
X26749000Y-17074000D02*
X26749000Y-15040000D01*
X26749000Y-12960000D02*
X26749000Y-10926000D01*
X26709000Y-17061000D02*
X26709000Y-15040000D01*
X26709000Y-12960000D02*
X26709000Y-10939000D01*
X26669000Y-17047000D02*
X26669000Y-15040000D01*
X26669000Y-12960000D02*
X26669000Y-10953000D01*
X26629000Y-17033000D02*
X26629000Y-15040000D01*
X26629000Y-12960000D02*
X26629000Y-10967000D01*
X26589000Y-17018000D02*
X26589000Y-15040000D01*
X26589000Y-12960000D02*
X26589000Y-10982000D01*
X26549000Y-17002000D02*
X26549000Y-15040000D01*
X26549000Y-12960000D02*
X26549000Y-10998000D01*
X26509000Y-16986000D02*
X26509000Y-15040000D01*
X26509000Y-12960000D02*
X26509000Y-11014000D01*
X26469000Y-16970000D02*
X26469000Y-15040000D01*
X26469000Y-12960000D02*
X26469000Y-11030000D01*
X26429000Y-16952000D02*
X26429000Y-15040000D01*
X26429000Y-12960000D02*
X26429000Y-11048000D01*
X26389000Y-16934000D02*
X26389000Y-15040000D01*
X26389000Y-12960000D02*
X26389000Y-11066000D01*
X26349000Y-16916000D02*
X26349000Y-15040000D01*
X26349000Y-12960000D02*
X26349000Y-11084000D01*
X26309000Y-16896000D02*
X26309000Y-15040000D01*
X26309000Y-12960000D02*
X26309000Y-11104000D01*
X26269000Y-16876000D02*
X26269000Y-15040000D01*
X26269000Y-12960000D02*
X26269000Y-11124000D01*
X26229000Y-16856000D02*
X26229000Y-15040000D01*
X26229000Y-12960000D02*
X26229000Y-11144000D01*
X26189000Y-16834000D02*
X26189000Y-15040000D01*
X26189000Y-12960000D02*
X26189000Y-11166000D01*
X26149000Y-16812000D02*
X26149000Y-15040000D01*
X26149000Y-12960000D02*
X26149000Y-11188000D01*
X26109000Y-16790000D02*
X26109000Y-15040000D01*
X26109000Y-12960000D02*
X26109000Y-11210000D01*
X26069000Y-16766000D02*
X26069000Y-15040000D01*
X26069000Y-12960000D02*
X26069000Y-11234000D01*
X26029000Y-16742000D02*
X26029000Y-15040000D01*
X26029000Y-12960000D02*
X26029000Y-11258000D01*
X25989000Y-16716000D02*
X25989000Y-15040000D01*
X25989000Y-12960000D02*
X25989000Y-11284000D01*
X25949000Y-16690000D02*
X25949000Y-15040000D01*
X25949000Y-12960000D02*
X25949000Y-11310000D01*
X25909000Y-16664000D02*
X25909000Y-15040000D01*
X25909000Y-12960000D02*
X25909000Y-11336000D01*
X25869000Y-16636000D02*
X25869000Y-15040000D01*
X25869000Y-12960000D02*
X25869000Y-11364000D01*
X25829000Y-16607000D02*
X25829000Y-15040000D01*
X25829000Y-12960000D02*
X25829000Y-11393000D01*
X25789000Y-16578000D02*
X25789000Y-15040000D01*
X25789000Y-12960000D02*
X25789000Y-11422000D01*
X25749000Y-16548000D02*
X25749000Y-15040000D01*
X25749000Y-12960000D02*
X25749000Y-11452000D01*
X25709000Y-16516000D02*
X25709000Y-15040000D01*
X25709000Y-12960000D02*
X25709000Y-11484000D01*
X25669000Y-16484000D02*
X25669000Y-15040000D01*
X25669000Y-12960000D02*
X25669000Y-11516000D01*
X25629000Y-16450000D02*
X25629000Y-15040000D01*
X25629000Y-12960000D02*
X25629000Y-11550000D01*
X25589000Y-16416000D02*
X25589000Y-15040000D01*
X25589000Y-12960000D02*
X25589000Y-11584000D01*
X25549000Y-16380000D02*
X25549000Y-15040000D01*
X25549000Y-12960000D02*
X25549000Y-11620000D01*
X25509000Y-16343000D02*
X25509000Y-15040000D01*
X25509000Y-12960000D02*
X25509000Y-11657000D01*
X25469000Y-16305000D02*
X25469000Y-15040000D01*
X25469000Y-12960000D02*
X25469000Y-11695000D01*
X25429000Y-16265000D02*
X25429000Y-11735000D01*
X25389000Y-16224000D02*
X25389000Y-11776000D01*
X25349000Y-16182000D02*
X25349000Y-11818000D01*
X25309000Y-16137000D02*
X25309000Y-11863000D01*
X25269000Y-16092000D02*
X25269000Y-11908000D01*
X25229000Y-16044000D02*
X25229000Y-11956000D01*
X25189000Y-15995000D02*
X25189000Y-12005000D01*
X25149000Y-15944000D02*
X25149000Y-12056000D01*
X25109000Y-15890000D02*
X25109000Y-12110000D01*
X25069000Y-15834000D02*
X25069000Y-12166000D01*
X25029000Y-15776000D02*
X25029000Y-12224000D01*
X24989000Y-15714000D02*
X24989000Y-12286000D01*
X24949000Y-15650000D02*
X24949000Y-12350000D01*
X24909000Y-15581000D02*
X24909000Y-12419000D01*
X24869000Y-15509000D02*
X24869000Y-12491000D01*
X24829000Y-15432000D02*
X24829000Y-12568000D01*
X24789000Y-15350000D02*
X24789000Y-12650000D01*
X24749000Y-15262000D02*
X24749000Y-12738000D01*
X24709000Y-15165000D02*
X24709000Y-12835000D01*
X24669000Y-15059000D02*
X24669000Y-12941000D01*
X24629000Y-14940000D02*
X24629000Y-13060000D01*
X24589000Y-14802000D02*
X24589000Y-13198000D01*
X24549000Y-14633000D02*
X24549000Y-13367000D01*
X24509000Y-14402000D02*
X24509000Y-13598000D01*
X31250241Y-15839000D02*
X30620241Y-15839000D01*
X30935241Y-16154000D02*
X30935241Y-15524000D01*
X3870000Y-8830000D02*
X1210000Y-8830000D01*
X3870000Y-11430000D02*
X3870000Y-8830000D01*
X1210000Y-11430000D02*
X1210000Y-8830000D01*
X3870000Y-11430000D02*
X1210000Y-11430000D01*
X3870000Y-12700000D02*
X3870000Y-14030000D01*
X3870000Y-14030000D02*
X2540000Y-14030000D01*
X1210000Y-21650000D02*
X3870000Y-21650000D01*
X1210000Y-19050000D02*
X1210000Y-21650000D01*
X3870000Y-19050000D02*
X3870000Y-21650000D01*
X1210000Y-19050000D02*
X3870000Y-19050000D01*
X1210000Y-17780000D02*
X1210000Y-16450000D01*
X1210000Y-16450000D02*
X2540000Y-16450000D01*
X81750000Y-11100000D02*
X82800000Y-11100000D01*
X82800000Y-10050000D02*
X82800000Y-11100000D01*
X73400000Y-5000000D02*
X73400000Y3800000D01*
X73400000Y3800000D02*
X82600000Y3800000D01*
X76100000Y-10900000D02*
X73400000Y-10900000D01*
X73400000Y-10900000D02*
X73400000Y-9000000D01*
X82600000Y3800000D02*
X82600000Y-10900000D01*
X82600000Y-10900000D02*
X80000000Y-10900000D01*
X15705000Y-78370000D02*
X15705000Y-78040000D01*
X9165000Y-78370000D02*
X15705000Y-78370000D01*
X9165000Y-78040000D02*
X9165000Y-78370000D01*
X15705000Y-75630000D02*
X15705000Y-75960000D01*
X9165000Y-75630000D02*
X15705000Y-75630000D01*
X9165000Y-75960000D02*
X9165000Y-75630000D01*
X9165000Y-71655000D02*
X9165000Y-71985000D01*
X15705000Y-71655000D02*
X9165000Y-71655000D01*
X15705000Y-71985000D02*
X15705000Y-71655000D01*
X9165000Y-74395000D02*
X9165000Y-74065000D01*
X15705000Y-74395000D02*
X9165000Y-74395000D01*
X15705000Y-74065000D02*
X15705000Y-74395000D01*
X14391000Y-79730000D02*
X14391000Y-81240000D01*
X10690000Y-79730000D02*
X10690000Y-81240000D01*
X7420000Y-81240000D02*
X17660000Y-81240000D01*
X17660000Y-79730000D02*
X17660000Y-84371000D01*
X7420000Y-79730000D02*
X7420000Y-84371000D01*
X7420000Y-84371000D02*
X17660000Y-84371000D01*
X7420000Y-79730000D02*
X17660000Y-79730000D01*
X10495000Y-85525000D02*
X10495000Y-88465000D01*
X10735000Y-85525000D02*
X10735000Y-88465000D01*
X10615000Y-85525000D02*
X10615000Y-88465000D01*
X15155000Y-88465000D02*
X15155000Y-88335000D01*
X9715000Y-88465000D02*
X15155000Y-88465000D01*
X9715000Y-88335000D02*
X9715000Y-88465000D01*
X15155000Y-85525000D02*
X15155000Y-85655000D01*
X9715000Y-85525000D02*
X15155000Y-85525000D01*
X9715000Y-85655000D02*
X9715000Y-85525000D01*
X10775000Y-65765000D02*
X10775000Y-68855000D01*
X15835000Y-67310000D02*
G75*
G03*
X15835000Y-67310000I-2500000J0D01*
G01*
X16325000Y-67309538D02*
G75*
G02*
X10775000Y-68854830I-2990000J-462D01*
G01*
X16325000Y-67310462D02*
G75*
G03*
X10775000Y-65765170I-2990000J462D01*
G01*
X86299646Y-21375000D02*
X86299646Y-20375000D01*
X86799646Y-20875000D02*
X85799646Y-20875000D01*
X76239000Y-18599000D02*
X76239000Y-17401000D01*
X76279000Y-18862000D02*
X76279000Y-17138000D01*
X76319000Y-19062000D02*
X76319000Y-16938000D01*
X76359000Y-19230000D02*
X76359000Y-16770000D01*
X76399000Y-19378000D02*
X76399000Y-16622000D01*
X76439000Y-19510000D02*
X76439000Y-16490000D01*
X76479000Y-19630000D02*
X76479000Y-16370000D01*
X76519000Y-19742000D02*
X76519000Y-16258000D01*
X76559000Y-19846000D02*
X76559000Y-16154000D01*
X76599000Y-19944000D02*
X76599000Y-16056000D01*
X76639000Y-20037000D02*
X76639000Y-15963000D01*
X76679000Y-20125000D02*
X76679000Y-15875000D01*
X76719000Y-20209000D02*
X76719000Y-15791000D01*
X76759000Y-20289000D02*
X76759000Y-15711000D01*
X76799000Y-20365000D02*
X76799000Y-15635000D01*
X76839000Y-20439000D02*
X76839000Y-15561000D01*
X76879000Y-20510000D02*
X76879000Y-15490000D01*
X76919000Y-20579000D02*
X76919000Y-15421000D01*
X76959000Y-20645000D02*
X76959000Y-15355000D01*
X76999000Y-20709000D02*
X76999000Y-15291000D01*
X77039000Y-20770000D02*
X77039000Y-15230000D01*
X77079000Y-20830000D02*
X77079000Y-15170000D01*
X77119000Y-20889000D02*
X77119000Y-15111000D01*
X77159000Y-20945000D02*
X77159000Y-15055000D01*
X77199000Y-21000000D02*
X77199000Y-15000000D01*
X77239000Y-21054000D02*
X77239000Y-14946000D01*
X77279000Y-21106000D02*
X77279000Y-14894000D01*
X77319000Y-21156000D02*
X77319000Y-14844000D01*
X77359000Y-21206000D02*
X77359000Y-14794000D01*
X77399000Y-21254000D02*
X77399000Y-14746000D01*
X77439000Y-21301000D02*
X77439000Y-14699000D01*
X77479000Y-21347000D02*
X77479000Y-14653000D01*
X77519000Y-21392000D02*
X77519000Y-14608000D01*
X77559000Y-21436000D02*
X77559000Y-14564000D01*
X77599000Y-16759000D02*
X77599000Y-14522000D01*
X77599000Y-21478000D02*
X77599000Y-19241000D01*
X77639000Y-16759000D02*
X77639000Y-14480000D01*
X77639000Y-21520000D02*
X77639000Y-19241000D01*
X77679000Y-16759000D02*
X77679000Y-14439000D01*
X77679000Y-21561000D02*
X77679000Y-19241000D01*
X77719000Y-16759000D02*
X77719000Y-14399000D01*
X77719000Y-21601000D02*
X77719000Y-19241000D01*
X77759000Y-16759000D02*
X77759000Y-14360000D01*
X77759000Y-21640000D02*
X77759000Y-19241000D01*
X77799000Y-16759000D02*
X77799000Y-14321000D01*
X77799000Y-21679000D02*
X77799000Y-19241000D01*
X77839000Y-16759000D02*
X77839000Y-14284000D01*
X77839000Y-21716000D02*
X77839000Y-19241000D01*
X77879000Y-16759000D02*
X77879000Y-14247000D01*
X77879000Y-21753000D02*
X77879000Y-19241000D01*
X77919000Y-16759000D02*
X77919000Y-14211000D01*
X77919000Y-21789000D02*
X77919000Y-19241000D01*
X77959000Y-16759000D02*
X77959000Y-14176000D01*
X77959000Y-21824000D02*
X77959000Y-19241000D01*
X77999000Y-16759000D02*
X77999000Y-14142000D01*
X77999000Y-21858000D02*
X77999000Y-19241000D01*
X78039000Y-16759000D02*
X78039000Y-14108000D01*
X78039000Y-21892000D02*
X78039000Y-19241000D01*
X78079000Y-16759000D02*
X78079000Y-14075000D01*
X78079000Y-21925000D02*
X78079000Y-19241000D01*
X78119000Y-16759000D02*
X78119000Y-14043000D01*
X78119000Y-21957000D02*
X78119000Y-19241000D01*
X78159000Y-16759000D02*
X78159000Y-14011000D01*
X78159000Y-21989000D02*
X78159000Y-19241000D01*
X78199000Y-16759000D02*
X78199000Y-13980000D01*
X78199000Y-22020000D02*
X78199000Y-19241000D01*
X78239000Y-16759000D02*
X78239000Y-13950000D01*
X78239000Y-22050000D02*
X78239000Y-19241000D01*
X78279000Y-16759000D02*
X78279000Y-13920000D01*
X78279000Y-22080000D02*
X78279000Y-19241000D01*
X78319000Y-16759000D02*
X78319000Y-13890000D01*
X78319000Y-22110000D02*
X78319000Y-19241000D01*
X78359000Y-16759000D02*
X78359000Y-13862000D01*
X78359000Y-22138000D02*
X78359000Y-19241000D01*
X78399000Y-16759000D02*
X78399000Y-13834000D01*
X78399000Y-22166000D02*
X78399000Y-19241000D01*
X78439000Y-16759000D02*
X78439000Y-13806000D01*
X78439000Y-22194000D02*
X78439000Y-19241000D01*
X78479000Y-16759000D02*
X78479000Y-13779000D01*
X78479000Y-22221000D02*
X78479000Y-19241000D01*
X78519000Y-16759000D02*
X78519000Y-13753000D01*
X78519000Y-22247000D02*
X78519000Y-19241000D01*
X78559000Y-16759000D02*
X78559000Y-13727000D01*
X78559000Y-22273000D02*
X78559000Y-19241000D01*
X78599000Y-16759000D02*
X78599000Y-13702000D01*
X78599000Y-22298000D02*
X78599000Y-19241000D01*
X78639000Y-16759000D02*
X78639000Y-13677000D01*
X78639000Y-22323000D02*
X78639000Y-19241000D01*
X78679000Y-16759000D02*
X78679000Y-13653000D01*
X78679000Y-22347000D02*
X78679000Y-19241000D01*
X78719000Y-16759000D02*
X78719000Y-13629000D01*
X78719000Y-22371000D02*
X78719000Y-19241000D01*
X78759000Y-16759000D02*
X78759000Y-13605000D01*
X78759000Y-22395000D02*
X78759000Y-19241000D01*
X78799000Y-16759000D02*
X78799000Y-13583000D01*
X78799000Y-22417000D02*
X78799000Y-19241000D01*
X78839000Y-16759000D02*
X78839000Y-13560000D01*
X78839000Y-22440000D02*
X78839000Y-19241000D01*
X78879000Y-16759000D02*
X78879000Y-13538000D01*
X78879000Y-22462000D02*
X78879000Y-19241000D01*
X78919000Y-16759000D02*
X78919000Y-13517000D01*
X78919000Y-22483000D02*
X78919000Y-19241000D01*
X78959000Y-16759000D02*
X78959000Y-13496000D01*
X78959000Y-22504000D02*
X78959000Y-19241000D01*
X78999000Y-16759000D02*
X78999000Y-13475000D01*
X78999000Y-22525000D02*
X78999000Y-19241000D01*
X79039000Y-16759000D02*
X79039000Y-13455000D01*
X79039000Y-22545000D02*
X79039000Y-19241000D01*
X79079000Y-16759000D02*
X79079000Y-13436000D01*
X79079000Y-22564000D02*
X79079000Y-19241000D01*
X79119000Y-16759000D02*
X79119000Y-13416000D01*
X79119000Y-22584000D02*
X79119000Y-19241000D01*
X79159000Y-16759000D02*
X79159000Y-13397000D01*
X79159000Y-22603000D02*
X79159000Y-19241000D01*
X79199000Y-16759000D02*
X79199000Y-13379000D01*
X79199000Y-22621000D02*
X79199000Y-19241000D01*
X79239000Y-16759000D02*
X79239000Y-13361000D01*
X79239000Y-22639000D02*
X79239000Y-19241000D01*
X79279000Y-16759000D02*
X79279000Y-13343000D01*
X79279000Y-22657000D02*
X79279000Y-19241000D01*
X79319000Y-16759000D02*
X79319000Y-13326000D01*
X79319000Y-22674000D02*
X79319000Y-19241000D01*
X79359000Y-16759000D02*
X79359000Y-13310000D01*
X79359000Y-22690000D02*
X79359000Y-19241000D01*
X79399000Y-16759000D02*
X79399000Y-13293000D01*
X79399000Y-22707000D02*
X79399000Y-19241000D01*
X79439000Y-16759000D02*
X79439000Y-13277000D01*
X79439000Y-22723000D02*
X79439000Y-19241000D01*
X79479000Y-16759000D02*
X79479000Y-13262000D01*
X79479000Y-22738000D02*
X79479000Y-19241000D01*
X79519000Y-16759000D02*
X79519000Y-13246000D01*
X79519000Y-22754000D02*
X79519000Y-19241000D01*
X79559000Y-16759000D02*
X79559000Y-13232000D01*
X79559000Y-22768000D02*
X79559000Y-19241000D01*
X79599000Y-16759000D02*
X79599000Y-13217000D01*
X79599000Y-22783000D02*
X79599000Y-19241000D01*
X79639000Y-16759000D02*
X79639000Y-13203000D01*
X79639000Y-22797000D02*
X79639000Y-19241000D01*
X79679000Y-16759000D02*
X79679000Y-13189000D01*
X79679000Y-22811000D02*
X79679000Y-19241000D01*
X79719000Y-16759000D02*
X79719000Y-13176000D01*
X79719000Y-22824000D02*
X79719000Y-19241000D01*
X79759000Y-16759000D02*
X79759000Y-13163000D01*
X79759000Y-22837000D02*
X79759000Y-19241000D01*
X79799000Y-16759000D02*
X79799000Y-13150000D01*
X79799000Y-22850000D02*
X79799000Y-19241000D01*
X79839000Y-16759000D02*
X79839000Y-13138000D01*
X79839000Y-22862000D02*
X79839000Y-19241000D01*
X79879000Y-16759000D02*
X79879000Y-13126000D01*
X79879000Y-22874000D02*
X79879000Y-19241000D01*
X79919000Y-16759000D02*
X79919000Y-13115000D01*
X79919000Y-22885000D02*
X79919000Y-19241000D01*
X79959000Y-16759000D02*
X79959000Y-13103000D01*
X79959000Y-22897000D02*
X79959000Y-19241000D01*
X79999000Y-16759000D02*
X79999000Y-13093000D01*
X79999000Y-22907000D02*
X79999000Y-19241000D01*
X80039000Y-16759000D02*
X80039000Y-13082000D01*
X80039000Y-22918000D02*
X80039000Y-19241000D01*
X80079000Y-22928000D02*
X80079000Y-13072000D01*
X80119000Y-22938000D02*
X80119000Y-13062000D01*
X80159000Y-22947000D02*
X80159000Y-13053000D01*
X80199000Y-22956000D02*
X80199000Y-13044000D01*
X80239000Y-22965000D02*
X80239000Y-13035000D01*
X80279000Y-22974000D02*
X80279000Y-13026000D01*
X80319000Y-22982000D02*
X80319000Y-13018000D01*
X80359000Y-22990000D02*
X80359000Y-13010000D01*
X80399000Y-22997000D02*
X80399000Y-13003000D01*
X80439000Y-23004000D02*
X80439000Y-12996000D01*
X80479000Y-23011000D02*
X80479000Y-12989000D01*
X80519000Y-23018000D02*
X80519000Y-12982000D01*
X80559000Y-23024000D02*
X80559000Y-12976000D01*
X80599000Y-23030000D02*
X80599000Y-12970000D01*
X80640000Y-23035000D02*
X80640000Y-12965000D01*
X80680000Y-23040000D02*
X80680000Y-12960000D01*
X80720000Y-23045000D02*
X80720000Y-12955000D01*
X80760000Y-23050000D02*
X80760000Y-12950000D01*
X80800000Y-23054000D02*
X80800000Y-12946000D01*
X80840000Y-23058000D02*
X80840000Y-12942000D01*
X80880000Y-23062000D02*
X80880000Y-12938000D01*
X80920000Y-23065000D02*
X80920000Y-12935000D01*
X80960000Y-23068000D02*
X80960000Y-12932000D01*
X81000000Y-23070000D02*
X81000000Y-12930000D01*
X81040000Y-23073000D02*
X81040000Y-12927000D01*
X81080000Y-23075000D02*
X81080000Y-12925000D01*
X81120000Y-23077000D02*
X81120000Y-12923000D01*
X81160000Y-23078000D02*
X81160000Y-12922000D01*
X81200000Y-23079000D02*
X81200000Y-12921000D01*
X81240000Y-23080000D02*
X81240000Y-12920000D01*
X81280000Y-23080000D02*
X81280000Y-12920000D01*
X81320000Y-23080000D02*
X81320000Y-12920000D01*
X86440000Y-18000000D02*
G75*
G03*
X86440000Y-18000000I-5120000J0D01*
G01*
X74234646Y-21375000D02*
X74234646Y-20375000D01*
X74734646Y-20875000D02*
X73734646Y-20875000D01*
X64174000Y-18599000D02*
X64174000Y-17401000D01*
X64214000Y-18862000D02*
X64214000Y-17138000D01*
X64254000Y-19062000D02*
X64254000Y-16938000D01*
X64294000Y-19230000D02*
X64294000Y-16770000D01*
X64334000Y-19378000D02*
X64334000Y-16622000D01*
X64374000Y-19510000D02*
X64374000Y-16490000D01*
X64414000Y-19630000D02*
X64414000Y-16370000D01*
X64454000Y-19742000D02*
X64454000Y-16258000D01*
X64494000Y-19846000D02*
X64494000Y-16154000D01*
X64534000Y-19944000D02*
X64534000Y-16056000D01*
X64574000Y-20037000D02*
X64574000Y-15963000D01*
X64614000Y-20125000D02*
X64614000Y-15875000D01*
X64654000Y-20209000D02*
X64654000Y-15791000D01*
X64694000Y-20289000D02*
X64694000Y-15711000D01*
X64734000Y-20365000D02*
X64734000Y-15635000D01*
X64774000Y-20439000D02*
X64774000Y-15561000D01*
X64814000Y-20510000D02*
X64814000Y-15490000D01*
X64854000Y-20579000D02*
X64854000Y-15421000D01*
X64894000Y-20645000D02*
X64894000Y-15355000D01*
X64934000Y-20709000D02*
X64934000Y-15291000D01*
X64974000Y-20770000D02*
X64974000Y-15230000D01*
X65014000Y-20830000D02*
X65014000Y-15170000D01*
X65054000Y-20889000D02*
X65054000Y-15111000D01*
X65094000Y-20945000D02*
X65094000Y-15055000D01*
X65134000Y-21000000D02*
X65134000Y-15000000D01*
X65174000Y-21054000D02*
X65174000Y-14946000D01*
X65214000Y-21106000D02*
X65214000Y-14894000D01*
X65254000Y-21156000D02*
X65254000Y-14844000D01*
X65294000Y-21206000D02*
X65294000Y-14794000D01*
X65334000Y-21254000D02*
X65334000Y-14746000D01*
X65374000Y-21301000D02*
X65374000Y-14699000D01*
X65414000Y-21347000D02*
X65414000Y-14653000D01*
X65454000Y-21392000D02*
X65454000Y-14608000D01*
X65494000Y-21436000D02*
X65494000Y-14564000D01*
X65534000Y-16759000D02*
X65534000Y-14522000D01*
X65534000Y-21478000D02*
X65534000Y-19241000D01*
X65574000Y-16759000D02*
X65574000Y-14480000D01*
X65574000Y-21520000D02*
X65574000Y-19241000D01*
X65614000Y-16759000D02*
X65614000Y-14439000D01*
X65614000Y-21561000D02*
X65614000Y-19241000D01*
X65654000Y-16759000D02*
X65654000Y-14399000D01*
X65654000Y-21601000D02*
X65654000Y-19241000D01*
X65694000Y-16759000D02*
X65694000Y-14360000D01*
X65694000Y-21640000D02*
X65694000Y-19241000D01*
X65734000Y-16759000D02*
X65734000Y-14321000D01*
X65734000Y-21679000D02*
X65734000Y-19241000D01*
X65774000Y-16759000D02*
X65774000Y-14284000D01*
X65774000Y-21716000D02*
X65774000Y-19241000D01*
X65814000Y-16759000D02*
X65814000Y-14247000D01*
X65814000Y-21753000D02*
X65814000Y-19241000D01*
X65854000Y-16759000D02*
X65854000Y-14211000D01*
X65854000Y-21789000D02*
X65854000Y-19241000D01*
X65894000Y-16759000D02*
X65894000Y-14176000D01*
X65894000Y-21824000D02*
X65894000Y-19241000D01*
X65934000Y-16759000D02*
X65934000Y-14142000D01*
X65934000Y-21858000D02*
X65934000Y-19241000D01*
X65974000Y-16759000D02*
X65974000Y-14108000D01*
X65974000Y-21892000D02*
X65974000Y-19241000D01*
X66014000Y-16759000D02*
X66014000Y-14075000D01*
X66014000Y-21925000D02*
X66014000Y-19241000D01*
X66054000Y-16759000D02*
X66054000Y-14043000D01*
X66054000Y-21957000D02*
X66054000Y-19241000D01*
X66094000Y-16759000D02*
X66094000Y-14011000D01*
X66094000Y-21989000D02*
X66094000Y-19241000D01*
X66134000Y-16759000D02*
X66134000Y-13980000D01*
X66134000Y-22020000D02*
X66134000Y-19241000D01*
X66174000Y-16759000D02*
X66174000Y-13950000D01*
X66174000Y-22050000D02*
X66174000Y-19241000D01*
X66214000Y-16759000D02*
X66214000Y-13920000D01*
X66214000Y-22080000D02*
X66214000Y-19241000D01*
X66254000Y-16759000D02*
X66254000Y-13890000D01*
X66254000Y-22110000D02*
X66254000Y-19241000D01*
X66294000Y-16759000D02*
X66294000Y-13862000D01*
X66294000Y-22138000D02*
X66294000Y-19241000D01*
X66334000Y-16759000D02*
X66334000Y-13834000D01*
X66334000Y-22166000D02*
X66334000Y-19241000D01*
X66374000Y-16759000D02*
X66374000Y-13806000D01*
X66374000Y-22194000D02*
X66374000Y-19241000D01*
X66414000Y-16759000D02*
X66414000Y-13779000D01*
X66414000Y-22221000D02*
X66414000Y-19241000D01*
X66454000Y-16759000D02*
X66454000Y-13753000D01*
X66454000Y-22247000D02*
X66454000Y-19241000D01*
X66494000Y-16759000D02*
X66494000Y-13727000D01*
X66494000Y-22273000D02*
X66494000Y-19241000D01*
X66534000Y-16759000D02*
X66534000Y-13702000D01*
X66534000Y-22298000D02*
X66534000Y-19241000D01*
X66574000Y-16759000D02*
X66574000Y-13677000D01*
X66574000Y-22323000D02*
X66574000Y-19241000D01*
X66614000Y-16759000D02*
X66614000Y-13653000D01*
X66614000Y-22347000D02*
X66614000Y-19241000D01*
X66654000Y-16759000D02*
X66654000Y-13629000D01*
X66654000Y-22371000D02*
X66654000Y-19241000D01*
X66694000Y-16759000D02*
X66694000Y-13605000D01*
X66694000Y-22395000D02*
X66694000Y-19241000D01*
X66734000Y-16759000D02*
X66734000Y-13583000D01*
X66734000Y-22417000D02*
X66734000Y-19241000D01*
X66774000Y-16759000D02*
X66774000Y-13560000D01*
X66774000Y-22440000D02*
X66774000Y-19241000D01*
X66814000Y-16759000D02*
X66814000Y-13538000D01*
X66814000Y-22462000D02*
X66814000Y-19241000D01*
X66854000Y-16759000D02*
X66854000Y-13517000D01*
X66854000Y-22483000D02*
X66854000Y-19241000D01*
X66894000Y-16759000D02*
X66894000Y-13496000D01*
X66894000Y-22504000D02*
X66894000Y-19241000D01*
X66934000Y-16759000D02*
X66934000Y-13475000D01*
X66934000Y-22525000D02*
X66934000Y-19241000D01*
X66974000Y-16759000D02*
X66974000Y-13455000D01*
X66974000Y-22545000D02*
X66974000Y-19241000D01*
X67014000Y-16759000D02*
X67014000Y-13436000D01*
X67014000Y-22564000D02*
X67014000Y-19241000D01*
X67054000Y-16759000D02*
X67054000Y-13416000D01*
X67054000Y-22584000D02*
X67054000Y-19241000D01*
X67094000Y-16759000D02*
X67094000Y-13397000D01*
X67094000Y-22603000D02*
X67094000Y-19241000D01*
X67134000Y-16759000D02*
X67134000Y-13379000D01*
X67134000Y-22621000D02*
X67134000Y-19241000D01*
X67174000Y-16759000D02*
X67174000Y-13361000D01*
X67174000Y-22639000D02*
X67174000Y-19241000D01*
X67214000Y-16759000D02*
X67214000Y-13343000D01*
X67214000Y-22657000D02*
X67214000Y-19241000D01*
X67254000Y-16759000D02*
X67254000Y-13326000D01*
X67254000Y-22674000D02*
X67254000Y-19241000D01*
X67294000Y-16759000D02*
X67294000Y-13310000D01*
X67294000Y-22690000D02*
X67294000Y-19241000D01*
X67334000Y-16759000D02*
X67334000Y-13293000D01*
X67334000Y-22707000D02*
X67334000Y-19241000D01*
X67374000Y-16759000D02*
X67374000Y-13277000D01*
X67374000Y-22723000D02*
X67374000Y-19241000D01*
X67414000Y-16759000D02*
X67414000Y-13262000D01*
X67414000Y-22738000D02*
X67414000Y-19241000D01*
X67454000Y-16759000D02*
X67454000Y-13246000D01*
X67454000Y-22754000D02*
X67454000Y-19241000D01*
X67494000Y-16759000D02*
X67494000Y-13232000D01*
X67494000Y-22768000D02*
X67494000Y-19241000D01*
X67534000Y-16759000D02*
X67534000Y-13217000D01*
X67534000Y-22783000D02*
X67534000Y-19241000D01*
X67574000Y-16759000D02*
X67574000Y-13203000D01*
X67574000Y-22797000D02*
X67574000Y-19241000D01*
X67614000Y-16759000D02*
X67614000Y-13189000D01*
X67614000Y-22811000D02*
X67614000Y-19241000D01*
X67654000Y-16759000D02*
X67654000Y-13176000D01*
X67654000Y-22824000D02*
X67654000Y-19241000D01*
X67694000Y-16759000D02*
X67694000Y-13163000D01*
X67694000Y-22837000D02*
X67694000Y-19241000D01*
X67734000Y-16759000D02*
X67734000Y-13150000D01*
X67734000Y-22850000D02*
X67734000Y-19241000D01*
X67774000Y-16759000D02*
X67774000Y-13138000D01*
X67774000Y-22862000D02*
X67774000Y-19241000D01*
X67814000Y-16759000D02*
X67814000Y-13126000D01*
X67814000Y-22874000D02*
X67814000Y-19241000D01*
X67854000Y-16759000D02*
X67854000Y-13115000D01*
X67854000Y-22885000D02*
X67854000Y-19241000D01*
X67894000Y-16759000D02*
X67894000Y-13103000D01*
X67894000Y-22897000D02*
X67894000Y-19241000D01*
X67934000Y-16759000D02*
X67934000Y-13093000D01*
X67934000Y-22907000D02*
X67934000Y-19241000D01*
X67974000Y-16759000D02*
X67974000Y-13082000D01*
X67974000Y-22918000D02*
X67974000Y-19241000D01*
X68014000Y-22928000D02*
X68014000Y-13072000D01*
X68054000Y-22938000D02*
X68054000Y-13062000D01*
X68094000Y-22947000D02*
X68094000Y-13053000D01*
X68134000Y-22956000D02*
X68134000Y-13044000D01*
X68174000Y-22965000D02*
X68174000Y-13035000D01*
X68214000Y-22974000D02*
X68214000Y-13026000D01*
X68254000Y-22982000D02*
X68254000Y-13018000D01*
X68294000Y-22990000D02*
X68294000Y-13010000D01*
X68334000Y-22997000D02*
X68334000Y-13003000D01*
X68374000Y-23004000D02*
X68374000Y-12996000D01*
X68414000Y-23011000D02*
X68414000Y-12989000D01*
X68454000Y-23018000D02*
X68454000Y-12982000D01*
X68494000Y-23024000D02*
X68494000Y-12976000D01*
X68534000Y-23030000D02*
X68534000Y-12970000D01*
X68575000Y-23035000D02*
X68575000Y-12965000D01*
X68615000Y-23040000D02*
X68615000Y-12960000D01*
X68655000Y-23045000D02*
X68655000Y-12955000D01*
X68695000Y-23050000D02*
X68695000Y-12950000D01*
X68735000Y-23054000D02*
X68735000Y-12946000D01*
X68775000Y-23058000D02*
X68775000Y-12942000D01*
X68815000Y-23062000D02*
X68815000Y-12938000D01*
X68855000Y-23065000D02*
X68855000Y-12935000D01*
X68895000Y-23068000D02*
X68895000Y-12932000D01*
X68935000Y-23070000D02*
X68935000Y-12930000D01*
X68975000Y-23073000D02*
X68975000Y-12927000D01*
X69015000Y-23075000D02*
X69015000Y-12925000D01*
X69055000Y-23077000D02*
X69055000Y-12923000D01*
X69095000Y-23078000D02*
X69095000Y-12922000D01*
X69135000Y-23079000D02*
X69135000Y-12921000D01*
X69175000Y-23080000D02*
X69175000Y-12920000D01*
X69215000Y-23080000D02*
X69215000Y-12920000D01*
X69255000Y-23080000D02*
X69255000Y-12920000D01*
X74375000Y-18000000D02*
G75*
G03*
X74375000Y-18000000I-5120000J0D01*
G01*
X7200000Y-9120000D02*
X7200000Y-1380000D01*
X23440000Y-9120000D02*
X23440000Y-1380000D01*
X7200000Y-9120000D02*
X23440000Y-9120000D01*
X7200000Y-1380000D02*
X23440000Y-1380000D01*
X11700000Y-1380000D02*
X11700000Y3620000D01*
X18940000Y-1380000D02*
X18940000Y3620000D01*
X11700000Y-1380000D02*
X18940000Y-1380000D01*
X11700000Y3620000D02*
X18940000Y3620000D01*
X13200000Y3620000D02*
X13200000Y13620000D01*
X17440000Y3620000D02*
X17440000Y13620000D01*
X13200000Y3620000D02*
X17440000Y3620000D01*
X13200000Y13620000D02*
X17440000Y13620000D01*
X24880000Y-9120000D02*
X24880000Y-1380000D01*
X41120000Y-9120000D02*
X41120000Y-1380000D01*
X24880000Y-9120000D02*
X41120000Y-9120000D01*
X24880000Y-1380000D02*
X41120000Y-1380000D01*
X29380000Y-1380000D02*
X29380000Y3620000D01*
X36620000Y-1380000D02*
X36620000Y3620000D01*
X29380000Y-1380000D02*
X36620000Y-1380000D01*
X29380000Y3620000D02*
X36620000Y3620000D01*
X30880000Y3620000D02*
X30880000Y13620000D01*
X35120000Y3620000D02*
X35120000Y13620000D01*
X30880000Y3620000D02*
X35120000Y3620000D01*
X30880000Y13620000D02*
X35120000Y13620000D01*
X42760000Y-9120000D02*
X42760000Y-1380000D01*
X59000000Y-9120000D02*
X59000000Y-1380000D01*
X42760000Y-9120000D02*
X59000000Y-9120000D01*
X42760000Y-1380000D02*
X59000000Y-1380000D01*
X47260000Y-1380000D02*
X47260000Y3620000D01*
X54500000Y-1380000D02*
X54500000Y3620000D01*
X47260000Y-1380000D02*
X54500000Y-1380000D01*
X47260000Y3620000D02*
X54500000Y3620000D01*
X48760000Y3620000D02*
X48760000Y13620000D01*
X53000000Y3620000D02*
X53000000Y13620000D01*
X48760000Y3620000D02*
X53000000Y3620000D01*
X48760000Y13620000D02*
X53000000Y13620000D01*
X68460000Y-11040000D02*
X68460000Y-11370000D01*
X68460000Y-11370000D02*
X61920000Y-11370000D01*
X61920000Y-11370000D02*
X61920000Y-11040000D01*
X68460000Y-8960000D02*
X68460000Y-8630000D01*
X68460000Y-8630000D02*
X61920000Y-8630000D01*
X61920000Y-8630000D02*
X61920000Y-8960000D01*
X35540000Y-18460000D02*
X35540000Y-18130000D01*
X35540000Y-18130000D02*
X42080000Y-18130000D01*
X42080000Y-18130000D02*
X42080000Y-18460000D01*
X35540000Y-20540000D02*
X35540000Y-20870000D01*
X35540000Y-20870000D02*
X42080000Y-20870000D01*
X42080000Y-20870000D02*
X42080000Y-20540000D01*
X24670000Y-75795000D02*
X24670000Y-75465000D01*
X24670000Y-75465000D02*
X31210000Y-75465000D01*
X31210000Y-75465000D02*
X31210000Y-75795000D01*
X24670000Y-77875000D02*
X24670000Y-78205000D01*
X24670000Y-78205000D02*
X31210000Y-78205000D01*
X31210000Y-78205000D02*
X31210000Y-77875000D01*
X31210000Y-74065000D02*
X31210000Y-74395000D01*
X31210000Y-74395000D02*
X24670000Y-74395000D01*
X24670000Y-74395000D02*
X24670000Y-74065000D01*
X31210000Y-71985000D02*
X31210000Y-71655000D01*
X31210000Y-71655000D02*
X24670000Y-71655000D01*
X24670000Y-71655000D02*
X24670000Y-71985000D01*
X38190000Y-75795000D02*
X38190000Y-75465000D01*
X38190000Y-75465000D02*
X44730000Y-75465000D01*
X44730000Y-75465000D02*
X44730000Y-75795000D01*
X38190000Y-77875000D02*
X38190000Y-78205000D01*
X38190000Y-78205000D02*
X44730000Y-78205000D01*
X44730000Y-78205000D02*
X44730000Y-77875000D01*
X49480000Y-75795000D02*
X49480000Y-75465000D01*
X49480000Y-75465000D02*
X56020000Y-75465000D01*
X56020000Y-75465000D02*
X56020000Y-75795000D01*
X49480000Y-77875000D02*
X49480000Y-78205000D01*
X49480000Y-78205000D02*
X56020000Y-78205000D01*
X56020000Y-78205000D02*
X56020000Y-77875000D01*
X44730000Y-74065000D02*
X44730000Y-74395000D01*
X44730000Y-74395000D02*
X38190000Y-74395000D01*
X38190000Y-74395000D02*
X38190000Y-74065000D01*
X44730000Y-71985000D02*
X44730000Y-71655000D01*
X44730000Y-71655000D02*
X38190000Y-71655000D01*
X38190000Y-71655000D02*
X38190000Y-71985000D01*
X56020000Y-74065000D02*
X56020000Y-74395000D01*
X56020000Y-74395000D02*
X49480000Y-74395000D01*
X49480000Y-74395000D02*
X49480000Y-74065000D01*
X56020000Y-71985000D02*
X56020000Y-71655000D01*
X56020000Y-71655000D02*
X49480000Y-71655000D01*
X49480000Y-71655000D02*
X49480000Y-71985000D01*
X61770000Y-75960000D02*
X61770000Y-75630000D01*
X61770000Y-75630000D02*
X68310000Y-75630000D01*
X68310000Y-75630000D02*
X68310000Y-75960000D01*
X61770000Y-78040000D02*
X61770000Y-78370000D01*
X61770000Y-78370000D02*
X68310000Y-78370000D01*
X68310000Y-78370000D02*
X68310000Y-78040000D01*
X74540000Y-75960000D02*
X74540000Y-75630000D01*
X74540000Y-75630000D02*
X81080000Y-75630000D01*
X81080000Y-75630000D02*
X81080000Y-75960000D01*
X74540000Y-78040000D02*
X74540000Y-78370000D01*
X74540000Y-78370000D02*
X81080000Y-78370000D01*
X81080000Y-78370000D02*
X81080000Y-78040000D01*
X68270000Y-74065000D02*
X68270000Y-74395000D01*
X68270000Y-74395000D02*
X61730000Y-74395000D01*
X61730000Y-74395000D02*
X61730000Y-74065000D01*
X68270000Y-71985000D02*
X68270000Y-71655000D01*
X68270000Y-71655000D02*
X61730000Y-71655000D01*
X61730000Y-71655000D02*
X61730000Y-71985000D01*
X80930000Y-74040000D02*
X80930000Y-74370000D01*
X80930000Y-74370000D02*
X74390000Y-74370000D01*
X74390000Y-74370000D02*
X74390000Y-74040000D01*
X80930000Y-71960000D02*
X80930000Y-71630000D01*
X80930000Y-71630000D02*
X74390000Y-71630000D01*
X74390000Y-71630000D02*
X74390000Y-71960000D01*
X33420000Y-12605000D02*
X43660000Y-12605000D01*
X33420000Y-17246000D02*
X43660000Y-17246000D01*
X33420000Y-12605000D02*
X33420000Y-17246000D01*
X43660000Y-12605000D02*
X43660000Y-17246000D01*
X33420000Y-14115000D02*
X43660000Y-14115000D01*
X36690000Y-12605000D02*
X36690000Y-14115000D01*
X40391000Y-12605000D02*
X40391000Y-14115000D01*
X20915000Y-79650000D02*
X31155000Y-79650000D01*
X20915000Y-84291000D02*
X31155000Y-84291000D01*
X20915000Y-79650000D02*
X20915000Y-84291000D01*
X31155000Y-79650000D02*
X31155000Y-84291000D01*
X20915000Y-81160000D02*
X31155000Y-81160000D01*
X24185000Y-79650000D02*
X24185000Y-81160000D01*
X27886000Y-79650000D02*
X27886000Y-81160000D01*
X33860000Y-79650000D02*
X44100000Y-79650000D01*
X33860000Y-84291000D02*
X44100000Y-84291000D01*
X33860000Y-79650000D02*
X33860000Y-84291000D01*
X44100000Y-79650000D02*
X44100000Y-84291000D01*
X33860000Y-81160000D02*
X44100000Y-81160000D01*
X37130000Y-79650000D02*
X37130000Y-81160000D01*
X40831000Y-79650000D02*
X40831000Y-81160000D01*
X46800000Y-79650000D02*
X57040000Y-79650000D01*
X46800000Y-84291000D02*
X57040000Y-84291000D01*
X46800000Y-79650000D02*
X46800000Y-84291000D01*
X57040000Y-79650000D02*
X57040000Y-84291000D01*
X46800000Y-81160000D02*
X57040000Y-81160000D01*
X50070000Y-79650000D02*
X50070000Y-81160000D01*
X53771000Y-79650000D02*
X53771000Y-81160000D01*
X59650000Y-79650000D02*
X69890000Y-79650000D01*
X59650000Y-84291000D02*
X69890000Y-84291000D01*
X59650000Y-79650000D02*
X59650000Y-84291000D01*
X69890000Y-79650000D02*
X69890000Y-84291000D01*
X59650000Y-81160000D02*
X69890000Y-81160000D01*
X62920000Y-79650000D02*
X62920000Y-81160000D01*
X66621000Y-79650000D02*
X66621000Y-81160000D01*
X72540000Y-79650000D02*
X82780000Y-79650000D01*
X72540000Y-84291000D02*
X82780000Y-84291000D01*
X72540000Y-79650000D02*
X72540000Y-84291000D01*
X82780000Y-79650000D02*
X82780000Y-84291000D01*
X72540000Y-81160000D02*
X82780000Y-81160000D01*
X75810000Y-79650000D02*
X75810000Y-81160000D01*
X79511000Y-79650000D02*
X79511000Y-81160000D01*
X58730000Y-17000000D02*
G75*
G03*
X58730000Y-17000000I-6230000J0D01*
G01*
X58900000Y-15500001D02*
G75*
G02*
X58900000Y-18500000I-6400000J-1499999D01*
G01*
X4860000Y-60640000D02*
X85140000Y-60640000D01*
X85140000Y-60640000D02*
X85140000Y-24360000D01*
X85140000Y-24360000D02*
X5660000Y-24360000D01*
X4860000Y-24360000D02*
X4860000Y-60640000D01*
X4870000Y-24360000D02*
X5660000Y-24360000D01*
X11500000Y-24000000D02*
X14500000Y-24000000D01*
X13200000Y-35000000D02*
X76700000Y-35000000D01*
X12700280Y-49499320D02*
X12700280Y-35500000D01*
X76700660Y-50000000D02*
X13200000Y-50000000D01*
X77200000Y-35500000D02*
X77200000Y-49500000D01*
X77200000Y-35500000D02*
G75*
G03*
X76700000Y-35000000I-500000J0D01*
G01*
X76700660Y-49999700D02*
G75*
G03*
X77201040Y-49499320I0J500380D01*
G01*
X12700280Y-49499320D02*
G75*
G03*
X13200660Y-49999700I500380J0D01*
G01*
X13200660Y-34998460D02*
G75*
G03*
X12700280Y-35498840I0J-500380D01*
G01*
X8000000Y-30000000D02*
X81000000Y-30000000D01*
X81000000Y-30000000D02*
X81000000Y-55000000D01*
X81000000Y-55000000D02*
X8000000Y-55000000D01*
X8000000Y-55000000D02*
X8000000Y-30000000D01*
X23315000Y-85660000D02*
X23315000Y-85530000D01*
X23315000Y-85530000D02*
X28755000Y-85530000D01*
X28755000Y-85530000D02*
X28755000Y-85660000D01*
X23315000Y-88340000D02*
X23315000Y-88470000D01*
X23315000Y-88470000D02*
X28755000Y-88470000D01*
X28755000Y-88470000D02*
X28755000Y-88340000D01*
X24215000Y-85530000D02*
X24215000Y-88470000D01*
X24335000Y-85530000D02*
X24335000Y-88470000D01*
X24095000Y-85530000D02*
X24095000Y-88470000D01*
X32200000Y-67310462D02*
G75*
G03*
X26650000Y-65765170I-2990000J462D01*
G01*
X32200000Y-67309538D02*
G75*
G02*
X26650000Y-68854830I-2990000J-462D01*
G01*
X31710000Y-67310000D02*
G75*
G03*
X31710000Y-67310000I-2500000J0D01*
G01*
X26650000Y-65765000D02*
X26650000Y-68855000D01*
X36610000Y-85660000D02*
X36610000Y-85530000D01*
X36610000Y-85530000D02*
X42050000Y-85530000D01*
X42050000Y-85530000D02*
X42050000Y-85660000D01*
X36610000Y-88340000D02*
X36610000Y-88470000D01*
X36610000Y-88470000D02*
X42050000Y-88470000D01*
X42050000Y-88470000D02*
X42050000Y-88340000D01*
X37510000Y-85530000D02*
X37510000Y-88470000D01*
X37630000Y-85530000D02*
X37630000Y-88470000D01*
X37390000Y-85530000D02*
X37390000Y-88470000D01*
X49470000Y-85660000D02*
X49470000Y-85530000D01*
X49470000Y-85530000D02*
X54910000Y-85530000D01*
X54910000Y-85530000D02*
X54910000Y-85660000D01*
X49470000Y-88340000D02*
X49470000Y-88470000D01*
X49470000Y-88470000D02*
X54910000Y-88470000D01*
X54910000Y-88470000D02*
X54910000Y-88340000D01*
X50370000Y-85530000D02*
X50370000Y-88470000D01*
X50490000Y-85530000D02*
X50490000Y-88470000D01*
X50250000Y-85530000D02*
X50250000Y-88470000D01*
X43630000Y-67310462D02*
G75*
G03*
X38080000Y-65765170I-2990000J462D01*
G01*
X43630000Y-67309538D02*
G75*
G02*
X38080000Y-68854830I-2990000J-462D01*
G01*
X43140000Y-67310000D02*
G75*
G03*
X43140000Y-67310000I-2500000J0D01*
G01*
X38080000Y-65765000D02*
X38080000Y-68855000D01*
X55060000Y-67310462D02*
G75*
G03*
X49510000Y-65765170I-2990000J462D01*
G01*
X55060000Y-67309538D02*
G75*
G02*
X49510000Y-68854830I-2990000J-462D01*
G01*
X54570000Y-67310000D02*
G75*
G03*
X54570000Y-67310000I-2500000J0D01*
G01*
X49510000Y-65765000D02*
X49510000Y-68855000D01*
X62320000Y-85660000D02*
X62320000Y-85530000D01*
X62320000Y-85530000D02*
X67760000Y-85530000D01*
X67760000Y-85530000D02*
X67760000Y-85660000D01*
X62320000Y-88340000D02*
X62320000Y-88470000D01*
X62320000Y-88470000D02*
X67760000Y-88470000D01*
X67760000Y-88470000D02*
X67760000Y-88340000D01*
X63220000Y-85530000D02*
X63220000Y-88470000D01*
X63340000Y-85530000D02*
X63340000Y-88470000D01*
X63100000Y-85530000D02*
X63100000Y-88470000D01*
X74940000Y-85660000D02*
X74940000Y-85530000D01*
X74940000Y-85530000D02*
X80380000Y-85530000D01*
X80380000Y-85530000D02*
X80380000Y-85660000D01*
X74940000Y-88340000D02*
X74940000Y-88470000D01*
X74940000Y-88470000D02*
X80380000Y-88470000D01*
X80380000Y-88470000D02*
X80380000Y-88340000D01*
X75840000Y-85530000D02*
X75840000Y-88470000D01*
X75960000Y-85530000D02*
X75960000Y-88470000D01*
X75720000Y-85530000D02*
X75720000Y-88470000D01*
X67125000Y-67310462D02*
G75*
G03*
X61575000Y-65765170I-2990000J462D01*
G01*
X67125000Y-67309538D02*
G75*
G02*
X61575000Y-68854830I-2990000J-462D01*
G01*
X66635000Y-67310000D02*
G75*
G03*
X66635000Y-67310000I-2500000J0D01*
G01*
X61575000Y-65765000D02*
X61575000Y-68855000D01*
X82365000Y-67310462D02*
G75*
G03*
X76815000Y-65765170I-2990000J462D01*
G01*
X82365000Y-67309538D02*
G75*
G02*
X76815000Y-68854830I-2990000J-462D01*
G01*
X81875000Y-67310000D02*
G75*
G03*
X81875000Y-67310000I-2500000J0D01*
G01*
X76815000Y-65765000D02*
X76815000Y-68855000D01*
D10*
X4746666Y-90452380D02*
X4746666Y-91166666D01*
X4699047Y-91309523D01*
X4603809Y-91404761D01*
X4460952Y-91452380D01*
X4365714Y-91452380D01*
X5270476Y-91452380D02*
X5460952Y-91452380D01*
X5556190Y-91404761D01*
X5603809Y-91357142D01*
X5699047Y-91214285D01*
X5746666Y-91023809D01*
X5746666Y-90642857D01*
X5699047Y-90547619D01*
X5651428Y-90500000D01*
X5556190Y-90452380D01*
X5365714Y-90452380D01*
X5270476Y-90500000D01*
X5222857Y-90547619D01*
X5175238Y-90642857D01*
X5175238Y-90880952D01*
X5222857Y-90976190D01*
X5270476Y-91023809D01*
X5365714Y-91071428D01*
X5556190Y-91071428D01*
X5651428Y-91023809D01*
X5699047Y-90976190D01*
X5746666Y-90880952D01*
X18586666Y-90452380D02*
X18586666Y-91166666D01*
X18539047Y-91309523D01*
X18443809Y-91404761D01*
X18300952Y-91452380D01*
X18205714Y-91452380D01*
X19205714Y-90880952D02*
X19110476Y-90833333D01*
X19062857Y-90785714D01*
X19015238Y-90690476D01*
X19015238Y-90642857D01*
X19062857Y-90547619D01*
X19110476Y-90500000D01*
X19205714Y-90452380D01*
X19396190Y-90452380D01*
X19491428Y-90500000D01*
X19539047Y-90547619D01*
X19586666Y-90642857D01*
X19586666Y-90690476D01*
X19539047Y-90785714D01*
X19491428Y-90833333D01*
X19396190Y-90880952D01*
X19205714Y-90880952D01*
X19110476Y-90928571D01*
X19062857Y-90976190D01*
X19015238Y-91071428D01*
X19015238Y-91261904D01*
X19062857Y-91357142D01*
X19110476Y-91404761D01*
X19205714Y-91452380D01*
X19396190Y-91452380D01*
X19491428Y-91404761D01*
X19539047Y-91357142D01*
X19586666Y-91261904D01*
X19586666Y-91071428D01*
X19539047Y-90976190D01*
X19491428Y-90928571D01*
X19396190Y-90880952D01*
X31586666Y-90452380D02*
X31586666Y-91166666D01*
X31539047Y-91309523D01*
X31443809Y-91404761D01*
X31300952Y-91452380D01*
X31205714Y-91452380D01*
X31967619Y-90452380D02*
X32634285Y-90452380D01*
X32205714Y-91452380D01*
X44586666Y-90452380D02*
X44586666Y-91166666D01*
X44539047Y-91309523D01*
X44443809Y-91404761D01*
X44300952Y-91452380D01*
X44205714Y-91452380D01*
X45491428Y-90452380D02*
X45300952Y-90452380D01*
X45205714Y-90500000D01*
X45158095Y-90547619D01*
X45062857Y-90690476D01*
X45015238Y-90880952D01*
X45015238Y-91261904D01*
X45062857Y-91357142D01*
X45110476Y-91404761D01*
X45205714Y-91452380D01*
X45396190Y-91452380D01*
X45491428Y-91404761D01*
X45539047Y-91357142D01*
X45586666Y-91261904D01*
X45586666Y-91023809D01*
X45539047Y-90928571D01*
X45491428Y-90880952D01*
X45396190Y-90833333D01*
X45205714Y-90833333D01*
X45110476Y-90880952D01*
X45062857Y-90928571D01*
X45015238Y-91023809D01*
X57586666Y-90452380D02*
X57586666Y-91166666D01*
X57539047Y-91309523D01*
X57443809Y-91404761D01*
X57300952Y-91452380D01*
X57205714Y-91452380D01*
X58539047Y-90452380D02*
X58062857Y-90452380D01*
X58015238Y-90928571D01*
X58062857Y-90880952D01*
X58158095Y-90833333D01*
X58396190Y-90833333D01*
X58491428Y-90880952D01*
X58539047Y-90928571D01*
X58586666Y-91023809D01*
X58586666Y-91261904D01*
X58539047Y-91357142D01*
X58491428Y-91404761D01*
X58396190Y-91452380D01*
X58158095Y-91452380D01*
X58062857Y-91404761D01*
X58015238Y-91357142D01*
X70666666Y-90452380D02*
X70666666Y-91166666D01*
X70619047Y-91309523D01*
X70523809Y-91404761D01*
X70380952Y-91452380D01*
X70285714Y-91452380D01*
X71571428Y-90785714D02*
X71571428Y-91452380D01*
X71333333Y-90404761D02*
X71095238Y-91119047D01*
X71714285Y-91119047D01*
X9583333Y-18757142D02*
X9535714Y-18804761D01*
X9392857Y-18852380D01*
X9297619Y-18852380D01*
X9154761Y-18804761D01*
X9059523Y-18709523D01*
X9011904Y-18614285D01*
X8964285Y-18423809D01*
X8964285Y-18280952D01*
X9011904Y-18090476D01*
X9059523Y-17995238D01*
X9154761Y-17900000D01*
X9297619Y-17852380D01*
X9392857Y-17852380D01*
X9535714Y-17900000D01*
X9583333Y-17947619D01*
X10488095Y-17852380D02*
X10011904Y-17852380D01*
X9964285Y-18328571D01*
X10011904Y-18280952D01*
X10107142Y-18233333D01*
X10345238Y-18233333D01*
X10440476Y-18280952D01*
X10488095Y-18328571D01*
X10535714Y-18423809D01*
X10535714Y-18661904D01*
X10488095Y-18757142D01*
X10440476Y-18804761D01*
X10345238Y-18852380D01*
X10107142Y-18852380D01*
X10011904Y-18804761D01*
X9964285Y-18757142D01*
X18583333Y-18757142D02*
X18535714Y-18804761D01*
X18392857Y-18852380D01*
X18297619Y-18852380D01*
X18154761Y-18804761D01*
X18059523Y-18709523D01*
X18011904Y-18614285D01*
X17964285Y-18423809D01*
X17964285Y-18280952D01*
X18011904Y-18090476D01*
X18059523Y-17995238D01*
X18154761Y-17900000D01*
X18297619Y-17852380D01*
X18392857Y-17852380D01*
X18535714Y-17900000D01*
X18583333Y-17947619D01*
X18964285Y-17947619D02*
X19011904Y-17900000D01*
X19107142Y-17852380D01*
X19345238Y-17852380D01*
X19440476Y-17900000D01*
X19488095Y-17947619D01*
X19535714Y-18042857D01*
X19535714Y-18138095D01*
X19488095Y-18280952D01*
X18916666Y-18852380D01*
X19535714Y-18852380D01*
X27583333Y-18757142D02*
X27535714Y-18804761D01*
X27392857Y-18852380D01*
X27297619Y-18852380D01*
X27154761Y-18804761D01*
X27059523Y-18709523D01*
X27011904Y-18614285D01*
X26964285Y-18423809D01*
X26964285Y-18280952D01*
X27011904Y-18090476D01*
X27059523Y-17995238D01*
X27154761Y-17900000D01*
X27297619Y-17852380D01*
X27392857Y-17852380D01*
X27535714Y-17900000D01*
X27583333Y-17947619D01*
X28535714Y-18852380D02*
X27964285Y-18852380D01*
X28250000Y-18852380D02*
X28250000Y-17852380D01*
X28154761Y-17995238D01*
X28059523Y-18090476D01*
X27964285Y-18138095D01*
X71421666Y-1357380D02*
X71421666Y-2071666D01*
X71374047Y-2214523D01*
X71278809Y-2309761D01*
X71135952Y-2357380D01*
X71040714Y-2357380D01*
X72421666Y-2357380D02*
X71850238Y-2357380D01*
X72135952Y-2357380D02*
X72135952Y-1357380D01*
X72040714Y-1500238D01*
X71945476Y-1595476D01*
X71850238Y-1643095D01*
X7347142Y-69667380D02*
X7013809Y-69191190D01*
X6775714Y-69667380D02*
X6775714Y-68667380D01*
X7156666Y-68667380D01*
X7251904Y-68715000D01*
X7299523Y-68762619D01*
X7347142Y-68857857D01*
X7347142Y-69000714D01*
X7299523Y-69095952D01*
X7251904Y-69143571D01*
X7156666Y-69191190D01*
X6775714Y-69191190D01*
X8299523Y-69667380D02*
X7728095Y-69667380D01*
X8013809Y-69667380D02*
X8013809Y-68667380D01*
X7918571Y-68810238D01*
X7823333Y-68905476D01*
X7728095Y-68953095D01*
X8680476Y-68762619D02*
X8728095Y-68715000D01*
X8823333Y-68667380D01*
X9061428Y-68667380D01*
X9156666Y-68715000D01*
X9204285Y-68762619D01*
X9251904Y-68857857D01*
X9251904Y-68953095D01*
X9204285Y-69095952D01*
X8632857Y-69667380D01*
X9251904Y-69667380D01*
X7347142Y-67762380D02*
X7013809Y-67286190D01*
X6775714Y-67762380D02*
X6775714Y-66762380D01*
X7156666Y-66762380D01*
X7251904Y-66810000D01*
X7299523Y-66857619D01*
X7347142Y-66952857D01*
X7347142Y-67095714D01*
X7299523Y-67190952D01*
X7251904Y-67238571D01*
X7156666Y-67286190D01*
X6775714Y-67286190D01*
X8299523Y-67762380D02*
X7728095Y-67762380D01*
X8013809Y-67762380D02*
X8013809Y-66762380D01*
X7918571Y-66905238D01*
X7823333Y-67000476D01*
X7728095Y-67048095D01*
X8918571Y-66762380D02*
X9013809Y-66762380D01*
X9109047Y-66810000D01*
X9156666Y-66857619D01*
X9204285Y-66952857D01*
X9251904Y-67143333D01*
X9251904Y-67381428D01*
X9204285Y-67571904D01*
X9156666Y-67667142D01*
X9109047Y-67714761D01*
X9013809Y-67762380D01*
X8918571Y-67762380D01*
X8823333Y-67714761D01*
X8775714Y-67667142D01*
X8728095Y-67571904D01*
X8680476Y-67381428D01*
X8680476Y-67143333D01*
X8728095Y-66952857D01*
X8775714Y-66857619D01*
X8823333Y-66810000D01*
X8918571Y-66762380D01*
X5619761Y-82462619D02*
X5524523Y-82415000D01*
X5429285Y-82319761D01*
X5286428Y-82176904D01*
X5191190Y-82129285D01*
X5095952Y-82129285D01*
X5143571Y-82367380D02*
X5048333Y-82319761D01*
X4953095Y-82224523D01*
X4905476Y-82034047D01*
X4905476Y-81700714D01*
X4953095Y-81510238D01*
X5048333Y-81415000D01*
X5143571Y-81367380D01*
X5334047Y-81367380D01*
X5429285Y-81415000D01*
X5524523Y-81510238D01*
X5572142Y-81700714D01*
X5572142Y-82034047D01*
X5524523Y-82224523D01*
X5429285Y-82319761D01*
X5334047Y-82367380D01*
X5143571Y-82367380D01*
X6429285Y-81367380D02*
X6238809Y-81367380D01*
X6143571Y-81415000D01*
X6095952Y-81462619D01*
X6000714Y-81605476D01*
X5953095Y-81795952D01*
X5953095Y-82176904D01*
X6000714Y-82272142D01*
X6048333Y-82319761D01*
X6143571Y-82367380D01*
X6334047Y-82367380D01*
X6429285Y-82319761D01*
X6476904Y-82272142D01*
X6524523Y-82176904D01*
X6524523Y-81938809D01*
X6476904Y-81843571D01*
X6429285Y-81795952D01*
X6334047Y-81748333D01*
X6143571Y-81748333D01*
X6048333Y-81795952D01*
X6000714Y-81843571D01*
X5953095Y-81938809D01*
X3865714Y-87447380D02*
X3865714Y-86447380D01*
X4103809Y-86447380D01*
X4246666Y-86495000D01*
X4341904Y-86590238D01*
X4389523Y-86685476D01*
X4437142Y-86875952D01*
X4437142Y-87018809D01*
X4389523Y-87209285D01*
X4341904Y-87304523D01*
X4246666Y-87399761D01*
X4103809Y-87447380D01*
X3865714Y-87447380D01*
X5389523Y-87447380D02*
X4818095Y-87447380D01*
X5103809Y-87447380D02*
X5103809Y-86447380D01*
X5008571Y-86590238D01*
X4913333Y-86685476D01*
X4818095Y-86733095D01*
X5770476Y-86542619D02*
X5818095Y-86495000D01*
X5913333Y-86447380D01*
X6151428Y-86447380D01*
X6246666Y-86495000D01*
X6294285Y-86542619D01*
X6341904Y-86637857D01*
X6341904Y-86733095D01*
X6294285Y-86875952D01*
X5722857Y-87447380D01*
X6341904Y-87447380D01*
X11163095Y-87442380D02*
X11163095Y-86442380D01*
X11734523Y-87442380D02*
X11305952Y-86870952D01*
X11734523Y-86442380D02*
X11163095Y-87013809D01*
X7040714Y-65857380D02*
X7040714Y-64857380D01*
X7278809Y-64857380D01*
X7421666Y-64905000D01*
X7516904Y-65000238D01*
X7564523Y-65095476D01*
X7612142Y-65285952D01*
X7612142Y-65428809D01*
X7564523Y-65619285D01*
X7516904Y-65714523D01*
X7421666Y-65809761D01*
X7278809Y-65857380D01*
X7040714Y-65857380D01*
X8564523Y-65857380D02*
X7993095Y-65857380D01*
X8278809Y-65857380D02*
X8278809Y-64857380D01*
X8183571Y-65000238D01*
X8088333Y-65095476D01*
X7993095Y-65143095D01*
X9183571Y-64857380D02*
X9278809Y-64857380D01*
X9374047Y-64905000D01*
X9421666Y-64952619D01*
X9469285Y-65047857D01*
X9516904Y-65238333D01*
X9516904Y-65476428D01*
X9469285Y-65666904D01*
X9421666Y-65762142D01*
X9374047Y-65809761D01*
X9278809Y-65857380D01*
X9183571Y-65857380D01*
X9088333Y-65809761D01*
X9040714Y-65762142D01*
X8993095Y-65666904D01*
X8945476Y-65476428D01*
X8945476Y-65238333D01*
X8993095Y-65047857D01*
X9040714Y-64952619D01*
X9088333Y-64905000D01*
X9183571Y-64857380D01*
X86378333Y-13692142D02*
X86330714Y-13739761D01*
X86187857Y-13787380D01*
X86092619Y-13787380D01*
X85949761Y-13739761D01*
X85854523Y-13644523D01*
X85806904Y-13549285D01*
X85759285Y-13358809D01*
X85759285Y-13215952D01*
X85806904Y-13025476D01*
X85854523Y-12930238D01*
X85949761Y-12835000D01*
X86092619Y-12787380D01*
X86187857Y-12787380D01*
X86330714Y-12835000D01*
X86378333Y-12882619D01*
X87235476Y-13120714D02*
X87235476Y-13787380D01*
X86997380Y-12739761D02*
X86759285Y-13454047D01*
X87378333Y-13454047D01*
X64088333Y-13692142D02*
X64040714Y-13739761D01*
X63897857Y-13787380D01*
X63802619Y-13787380D01*
X63659761Y-13739761D01*
X63564523Y-13644523D01*
X63516904Y-13549285D01*
X63469285Y-13358809D01*
X63469285Y-13215952D01*
X63516904Y-13025476D01*
X63564523Y-12930238D01*
X63659761Y-12835000D01*
X63802619Y-12787380D01*
X63897857Y-12787380D01*
X64040714Y-12835000D01*
X64088333Y-12882619D01*
X64421666Y-12787380D02*
X65040714Y-12787380D01*
X64707380Y-13168333D01*
X64850238Y-13168333D01*
X64945476Y-13215952D01*
X64993095Y-13263571D01*
X65040714Y-13358809D01*
X65040714Y-13596904D01*
X64993095Y-13692142D01*
X64945476Y-13739761D01*
X64850238Y-13787380D01*
X64564523Y-13787380D01*
X64469285Y-13739761D01*
X64421666Y-13692142D01*
X8929761Y-8072380D02*
X8596428Y-7596190D01*
X8358333Y-8072380D02*
X8358333Y-7072380D01*
X8739285Y-7072380D01*
X8834523Y-7120000D01*
X8882142Y-7167619D01*
X8929761Y-7262857D01*
X8929761Y-7405714D01*
X8882142Y-7500952D01*
X8834523Y-7548571D01*
X8739285Y-7596190D01*
X8358333Y-7596190D01*
X9215476Y-7072380D02*
X9548809Y-8072380D01*
X9882142Y-7072380D01*
X10120238Y-7072380D02*
X10739285Y-7072380D01*
X10405952Y-7453333D01*
X10548809Y-7453333D01*
X10644047Y-7500952D01*
X10691666Y-7548571D01*
X10739285Y-7643809D01*
X10739285Y-7881904D01*
X10691666Y-7977142D01*
X10644047Y-8024761D01*
X10548809Y-8072380D01*
X10263095Y-8072380D01*
X10167857Y-8024761D01*
X10120238Y-7977142D01*
X26709761Y-8072380D02*
X26376428Y-7596190D01*
X26138333Y-8072380D02*
X26138333Y-7072380D01*
X26519285Y-7072380D01*
X26614523Y-7120000D01*
X26662142Y-7167619D01*
X26709761Y-7262857D01*
X26709761Y-7405714D01*
X26662142Y-7500952D01*
X26614523Y-7548571D01*
X26519285Y-7596190D01*
X26138333Y-7596190D01*
X26995476Y-7072380D02*
X27328809Y-8072380D01*
X27662142Y-7072380D01*
X27947857Y-7167619D02*
X27995476Y-7120000D01*
X28090714Y-7072380D01*
X28328809Y-7072380D01*
X28424047Y-7120000D01*
X28471666Y-7167619D01*
X28519285Y-7262857D01*
X28519285Y-7358095D01*
X28471666Y-7500952D01*
X27900238Y-8072380D01*
X28519285Y-8072380D01*
X44489761Y-8072380D02*
X44156428Y-7596190D01*
X43918333Y-8072380D02*
X43918333Y-7072380D01*
X44299285Y-7072380D01*
X44394523Y-7120000D01*
X44442142Y-7167619D01*
X44489761Y-7262857D01*
X44489761Y-7405714D01*
X44442142Y-7500952D01*
X44394523Y-7548571D01*
X44299285Y-7596190D01*
X43918333Y-7596190D01*
X44775476Y-7072380D02*
X45108809Y-8072380D01*
X45442142Y-7072380D01*
X46299285Y-8072380D02*
X45727857Y-8072380D01*
X46013571Y-8072380D02*
X46013571Y-7072380D01*
X45918333Y-7215238D01*
X45823095Y-7310476D01*
X45727857Y-7358095D01*
X64762142Y-8072380D02*
X64428809Y-7596190D01*
X64190714Y-8072380D02*
X64190714Y-7072380D01*
X64571666Y-7072380D01*
X64666904Y-7120000D01*
X64714523Y-7167619D01*
X64762142Y-7262857D01*
X64762142Y-7405714D01*
X64714523Y-7500952D01*
X64666904Y-7548571D01*
X64571666Y-7596190D01*
X64190714Y-7596190D01*
X65714523Y-8072380D02*
X65143095Y-8072380D01*
X65428809Y-8072380D02*
X65428809Y-7072380D01*
X65333571Y-7215238D01*
X65238333Y-7310476D01*
X65143095Y-7358095D01*
X66571666Y-7405714D02*
X66571666Y-8072380D01*
X66333571Y-7024761D02*
X66095476Y-7739047D01*
X66714523Y-7739047D01*
X38092142Y-22677380D02*
X37758809Y-22201190D01*
X37520714Y-22677380D02*
X37520714Y-21677380D01*
X37901666Y-21677380D01*
X37996904Y-21725000D01*
X38044523Y-21772619D01*
X38092142Y-21867857D01*
X38092142Y-22010714D01*
X38044523Y-22105952D01*
X37996904Y-22153571D01*
X37901666Y-22201190D01*
X37520714Y-22201190D01*
X39044523Y-22677380D02*
X38473095Y-22677380D01*
X38758809Y-22677380D02*
X38758809Y-21677380D01*
X38663571Y-21820238D01*
X38568333Y-21915476D01*
X38473095Y-21963095D01*
X39377857Y-21677380D02*
X39996904Y-21677380D01*
X39663571Y-22058333D01*
X39806428Y-22058333D01*
X39901666Y-22105952D01*
X39949285Y-22153571D01*
X39996904Y-22248809D01*
X39996904Y-22486904D01*
X39949285Y-22582142D01*
X39901666Y-22629761D01*
X39806428Y-22677380D01*
X39520714Y-22677380D01*
X39425476Y-22629761D01*
X39377857Y-22582142D01*
X23487142Y-69667380D02*
X23153809Y-69191190D01*
X22915714Y-69667380D02*
X22915714Y-68667380D01*
X23296666Y-68667380D01*
X23391904Y-68715000D01*
X23439523Y-68762619D01*
X23487142Y-68857857D01*
X23487142Y-69000714D01*
X23439523Y-69095952D01*
X23391904Y-69143571D01*
X23296666Y-69191190D01*
X22915714Y-69191190D01*
X24439523Y-69667380D02*
X23868095Y-69667380D01*
X24153809Y-69667380D02*
X24153809Y-68667380D01*
X24058571Y-68810238D01*
X23963333Y-68905476D01*
X23868095Y-68953095D01*
X25391904Y-69667380D02*
X24820476Y-69667380D01*
X25106190Y-69667380D02*
X25106190Y-68667380D01*
X25010952Y-68810238D01*
X24915714Y-68905476D01*
X24820476Y-68953095D01*
X23963333Y-67762380D02*
X23630000Y-67286190D01*
X23391904Y-67762380D02*
X23391904Y-66762380D01*
X23772857Y-66762380D01*
X23868095Y-66810000D01*
X23915714Y-66857619D01*
X23963333Y-66952857D01*
X23963333Y-67095714D01*
X23915714Y-67190952D01*
X23868095Y-67238571D01*
X23772857Y-67286190D01*
X23391904Y-67286190D01*
X24439523Y-67762380D02*
X24630000Y-67762380D01*
X24725238Y-67714761D01*
X24772857Y-67667142D01*
X24868095Y-67524285D01*
X24915714Y-67333809D01*
X24915714Y-66952857D01*
X24868095Y-66857619D01*
X24820476Y-66810000D01*
X24725238Y-66762380D01*
X24534761Y-66762380D01*
X24439523Y-66810000D01*
X24391904Y-66857619D01*
X24344285Y-66952857D01*
X24344285Y-67190952D01*
X24391904Y-67286190D01*
X24439523Y-67333809D01*
X24534761Y-67381428D01*
X24725238Y-67381428D01*
X24820476Y-67333809D01*
X24868095Y-67286190D01*
X24915714Y-67190952D01*
X35393333Y-69667380D02*
X35060000Y-69191190D01*
X34821904Y-69667380D02*
X34821904Y-68667380D01*
X35202857Y-68667380D01*
X35298095Y-68715000D01*
X35345714Y-68762619D01*
X35393333Y-68857857D01*
X35393333Y-69000714D01*
X35345714Y-69095952D01*
X35298095Y-69143571D01*
X35202857Y-69191190D01*
X34821904Y-69191190D01*
X35964761Y-69095952D02*
X35869523Y-69048333D01*
X35821904Y-69000714D01*
X35774285Y-68905476D01*
X35774285Y-68857857D01*
X35821904Y-68762619D01*
X35869523Y-68715000D01*
X35964761Y-68667380D01*
X36155238Y-68667380D01*
X36250476Y-68715000D01*
X36298095Y-68762619D01*
X36345714Y-68857857D01*
X36345714Y-68905476D01*
X36298095Y-69000714D01*
X36250476Y-69048333D01*
X36155238Y-69095952D01*
X35964761Y-69095952D01*
X35869523Y-69143571D01*
X35821904Y-69191190D01*
X35774285Y-69286428D01*
X35774285Y-69476904D01*
X35821904Y-69572142D01*
X35869523Y-69619761D01*
X35964761Y-69667380D01*
X36155238Y-69667380D01*
X36250476Y-69619761D01*
X36298095Y-69572142D01*
X36345714Y-69476904D01*
X36345714Y-69286428D01*
X36298095Y-69191190D01*
X36250476Y-69143571D01*
X36155238Y-69095952D01*
X47458333Y-67762380D02*
X47125000Y-67286190D01*
X46886904Y-67762380D02*
X46886904Y-66762380D01*
X47267857Y-66762380D01*
X47363095Y-66810000D01*
X47410714Y-66857619D01*
X47458333Y-66952857D01*
X47458333Y-67095714D01*
X47410714Y-67190952D01*
X47363095Y-67238571D01*
X47267857Y-67286190D01*
X46886904Y-67286190D01*
X47791666Y-66762380D02*
X48458333Y-66762380D01*
X48029761Y-67762380D01*
X35393333Y-67761918D02*
X35060000Y-67285728D01*
X34821904Y-67761918D02*
X34821904Y-66761918D01*
X35202857Y-66761918D01*
X35298095Y-66809538D01*
X35345714Y-66857157D01*
X35393333Y-66952395D01*
X35393333Y-67095252D01*
X35345714Y-67190490D01*
X35298095Y-67238109D01*
X35202857Y-67285728D01*
X34821904Y-67285728D01*
X36250476Y-66761918D02*
X36060000Y-66761918D01*
X35964761Y-66809538D01*
X35917142Y-66857157D01*
X35821904Y-67000014D01*
X35774285Y-67190490D01*
X35774285Y-67571442D01*
X35821904Y-67666680D01*
X35869523Y-67714299D01*
X35964761Y-67761918D01*
X36155238Y-67761918D01*
X36250476Y-67714299D01*
X36298095Y-67666680D01*
X36345714Y-67571442D01*
X36345714Y-67333347D01*
X36298095Y-67238109D01*
X36250476Y-67190490D01*
X36155238Y-67142871D01*
X35964761Y-67142871D01*
X35869523Y-67190490D01*
X35821904Y-67238109D01*
X35774285Y-67333347D01*
X47458333Y-69667380D02*
X47125000Y-69191190D01*
X46886904Y-69667380D02*
X46886904Y-68667380D01*
X47267857Y-68667380D01*
X47363095Y-68715000D01*
X47410714Y-68762619D01*
X47458333Y-68857857D01*
X47458333Y-69000714D01*
X47410714Y-69095952D01*
X47363095Y-69143571D01*
X47267857Y-69191190D01*
X46886904Y-69191190D01*
X48363095Y-68667380D02*
X47886904Y-68667380D01*
X47839285Y-69143571D01*
X47886904Y-69095952D01*
X47982142Y-69048333D01*
X48220238Y-69048333D01*
X48315476Y-69095952D01*
X48363095Y-69143571D01*
X48410714Y-69238809D01*
X48410714Y-69476904D01*
X48363095Y-69572142D01*
X48315476Y-69619761D01*
X48220238Y-69667380D01*
X47982142Y-69667380D01*
X47886904Y-69619761D01*
X47839285Y-69572142D01*
X58888333Y-69667380D02*
X58555000Y-69191190D01*
X58316904Y-69667380D02*
X58316904Y-68667380D01*
X58697857Y-68667380D01*
X58793095Y-68715000D01*
X58840714Y-68762619D01*
X58888333Y-68857857D01*
X58888333Y-69000714D01*
X58840714Y-69095952D01*
X58793095Y-69143571D01*
X58697857Y-69191190D01*
X58316904Y-69191190D01*
X59745476Y-69000714D02*
X59745476Y-69667380D01*
X59507380Y-68619761D02*
X59269285Y-69334047D01*
X59888333Y-69334047D01*
X74128333Y-69667380D02*
X73795000Y-69191190D01*
X73556904Y-69667380D02*
X73556904Y-68667380D01*
X73937857Y-68667380D01*
X74033095Y-68715000D01*
X74080714Y-68762619D01*
X74128333Y-68857857D01*
X74128333Y-69000714D01*
X74080714Y-69095952D01*
X74033095Y-69143571D01*
X73937857Y-69191190D01*
X73556904Y-69191190D01*
X74461666Y-68667380D02*
X75080714Y-68667380D01*
X74747380Y-69048333D01*
X74890238Y-69048333D01*
X74985476Y-69095952D01*
X75033095Y-69143571D01*
X75080714Y-69238809D01*
X75080714Y-69476904D01*
X75033095Y-69572142D01*
X74985476Y-69619761D01*
X74890238Y-69667380D01*
X74604523Y-69667380D01*
X74509285Y-69619761D01*
X74461666Y-69572142D01*
X58888333Y-67762380D02*
X58555000Y-67286190D01*
X58316904Y-67762380D02*
X58316904Y-66762380D01*
X58697857Y-66762380D01*
X58793095Y-66810000D01*
X58840714Y-66857619D01*
X58888333Y-66952857D01*
X58888333Y-67095714D01*
X58840714Y-67190952D01*
X58793095Y-67238571D01*
X58697857Y-67286190D01*
X58316904Y-67286190D01*
X59269285Y-66857619D02*
X59316904Y-66810000D01*
X59412142Y-66762380D01*
X59650238Y-66762380D01*
X59745476Y-66810000D01*
X59793095Y-66857619D01*
X59840714Y-66952857D01*
X59840714Y-67048095D01*
X59793095Y-67190952D01*
X59221666Y-67762380D01*
X59840714Y-67762380D01*
X74128333Y-67762380D02*
X73795000Y-67286190D01*
X73556904Y-67762380D02*
X73556904Y-66762380D01*
X73937857Y-66762380D01*
X74033095Y-66810000D01*
X74080714Y-66857619D01*
X74128333Y-66952857D01*
X74128333Y-67095714D01*
X74080714Y-67190952D01*
X74033095Y-67238571D01*
X73937857Y-67286190D01*
X73556904Y-67286190D01*
X75080714Y-67762380D02*
X74509285Y-67762380D01*
X74795000Y-67762380D02*
X74795000Y-66762380D01*
X74699761Y-66905238D01*
X74604523Y-67000476D01*
X74509285Y-67048095D01*
X38444761Y-12152619D02*
X38349523Y-12105000D01*
X38254285Y-12009761D01*
X38111428Y-11866904D01*
X38016190Y-11819285D01*
X37920952Y-11819285D01*
X37968571Y-12057380D02*
X37873333Y-12009761D01*
X37778095Y-11914523D01*
X37730476Y-11724047D01*
X37730476Y-11390714D01*
X37778095Y-11200238D01*
X37873333Y-11105000D01*
X37968571Y-11057380D01*
X38159047Y-11057380D01*
X38254285Y-11105000D01*
X38349523Y-11200238D01*
X38397142Y-11390714D01*
X38397142Y-11724047D01*
X38349523Y-11914523D01*
X38254285Y-12009761D01*
X38159047Y-12057380D01*
X37968571Y-12057380D01*
X38730476Y-11057380D02*
X39397142Y-11057380D01*
X38968571Y-12057380D01*
X19399761Y-82547619D02*
X19304523Y-82500000D01*
X19209285Y-82404761D01*
X19066428Y-82261904D01*
X18971190Y-82214285D01*
X18875952Y-82214285D01*
X18923571Y-82452380D02*
X18828333Y-82404761D01*
X18733095Y-82309523D01*
X18685476Y-82119047D01*
X18685476Y-81785714D01*
X18733095Y-81595238D01*
X18828333Y-81500000D01*
X18923571Y-81452380D01*
X19114047Y-81452380D01*
X19209285Y-81500000D01*
X19304523Y-81595238D01*
X19352142Y-81785714D01*
X19352142Y-82119047D01*
X19304523Y-82309523D01*
X19209285Y-82404761D01*
X19114047Y-82452380D01*
X18923571Y-82452380D01*
X20256904Y-81452380D02*
X19780714Y-81452380D01*
X19733095Y-81928571D01*
X19780714Y-81880952D01*
X19875952Y-81833333D01*
X20114047Y-81833333D01*
X20209285Y-81880952D01*
X20256904Y-81928571D01*
X20304523Y-82023809D01*
X20304523Y-82261904D01*
X20256904Y-82357142D01*
X20209285Y-82404761D01*
X20114047Y-82452380D01*
X19875952Y-82452380D01*
X19780714Y-82404761D01*
X19733095Y-82357142D01*
X32424761Y-82547619D02*
X32329523Y-82500000D01*
X32234285Y-82404761D01*
X32091428Y-82261904D01*
X31996190Y-82214285D01*
X31900952Y-82214285D01*
X31948571Y-82452380D02*
X31853333Y-82404761D01*
X31758095Y-82309523D01*
X31710476Y-82119047D01*
X31710476Y-81785714D01*
X31758095Y-81595238D01*
X31853333Y-81500000D01*
X31948571Y-81452380D01*
X32139047Y-81452380D01*
X32234285Y-81500000D01*
X32329523Y-81595238D01*
X32377142Y-81785714D01*
X32377142Y-82119047D01*
X32329523Y-82309523D01*
X32234285Y-82404761D01*
X32139047Y-82452380D01*
X31948571Y-82452380D01*
X33234285Y-81785714D02*
X33234285Y-82452380D01*
X32996190Y-81404761D02*
X32758095Y-82119047D01*
X33377142Y-82119047D01*
X58324761Y-82462619D02*
X58229523Y-82415000D01*
X58134285Y-82319761D01*
X57991428Y-82176904D01*
X57896190Y-82129285D01*
X57800952Y-82129285D01*
X57848571Y-82367380D02*
X57753333Y-82319761D01*
X57658095Y-82224523D01*
X57610476Y-82034047D01*
X57610476Y-81700714D01*
X57658095Y-81510238D01*
X57753333Y-81415000D01*
X57848571Y-81367380D01*
X58039047Y-81367380D01*
X58134285Y-81415000D01*
X58229523Y-81510238D01*
X58277142Y-81700714D01*
X58277142Y-82034047D01*
X58229523Y-82224523D01*
X58134285Y-82319761D01*
X58039047Y-82367380D01*
X57848571Y-82367380D01*
X58610476Y-81367380D02*
X59229523Y-81367380D01*
X58896190Y-81748333D01*
X59039047Y-81748333D01*
X59134285Y-81795952D01*
X59181904Y-81843571D01*
X59229523Y-81938809D01*
X59229523Y-82176904D01*
X59181904Y-82272142D01*
X59134285Y-82319761D01*
X59039047Y-82367380D01*
X58753333Y-82367380D01*
X58658095Y-82319761D01*
X58610476Y-82272142D01*
X71254761Y-82462619D02*
X71159523Y-82415000D01*
X71064285Y-82319761D01*
X70921428Y-82176904D01*
X70826190Y-82129285D01*
X70730952Y-82129285D01*
X70778571Y-82367380D02*
X70683333Y-82319761D01*
X70588095Y-82224523D01*
X70540476Y-82034047D01*
X70540476Y-81700714D01*
X70588095Y-81510238D01*
X70683333Y-81415000D01*
X70778571Y-81367380D01*
X70969047Y-81367380D01*
X71064285Y-81415000D01*
X71159523Y-81510238D01*
X71207142Y-81700714D01*
X71207142Y-82034047D01*
X71159523Y-82224523D01*
X71064285Y-82319761D01*
X70969047Y-82367380D01*
X70778571Y-82367380D01*
X71588095Y-81462619D02*
X71635714Y-81415000D01*
X71730952Y-81367380D01*
X71969047Y-81367380D01*
X72064285Y-81415000D01*
X72111904Y-81462619D01*
X72159523Y-81557857D01*
X72159523Y-81653095D01*
X72111904Y-81795952D01*
X71540476Y-82367380D01*
X72159523Y-82367380D01*
X84359761Y-82462619D02*
X84264523Y-82415000D01*
X84169285Y-82319761D01*
X84026428Y-82176904D01*
X83931190Y-82129285D01*
X83835952Y-82129285D01*
X83883571Y-82367380D02*
X83788333Y-82319761D01*
X83693095Y-82224523D01*
X83645476Y-82034047D01*
X83645476Y-81700714D01*
X83693095Y-81510238D01*
X83788333Y-81415000D01*
X83883571Y-81367380D01*
X84074047Y-81367380D01*
X84169285Y-81415000D01*
X84264523Y-81510238D01*
X84312142Y-81700714D01*
X84312142Y-82034047D01*
X84264523Y-82224523D01*
X84169285Y-82319761D01*
X84074047Y-82367380D01*
X83883571Y-82367380D01*
X85264523Y-82367380D02*
X84693095Y-82367380D01*
X84978809Y-82367380D02*
X84978809Y-81367380D01*
X84883571Y-81510238D01*
X84788333Y-81605476D01*
X84693095Y-81653095D01*
X58412142Y-22677380D02*
X57935952Y-22677380D01*
X57935952Y-21677380D01*
X58697857Y-22629761D02*
X58840714Y-22677380D01*
X59078809Y-22677380D01*
X59174047Y-22629761D01*
X59221666Y-22582142D01*
X59269285Y-22486904D01*
X59269285Y-22391666D01*
X59221666Y-22296428D01*
X59174047Y-22248809D01*
X59078809Y-22201190D01*
X58888333Y-22153571D01*
X58793095Y-22105952D01*
X58745476Y-22058333D01*
X58697857Y-21963095D01*
X58697857Y-21867857D01*
X58745476Y-21772619D01*
X58793095Y-21725000D01*
X58888333Y-21677380D01*
X59126428Y-21677380D01*
X59269285Y-21725000D01*
X60221666Y-22677380D02*
X59650238Y-22677380D01*
X59935952Y-22677380D02*
X59935952Y-21677380D01*
X59840714Y-21820238D01*
X59745476Y-21915476D01*
X59650238Y-21963095D01*
X5965714Y-23642380D02*
X5965714Y-22642380D01*
X6203809Y-22642380D01*
X6346666Y-22690000D01*
X6441904Y-22785238D01*
X6489523Y-22880476D01*
X6537142Y-23070952D01*
X6537142Y-23213809D01*
X6489523Y-23404285D01*
X6441904Y-23499523D01*
X6346666Y-23594761D01*
X6203809Y-23642380D01*
X5965714Y-23642380D01*
X6918095Y-23594761D02*
X7060952Y-23642380D01*
X7299047Y-23642380D01*
X7394285Y-23594761D01*
X7441904Y-23547142D01*
X7489523Y-23451904D01*
X7489523Y-23356666D01*
X7441904Y-23261428D01*
X7394285Y-23213809D01*
X7299047Y-23166190D01*
X7108571Y-23118571D01*
X7013333Y-23070952D01*
X6965714Y-23023333D01*
X6918095Y-22928095D01*
X6918095Y-22832857D01*
X6965714Y-22737619D01*
X7013333Y-22690000D01*
X7108571Y-22642380D01*
X7346666Y-22642380D01*
X7489523Y-22690000D01*
X8441904Y-23642380D02*
X7870476Y-23642380D01*
X8156190Y-23642380D02*
X8156190Y-22642380D01*
X8060952Y-22785238D01*
X7965714Y-22880476D01*
X7870476Y-22928095D01*
X18010714Y-87452380D02*
X18010714Y-86452380D01*
X18248809Y-86452380D01*
X18391666Y-86500000D01*
X18486904Y-86595238D01*
X18534523Y-86690476D01*
X18582142Y-86880952D01*
X18582142Y-87023809D01*
X18534523Y-87214285D01*
X18486904Y-87309523D01*
X18391666Y-87404761D01*
X18248809Y-87452380D01*
X18010714Y-87452380D01*
X19534523Y-87452380D02*
X18963095Y-87452380D01*
X19248809Y-87452380D02*
X19248809Y-86452380D01*
X19153571Y-86595238D01*
X19058333Y-86690476D01*
X18963095Y-86738095D01*
X20486904Y-87452380D02*
X19915476Y-87452380D01*
X20201190Y-87452380D02*
X20201190Y-86452380D01*
X20105952Y-86595238D01*
X20010714Y-86690476D01*
X19915476Y-86738095D01*
X25028095Y-87447380D02*
X25028095Y-86447380D01*
X25599523Y-87447380D02*
X25170952Y-86875952D01*
X25599523Y-86447380D02*
X25028095Y-87018809D01*
X23391904Y-65857380D02*
X23391904Y-64857380D01*
X23630000Y-64857380D01*
X23772857Y-64905000D01*
X23868095Y-65000238D01*
X23915714Y-65095476D01*
X23963333Y-65285952D01*
X23963333Y-65428809D01*
X23915714Y-65619285D01*
X23868095Y-65714523D01*
X23772857Y-65809761D01*
X23630000Y-65857380D01*
X23391904Y-65857380D01*
X24439523Y-65857380D02*
X24630000Y-65857380D01*
X24725238Y-65809761D01*
X24772857Y-65762142D01*
X24868095Y-65619285D01*
X24915714Y-65428809D01*
X24915714Y-65047857D01*
X24868095Y-64952619D01*
X24820476Y-64905000D01*
X24725238Y-64857380D01*
X24534761Y-64857380D01*
X24439523Y-64905000D01*
X24391904Y-64952619D01*
X24344285Y-65047857D01*
X24344285Y-65285952D01*
X24391904Y-65381190D01*
X24439523Y-65428809D01*
X24534761Y-65476428D01*
X24725238Y-65476428D01*
X24820476Y-65428809D01*
X24868095Y-65381190D01*
X24915714Y-65285952D01*
X31831904Y-87452380D02*
X31831904Y-86452380D01*
X32070000Y-86452380D01*
X32212857Y-86500000D01*
X32308095Y-86595238D01*
X32355714Y-86690476D01*
X32403333Y-86880952D01*
X32403333Y-87023809D01*
X32355714Y-87214285D01*
X32308095Y-87309523D01*
X32212857Y-87404761D01*
X32070000Y-87452380D01*
X31831904Y-87452380D01*
X32974761Y-86880952D02*
X32879523Y-86833333D01*
X32831904Y-86785714D01*
X32784285Y-86690476D01*
X32784285Y-86642857D01*
X32831904Y-86547619D01*
X32879523Y-86500000D01*
X32974761Y-86452380D01*
X33165238Y-86452380D01*
X33260476Y-86500000D01*
X33308095Y-86547619D01*
X33355714Y-86642857D01*
X33355714Y-86690476D01*
X33308095Y-86785714D01*
X33260476Y-86833333D01*
X33165238Y-86880952D01*
X32974761Y-86880952D01*
X32879523Y-86928571D01*
X32831904Y-86976190D01*
X32784285Y-87071428D01*
X32784285Y-87261904D01*
X32831904Y-87357142D01*
X32879523Y-87404761D01*
X32974761Y-87452380D01*
X33165238Y-87452380D01*
X33260476Y-87404761D01*
X33308095Y-87357142D01*
X33355714Y-87261904D01*
X33355714Y-87071428D01*
X33308095Y-86976190D01*
X33260476Y-86928571D01*
X33165238Y-86880952D01*
X38023095Y-87447380D02*
X38023095Y-86447380D01*
X38594523Y-87447380D02*
X38165952Y-86875952D01*
X38594523Y-86447380D02*
X38023095Y-87018809D01*
X45026904Y-87452380D02*
X45026904Y-86452380D01*
X45265000Y-86452380D01*
X45407857Y-86500000D01*
X45503095Y-86595238D01*
X45550714Y-86690476D01*
X45598333Y-86880952D01*
X45598333Y-87023809D01*
X45550714Y-87214285D01*
X45503095Y-87309523D01*
X45407857Y-87404761D01*
X45265000Y-87452380D01*
X45026904Y-87452380D01*
X45931666Y-86452380D02*
X46598333Y-86452380D01*
X46169761Y-87452380D01*
X51218095Y-87447380D02*
X51218095Y-86447380D01*
X51789523Y-87447380D02*
X51360952Y-86875952D01*
X51789523Y-86447380D02*
X51218095Y-87018809D01*
X34821904Y-65857380D02*
X34821904Y-64857380D01*
X35060000Y-64857380D01*
X35202857Y-64905000D01*
X35298095Y-65000238D01*
X35345714Y-65095476D01*
X35393333Y-65285952D01*
X35393333Y-65428809D01*
X35345714Y-65619285D01*
X35298095Y-65714523D01*
X35202857Y-65809761D01*
X35060000Y-65857380D01*
X34821904Y-65857380D01*
X36250476Y-64857380D02*
X36060000Y-64857380D01*
X35964761Y-64905000D01*
X35917142Y-64952619D01*
X35821904Y-65095476D01*
X35774285Y-65285952D01*
X35774285Y-65666904D01*
X35821904Y-65762142D01*
X35869523Y-65809761D01*
X35964761Y-65857380D01*
X36155238Y-65857380D01*
X36250476Y-65809761D01*
X36298095Y-65762142D01*
X36345714Y-65666904D01*
X36345714Y-65428809D01*
X36298095Y-65333571D01*
X36250476Y-65285952D01*
X36155238Y-65238333D01*
X35964761Y-65238333D01*
X35869523Y-65285952D01*
X35821904Y-65333571D01*
X35774285Y-65428809D01*
X46886904Y-65857380D02*
X46886904Y-64857380D01*
X47125000Y-64857380D01*
X47267857Y-64905000D01*
X47363095Y-65000238D01*
X47410714Y-65095476D01*
X47458333Y-65285952D01*
X47458333Y-65428809D01*
X47410714Y-65619285D01*
X47363095Y-65714523D01*
X47267857Y-65809761D01*
X47125000Y-65857380D01*
X46886904Y-65857380D01*
X48363095Y-64857380D02*
X47886904Y-64857380D01*
X47839285Y-65333571D01*
X47886904Y-65285952D01*
X47982142Y-65238333D01*
X48220238Y-65238333D01*
X48315476Y-65285952D01*
X48363095Y-65333571D01*
X48410714Y-65428809D01*
X48410714Y-65666904D01*
X48363095Y-65762142D01*
X48315476Y-65809761D01*
X48220238Y-65857380D01*
X47982142Y-65857380D01*
X47886904Y-65809761D01*
X47839285Y-65762142D01*
X70611904Y-87447380D02*
X70611904Y-86447380D01*
X70850000Y-86447380D01*
X70992857Y-86495000D01*
X71088095Y-86590238D01*
X71135714Y-86685476D01*
X71183333Y-86875952D01*
X71183333Y-87018809D01*
X71135714Y-87209285D01*
X71088095Y-87304523D01*
X70992857Y-87399761D01*
X70850000Y-87447380D01*
X70611904Y-87447380D01*
X72040476Y-86780714D02*
X72040476Y-87447380D01*
X71802380Y-86399761D02*
X71564285Y-87114047D01*
X72183333Y-87114047D01*
X64103095Y-87447380D02*
X64103095Y-86447380D01*
X64674523Y-87447380D02*
X64245952Y-86875952D01*
X64674523Y-86447380D02*
X64103095Y-87018809D01*
X83716904Y-87447380D02*
X83716904Y-86447380D01*
X83955000Y-86447380D01*
X84097857Y-86495000D01*
X84193095Y-86590238D01*
X84240714Y-86685476D01*
X84288333Y-86875952D01*
X84288333Y-87018809D01*
X84240714Y-87209285D01*
X84193095Y-87304523D01*
X84097857Y-87399761D01*
X83955000Y-87447380D01*
X83716904Y-87447380D01*
X84621666Y-86447380D02*
X85240714Y-86447380D01*
X84907380Y-86828333D01*
X85050238Y-86828333D01*
X85145476Y-86875952D01*
X85193095Y-86923571D01*
X85240714Y-87018809D01*
X85240714Y-87256904D01*
X85193095Y-87352142D01*
X85145476Y-87399761D01*
X85050238Y-87447380D01*
X84764523Y-87447380D01*
X84669285Y-87399761D01*
X84621666Y-87352142D01*
X76573095Y-87447380D02*
X76573095Y-86447380D01*
X77144523Y-87447380D02*
X76715952Y-86875952D01*
X77144523Y-86447380D02*
X76573095Y-87018809D01*
X58316904Y-65857380D02*
X58316904Y-64857380D01*
X58555000Y-64857380D01*
X58697857Y-64905000D01*
X58793095Y-65000238D01*
X58840714Y-65095476D01*
X58888333Y-65285952D01*
X58888333Y-65428809D01*
X58840714Y-65619285D01*
X58793095Y-65714523D01*
X58697857Y-65809761D01*
X58555000Y-65857380D01*
X58316904Y-65857380D01*
X59269285Y-64952619D02*
X59316904Y-64905000D01*
X59412142Y-64857380D01*
X59650238Y-64857380D01*
X59745476Y-64905000D01*
X59793095Y-64952619D01*
X59840714Y-65047857D01*
X59840714Y-65143095D01*
X59793095Y-65285952D01*
X59221666Y-65857380D01*
X59840714Y-65857380D01*
X73556904Y-65857380D02*
X73556904Y-64857380D01*
X73795000Y-64857380D01*
X73937857Y-64905000D01*
X74033095Y-65000238D01*
X74080714Y-65095476D01*
X74128333Y-65285952D01*
X74128333Y-65428809D01*
X74080714Y-65619285D01*
X74033095Y-65714523D01*
X73937857Y-65809761D01*
X73795000Y-65857380D01*
X73556904Y-65857380D01*
X75080714Y-65857380D02*
X74509285Y-65857380D01*
X74795000Y-65857380D02*
X74795000Y-64857380D01*
X74699761Y-65000238D01*
X74604523Y-65095476D01*
X74509285Y-65143095D01*
M02*
