G04 #@! TF.GenerationSoftware,KiCad,Pcbnew,(5.99.0-1109-gba7c8ed85)*
G04 #@! TF.CreationDate,2020-03-28T01:29:19-07:00*
G04 #@! TF.ProjectId,ventilator,76656e74-696c-4617-946f-722e6b696361,rev?*
G04 #@! TF.SameCoordinates,Original*
G04 #@! TF.FileFunction,Legend,Bot*
G04 #@! TF.FilePolarity,Positive*
%FSLAX46Y46*%
G04 Gerber Fmt 4.6, Leading zero omitted, Abs format (unit mm)*
G04 Created by KiCad (PCBNEW (5.99.0-1109-gba7c8ed85)) date 2020-03-28 01:29:19*
%MOMM*%
%LPD*%
G01*
G04 APERTURE LIST*
%ADD10C,0.150000*%
%ADD11C,0.120000*%
G04 APERTURE END LIST*
D10*
X17263809Y-6802380D02*
X17263809Y-5802380D01*
X16882857Y-5802380D01*
X16787619Y-5850000D01*
X16740000Y-5897619D01*
X16692380Y-5992857D01*
X16692380Y-6135714D01*
X16740000Y-6230952D01*
X16787619Y-6278571D01*
X16882857Y-6326190D01*
X17263809Y-6326190D01*
X16073333Y-5802380D02*
X15882857Y-5802380D01*
X15787619Y-5850000D01*
X15692380Y-5945238D01*
X15644761Y-6135714D01*
X15644761Y-6469047D01*
X15692380Y-6659523D01*
X15787619Y-6754761D01*
X15882857Y-6802380D01*
X16073333Y-6802380D01*
X16168571Y-6754761D01*
X16263809Y-6659523D01*
X16311428Y-6469047D01*
X16311428Y-6135714D01*
X16263809Y-5945238D01*
X16168571Y-5850000D01*
X16073333Y-5802380D01*
X15359047Y-5802380D02*
X14787619Y-5802380D01*
X15073333Y-6802380D02*
X15073333Y-5802380D01*
X13787619Y-5802380D02*
X13168571Y-5802380D01*
X13501904Y-6183333D01*
X13359047Y-6183333D01*
X13263809Y-6230952D01*
X13216190Y-6278571D01*
X13168571Y-6373809D01*
X13168571Y-6611904D01*
X13216190Y-6707142D01*
X13263809Y-6754761D01*
X13359047Y-6802380D01*
X13644761Y-6802380D01*
X13740000Y-6754761D01*
X13787619Y-6707142D01*
X35043809Y-6802380D02*
X35043809Y-5802380D01*
X34662857Y-5802380D01*
X34567619Y-5850000D01*
X34520000Y-5897619D01*
X34472380Y-5992857D01*
X34472380Y-6135714D01*
X34520000Y-6230952D01*
X34567619Y-6278571D01*
X34662857Y-6326190D01*
X35043809Y-6326190D01*
X33853333Y-5802380D02*
X33662857Y-5802380D01*
X33567619Y-5850000D01*
X33472380Y-5945238D01*
X33424761Y-6135714D01*
X33424761Y-6469047D01*
X33472380Y-6659523D01*
X33567619Y-6754761D01*
X33662857Y-6802380D01*
X33853333Y-6802380D01*
X33948571Y-6754761D01*
X34043809Y-6659523D01*
X34091428Y-6469047D01*
X34091428Y-6135714D01*
X34043809Y-5945238D01*
X33948571Y-5850000D01*
X33853333Y-5802380D01*
X33139047Y-5802380D02*
X32567619Y-5802380D01*
X32853333Y-6802380D02*
X32853333Y-5802380D01*
X31520000Y-5897619D02*
X31472380Y-5850000D01*
X31377142Y-5802380D01*
X31139047Y-5802380D01*
X31043809Y-5850000D01*
X30996190Y-5897619D01*
X30948571Y-5992857D01*
X30948571Y-6088095D01*
X30996190Y-6230952D01*
X31567619Y-6802380D01*
X30948571Y-6802380D01*
X52823809Y-6802380D02*
X52823809Y-5802380D01*
X52442857Y-5802380D01*
X52347619Y-5850000D01*
X52300000Y-5897619D01*
X52252380Y-5992857D01*
X52252380Y-6135714D01*
X52300000Y-6230952D01*
X52347619Y-6278571D01*
X52442857Y-6326190D01*
X52823809Y-6326190D01*
X51633333Y-5802380D02*
X51442857Y-5802380D01*
X51347619Y-5850000D01*
X51252380Y-5945238D01*
X51204761Y-6135714D01*
X51204761Y-6469047D01*
X51252380Y-6659523D01*
X51347619Y-6754761D01*
X51442857Y-6802380D01*
X51633333Y-6802380D01*
X51728571Y-6754761D01*
X51823809Y-6659523D01*
X51871428Y-6469047D01*
X51871428Y-6135714D01*
X51823809Y-5945238D01*
X51728571Y-5850000D01*
X51633333Y-5802380D01*
X50919047Y-5802380D02*
X50347619Y-5802380D01*
X50633333Y-6802380D02*
X50633333Y-5802380D01*
X48728571Y-6802380D02*
X49300000Y-6802380D01*
X49014285Y-6802380D02*
X49014285Y-5802380D01*
X49109523Y-5945238D01*
X49204761Y-6040476D01*
X49300000Y-6088095D01*
X15961904Y-98512380D02*
X15771428Y-98512380D01*
X15676190Y-98560000D01*
X15580952Y-98655238D01*
X15533333Y-98845714D01*
X15533333Y-99179047D01*
X15580952Y-99369523D01*
X15676190Y-99464761D01*
X15771428Y-99512380D01*
X15961904Y-99512380D01*
X16057142Y-99464761D01*
X16152380Y-99369523D01*
X16200000Y-99179047D01*
X16200000Y-98845714D01*
X16152380Y-98655238D01*
X16057142Y-98560000D01*
X15961904Y-98512380D01*
X15104761Y-98512380D02*
X15104761Y-99321904D01*
X15057142Y-99417142D01*
X15009523Y-99464761D01*
X14914285Y-99512380D01*
X14723809Y-99512380D01*
X14628571Y-99464761D01*
X14580952Y-99417142D01*
X14533333Y-99321904D01*
X14533333Y-98512380D01*
X14200000Y-98512380D02*
X13628571Y-98512380D01*
X13914285Y-99512380D02*
X13914285Y-98512380D01*
X13295238Y-99512380D02*
X13295238Y-98512380D01*
X12914285Y-98512380D01*
X12819047Y-98560000D01*
X12771428Y-98607619D01*
X12723809Y-98702857D01*
X12723809Y-98845714D01*
X12771428Y-98940952D01*
X12819047Y-98988571D01*
X12914285Y-99036190D01*
X13295238Y-99036190D01*
X12295238Y-98512380D02*
X12295238Y-99321904D01*
X12247619Y-99417142D01*
X12200000Y-99464761D01*
X12104761Y-99512380D01*
X11914285Y-99512380D01*
X11819047Y-99464761D01*
X11771428Y-99417142D01*
X11723809Y-99321904D01*
X11723809Y-98512380D01*
X11390476Y-98512380D02*
X10819047Y-98512380D01*
X11104761Y-99512380D02*
X11104761Y-98512380D01*
X9295238Y-98512380D02*
X9485714Y-98512380D01*
X9580952Y-98560000D01*
X9628571Y-98607619D01*
X9723809Y-98750476D01*
X9771428Y-98940952D01*
X9771428Y-99321904D01*
X9723809Y-99417142D01*
X9676190Y-99464761D01*
X9580952Y-99512380D01*
X9390476Y-99512380D01*
X9295238Y-99464761D01*
X9247619Y-99417142D01*
X9200000Y-99321904D01*
X9200000Y-99083809D01*
X9247619Y-98988571D01*
X9295238Y-98940952D01*
X9390476Y-98893333D01*
X9580952Y-98893333D01*
X9676190Y-98940952D01*
X9723809Y-98988571D01*
X9771428Y-99083809D01*
X28661904Y-98512380D02*
X28471428Y-98512380D01*
X28376190Y-98560000D01*
X28280952Y-98655238D01*
X28233333Y-98845714D01*
X28233333Y-99179047D01*
X28280952Y-99369523D01*
X28376190Y-99464761D01*
X28471428Y-99512380D01*
X28661904Y-99512380D01*
X28757142Y-99464761D01*
X28852380Y-99369523D01*
X28900000Y-99179047D01*
X28900000Y-98845714D01*
X28852380Y-98655238D01*
X28757142Y-98560000D01*
X28661904Y-98512380D01*
X27804761Y-98512380D02*
X27804761Y-99321904D01*
X27757142Y-99417142D01*
X27709523Y-99464761D01*
X27614285Y-99512380D01*
X27423809Y-99512380D01*
X27328571Y-99464761D01*
X27280952Y-99417142D01*
X27233333Y-99321904D01*
X27233333Y-98512380D01*
X26900000Y-98512380D02*
X26328571Y-98512380D01*
X26614285Y-99512380D02*
X26614285Y-98512380D01*
X25995238Y-99512380D02*
X25995238Y-98512380D01*
X25614285Y-98512380D01*
X25519047Y-98560000D01*
X25471428Y-98607619D01*
X25423809Y-98702857D01*
X25423809Y-98845714D01*
X25471428Y-98940952D01*
X25519047Y-98988571D01*
X25614285Y-99036190D01*
X25995238Y-99036190D01*
X24995238Y-98512380D02*
X24995238Y-99321904D01*
X24947619Y-99417142D01*
X24900000Y-99464761D01*
X24804761Y-99512380D01*
X24614285Y-99512380D01*
X24519047Y-99464761D01*
X24471428Y-99417142D01*
X24423809Y-99321904D01*
X24423809Y-98512380D01*
X24090476Y-98512380D02*
X23519047Y-98512380D01*
X23804761Y-99512380D02*
X23804761Y-98512380D01*
X21947619Y-98512380D02*
X22423809Y-98512380D01*
X22471428Y-98988571D01*
X22423809Y-98940952D01*
X22328571Y-98893333D01*
X22090476Y-98893333D01*
X21995238Y-98940952D01*
X21947619Y-98988571D01*
X21900000Y-99083809D01*
X21900000Y-99321904D01*
X21947619Y-99417142D01*
X21995238Y-99464761D01*
X22090476Y-99512380D01*
X22328571Y-99512380D01*
X22423809Y-99464761D01*
X22471428Y-99417142D01*
X41996904Y-98512380D02*
X41806428Y-98512380D01*
X41711190Y-98560000D01*
X41615952Y-98655238D01*
X41568333Y-98845714D01*
X41568333Y-99179047D01*
X41615952Y-99369523D01*
X41711190Y-99464761D01*
X41806428Y-99512380D01*
X41996904Y-99512380D01*
X42092142Y-99464761D01*
X42187380Y-99369523D01*
X42235000Y-99179047D01*
X42235000Y-98845714D01*
X42187380Y-98655238D01*
X42092142Y-98560000D01*
X41996904Y-98512380D01*
X41139761Y-98512380D02*
X41139761Y-99321904D01*
X41092142Y-99417142D01*
X41044523Y-99464761D01*
X40949285Y-99512380D01*
X40758809Y-99512380D01*
X40663571Y-99464761D01*
X40615952Y-99417142D01*
X40568333Y-99321904D01*
X40568333Y-98512380D01*
X40235000Y-98512380D02*
X39663571Y-98512380D01*
X39949285Y-99512380D02*
X39949285Y-98512380D01*
X39330238Y-99512380D02*
X39330238Y-98512380D01*
X38949285Y-98512380D01*
X38854047Y-98560000D01*
X38806428Y-98607619D01*
X38758809Y-98702857D01*
X38758809Y-98845714D01*
X38806428Y-98940952D01*
X38854047Y-98988571D01*
X38949285Y-99036190D01*
X39330238Y-99036190D01*
X38330238Y-98512380D02*
X38330238Y-99321904D01*
X38282619Y-99417142D01*
X38235000Y-99464761D01*
X38139761Y-99512380D01*
X37949285Y-99512380D01*
X37854047Y-99464761D01*
X37806428Y-99417142D01*
X37758809Y-99321904D01*
X37758809Y-98512380D01*
X37425476Y-98512380D02*
X36854047Y-98512380D01*
X37139761Y-99512380D02*
X37139761Y-98512380D01*
X35330238Y-98845714D02*
X35330238Y-99512380D01*
X35568333Y-98464761D02*
X35806428Y-99179047D01*
X35187380Y-99179047D01*
X54696904Y-98512380D02*
X54506428Y-98512380D01*
X54411190Y-98560000D01*
X54315952Y-98655238D01*
X54268333Y-98845714D01*
X54268333Y-99179047D01*
X54315952Y-99369523D01*
X54411190Y-99464761D01*
X54506428Y-99512380D01*
X54696904Y-99512380D01*
X54792142Y-99464761D01*
X54887380Y-99369523D01*
X54935000Y-99179047D01*
X54935000Y-98845714D01*
X54887380Y-98655238D01*
X54792142Y-98560000D01*
X54696904Y-98512380D01*
X53839761Y-98512380D02*
X53839761Y-99321904D01*
X53792142Y-99417142D01*
X53744523Y-99464761D01*
X53649285Y-99512380D01*
X53458809Y-99512380D01*
X53363571Y-99464761D01*
X53315952Y-99417142D01*
X53268333Y-99321904D01*
X53268333Y-98512380D01*
X52935000Y-98512380D02*
X52363571Y-98512380D01*
X52649285Y-99512380D02*
X52649285Y-98512380D01*
X52030238Y-99512380D02*
X52030238Y-98512380D01*
X51649285Y-98512380D01*
X51554047Y-98560000D01*
X51506428Y-98607619D01*
X51458809Y-98702857D01*
X51458809Y-98845714D01*
X51506428Y-98940952D01*
X51554047Y-98988571D01*
X51649285Y-99036190D01*
X52030238Y-99036190D01*
X51030238Y-98512380D02*
X51030238Y-99321904D01*
X50982619Y-99417142D01*
X50935000Y-99464761D01*
X50839761Y-99512380D01*
X50649285Y-99512380D01*
X50554047Y-99464761D01*
X50506428Y-99417142D01*
X50458809Y-99321904D01*
X50458809Y-98512380D01*
X50125476Y-98512380D02*
X49554047Y-98512380D01*
X49839761Y-99512380D02*
X49839761Y-98512380D01*
X48554047Y-98512380D02*
X47934999Y-98512380D01*
X48268333Y-98893333D01*
X48125476Y-98893333D01*
X48030238Y-98940952D01*
X47982619Y-98988571D01*
X47934999Y-99083809D01*
X47934999Y-99321904D01*
X47982619Y-99417142D01*
X48030238Y-99464761D01*
X48125476Y-99512380D01*
X48411190Y-99512380D01*
X48506428Y-99464761D01*
X48554047Y-99417142D01*
X67396904Y-98512380D02*
X67206428Y-98512380D01*
X67111190Y-98560000D01*
X67015952Y-98655238D01*
X66968333Y-98845714D01*
X66968333Y-99179047D01*
X67015952Y-99369523D01*
X67111190Y-99464761D01*
X67206428Y-99512380D01*
X67396904Y-99512380D01*
X67492142Y-99464761D01*
X67587380Y-99369523D01*
X67635000Y-99179047D01*
X67635000Y-98845714D01*
X67587380Y-98655238D01*
X67492142Y-98560000D01*
X67396904Y-98512380D01*
X66539761Y-98512380D02*
X66539761Y-99321904D01*
X66492142Y-99417142D01*
X66444523Y-99464761D01*
X66349285Y-99512380D01*
X66158809Y-99512380D01*
X66063571Y-99464761D01*
X66015952Y-99417142D01*
X65968333Y-99321904D01*
X65968333Y-98512380D01*
X65635000Y-98512380D02*
X65063571Y-98512380D01*
X65349285Y-99512380D02*
X65349285Y-98512380D01*
X64730238Y-99512380D02*
X64730238Y-98512380D01*
X64349285Y-98512380D01*
X64254047Y-98560000D01*
X64206428Y-98607619D01*
X64158809Y-98702857D01*
X64158809Y-98845714D01*
X64206428Y-98940952D01*
X64254047Y-98988571D01*
X64349285Y-99036190D01*
X64730238Y-99036190D01*
X63730238Y-98512380D02*
X63730238Y-99321904D01*
X63682619Y-99417142D01*
X63635000Y-99464761D01*
X63539761Y-99512380D01*
X63349285Y-99512380D01*
X63254047Y-99464761D01*
X63206428Y-99417142D01*
X63158809Y-99321904D01*
X63158809Y-98512380D01*
X62825476Y-98512380D02*
X62254047Y-98512380D01*
X62539761Y-99512380D02*
X62539761Y-98512380D01*
X61206428Y-98607619D02*
X61158809Y-98560000D01*
X61063571Y-98512380D01*
X60825476Y-98512380D01*
X60730238Y-98560000D01*
X60682619Y-98607619D01*
X60634999Y-98702857D01*
X60634999Y-98798095D01*
X60682619Y-98940952D01*
X61254047Y-99512380D01*
X60634999Y-99512380D01*
X81366904Y-98512380D02*
X81176428Y-98512380D01*
X81081190Y-98560000D01*
X80985952Y-98655238D01*
X80938333Y-98845714D01*
X80938333Y-99179047D01*
X80985952Y-99369523D01*
X81081190Y-99464761D01*
X81176428Y-99512380D01*
X81366904Y-99512380D01*
X81462142Y-99464761D01*
X81557380Y-99369523D01*
X81605000Y-99179047D01*
X81605000Y-98845714D01*
X81557380Y-98655238D01*
X81462142Y-98560000D01*
X81366904Y-98512380D01*
X80509761Y-98512380D02*
X80509761Y-99321904D01*
X80462142Y-99417142D01*
X80414523Y-99464761D01*
X80319285Y-99512380D01*
X80128809Y-99512380D01*
X80033571Y-99464761D01*
X79985952Y-99417142D01*
X79938333Y-99321904D01*
X79938333Y-98512380D01*
X79605000Y-98512380D02*
X79033571Y-98512380D01*
X79319285Y-99512380D02*
X79319285Y-98512380D01*
X78700238Y-99512380D02*
X78700238Y-98512380D01*
X78319285Y-98512380D01*
X78224047Y-98560000D01*
X78176428Y-98607619D01*
X78128809Y-98702857D01*
X78128809Y-98845714D01*
X78176428Y-98940952D01*
X78224047Y-98988571D01*
X78319285Y-99036190D01*
X78700238Y-99036190D01*
X77700238Y-98512380D02*
X77700238Y-99321904D01*
X77652619Y-99417142D01*
X77605000Y-99464761D01*
X77509761Y-99512380D01*
X77319285Y-99512380D01*
X77224047Y-99464761D01*
X77176428Y-99417142D01*
X77128809Y-99321904D01*
X77128809Y-98512380D01*
X76795476Y-98512380D02*
X76224047Y-98512380D01*
X76509761Y-99512380D02*
X76509761Y-98512380D01*
X74605000Y-99512380D02*
X75176428Y-99512380D01*
X74890714Y-99512380D02*
X74890714Y-98512380D01*
X74985952Y-98655238D01*
X75081190Y-98750476D01*
X75176428Y-98798095D01*
D11*
X31150000Y-29770000D02*
X33690000Y-27230000D01*
X19720000Y-29770000D02*
X31150000Y-29770000D01*
X18070000Y-31420000D02*
X19720000Y-29770000D01*
X18070000Y-96070000D02*
X18070000Y-31420000D01*
X27600000Y-96070000D02*
X18070000Y-96070000D01*
X27600000Y-102420000D02*
X27600000Y-96070000D01*
X39280000Y-102420000D02*
X27600000Y-102420000D01*
X39280000Y-96070000D02*
X39280000Y-102420000D01*
X59350000Y-96070000D02*
X39280000Y-96070000D01*
X59350000Y-97970000D02*
X59350000Y-96070000D01*
X68490000Y-97970000D02*
X59350000Y-97970000D01*
X68490000Y-96070000D02*
X68490000Y-97970000D01*
X71670000Y-96070000D02*
X68490000Y-96070000D01*
X71670000Y-29770000D02*
X71670000Y-96070000D01*
X69000000Y-29770000D02*
X71670000Y-29770000D01*
X66460000Y-27230000D02*
X69000000Y-29770000D01*
X33690000Y-27230000D02*
X66460000Y-27230000D01*
M02*
