M48
; DRILL file {KiCad 5.99.0-unknown-c7daca1~100~ubuntu18.04.1} date Fri Mar 27 21:17:42 2020
; FORMAT={-:-/ absolute / inch / decimal}
; #@! TF.CreationDate,2020-03-27T21:17:42-07:00
; #@! TF.GenerationSoftware,Kicad,Pcbnew,5.99.0-unknown-c7daca1~100~ubuntu18.04.1
FMAT,2
INCH
T1C0.0315
T2C0.0354
T3C0.0394
T4C0.0433
T5C0.0472
T6C0.0512
T7C0.0984
T8C0.0866
%
G90
G05
T1
X0.4724Y-2.1654
X0.4724Y-2.3031
X0.5709Y-1.437
X0.6299Y-1.2205
X0.6693Y-1.437
X0.748Y-1.2205
X0.925Y-2.075
X0.925Y-2.4
X0.975Y-1.875
X1.175Y-2.225
X1.4Y-2.4
X0.3346Y-0.5512
X0.4331Y-0.5512
X1.4823Y-2.875
X1.7823Y-2.875
X1.0433Y-0.5512
X1.1417Y-0.5512
X0.3396Y-2.875
X0.6396Y-2.875
X2.4165Y-0.3937
X2.7165Y-0.3937
X1.4823Y-3.025
X1.7823Y-3.025
X0.689Y-0.5512
X0.7874Y-0.5512
X2.4106Y-3.0315
X2.7106Y-3.0315
X2.4091Y-2.875
X2.7091Y-2.875
X0.8165Y-1.2772
X0.8165Y-1.3772
X0.8165Y-1.4772
X0.8165Y-1.5772
X0.8165Y-1.6772
X0.8165Y-1.7772
X0.8165Y-1.8772
X0.8165Y-1.9772
X0.8165Y-2.137
X0.8165Y-2.237
X0.8165Y-2.337
X0.8165Y-2.437
X0.8165Y-2.537
X0.8165Y-2.637
X0.8165Y-2.737
X0.8165Y-2.837
X0.8165Y-2.937
X0.8165Y-3.037
X2.7165Y-1.2772
X2.7165Y-1.3772
X2.7165Y-1.4772
X2.7165Y-1.5772
X2.7165Y-1.6772
X2.7165Y-1.7772
X2.7165Y-1.9772
X2.7165Y-2.0772
X2.7165Y-2.1772
X2.7165Y-2.2772
X2.7165Y-2.3772
X2.7165Y-2.4772
X2.7165Y-2.5772
X2.7165Y-2.6772
X0.3396Y-3.0315
X0.6396Y-3.0315
X1.9268Y-3.025
X2.2268Y-3.025
X1.378Y-0.7677
X1.678Y-0.7677
X1.9268Y-2.875
X2.2268Y-2.875
X2.9134Y-3.0315
X3.2134Y-3.0315
X2.9075Y-2.874
X3.2075Y-2.874
X0.95Y-3.025
X1.25Y-3.025
X0.95Y-2.875
X1.25Y-2.875
T2
X0.475Y-2.65
X0.575Y-2.65
X1.55Y-2.65
X1.65Y-2.65
X2.0Y-2.65
X2.1Y-2.65
X2.475Y-2.65
X2.575Y-2.65
X3.075Y-2.65
X3.175Y-2.65
X1.1Y-2.65
X1.2Y-2.65
T3
X0.1Y-0.6
X3.1031Y-0.7087
X3.3Y-0.7087
X2.6281Y-0.7087
X2.825Y-0.7087
X0.1Y-0.7
X0.1Y-0.8
X1.9685Y-0.6693
X2.1654Y-0.6693
X0.1Y-0.4
X0.1Y-0.5
T4
X0.875Y-3.4252
X1.175Y-3.4252
X2.4106Y-3.4252
X2.7106Y-3.4252
X2.9075Y-3.4252
X3.2075Y-3.4252
X2.9575Y-3.2646
X3.0575Y-3.2646
X3.1575Y-3.2646
X0.3396Y-3.425
X0.6396Y-3.425
X2.45Y-3.2646
X2.55Y-3.2646
X2.65Y-3.2646
X1.4173Y-0.625
X1.5173Y-0.625
X1.6173Y-0.625
X1.9441Y-3.2646
X2.0441Y-3.2646
X2.1441Y-3.2646
X0.3937Y-3.2677
X0.4937Y-3.2677
X0.5937Y-3.2677
X1.3984Y-3.4252
X1.6984Y-3.4252
X0.925Y-3.2646
X1.025Y-3.2646
X1.125Y-3.2646
X1.4346Y-3.2646
X1.5346Y-3.2646
X1.6346Y-3.2646
X1.9047Y-3.4252
X2.2047Y-3.4252
T5
X0.5118Y-1.063
X0.6118Y-1.063
X0.7118Y-1.063
X0.8118Y-1.063
X0.9118Y-1.063
X1.0118Y-1.063
X1.1118Y-1.063
X1.2118Y-1.063
X1.3118Y-1.063
X1.4118Y-1.063
X1.5118Y-1.063
X1.6118Y-1.063
X1.7118Y-1.063
X1.8118Y-1.063
X1.9118Y-1.063
X2.0118Y-1.063
T6
X0.4063Y-0.1181
X0.6031Y-0.1181
X0.8Y-0.1181
X2.4378Y-3.7402
X2.6378Y-3.7402
X1.1024Y-0.1181
X1.2992Y-0.1181
X1.4961Y-0.1181
X1.8063Y-0.1181
X2.0031Y-0.1181
X2.2Y-0.1181
X1.926Y-3.7402
X2.126Y-3.7402
X0.9024Y-3.7402
X1.1024Y-3.7402
X0.3937Y-3.7402
X0.5937Y-3.7402
X2.9575Y-3.7402
X3.1575Y-3.7402
X1.4142Y-3.7402
X1.6142Y-3.7402
T7
X0.2953Y-1.063
X0.2953Y-2.2835
X3.248Y-2.2835
X3.248Y-1.063
T8
X0.1181Y-0.1181
X3.4252Y-0.1181
X0.1181Y-3.8189
X3.4252Y-3.8189
T3
G00X2.8858Y-0.2362
M15
G01X2.8858Y-0.315
M16
G05
G00X3.1102Y-0.1575
M15
G01X3.0315Y-0.1575
M16
G05
G00X3.1102Y-0.3937
M15
G01X3.0315Y-0.3937
M16
G05
T0
M30
